%TF.GenerationSoftware,KiCad,Pcbnew,(5.1.2)-2*%
%TF.CreationDate,2019-06-24T14:10:12+02:00*%
%TF.ProjectId,Main_Monstrum,4d61696e-5f4d-46f6-9e73-7472756d2e6b,rev?*%
%TF.SameCoordinates,PX196f3b0PYa952310*%
%TF.FileFunction,Legend,Top*%
%TF.FilePolarity,Positive*%
%FSLAX46Y46*%
G04 Gerber Fmt 4.6, Leading zero omitted, Abs format (unit mm)*
G04 Created by KiCad (PCBNEW (5.1.2)-2) date 2019-06-24 14:10:12*
%MOMM*%
%LPD*%
G04 APERTURE LIST*
%ADD10C,0.150000*%
%ADD11C,0.100000*%
%ADD12C,0.120000*%
%ADD13C,0.300000*%
G04 APERTURE END LIST*
D10*
X37312285Y16434191D02*
X39112285Y16815143D01*
X37826571Y17119905D01*
X39112285Y17424667D01*
X37312285Y17805620D01*
X37312285Y18186572D02*
X37312285Y19100858D01*
X39112285Y18643715D02*
X37312285Y18643715D01*
X39112285Y19634191D02*
X37312285Y19634191D01*
X37312285Y20015143D01*
X37398000Y20243715D01*
X37569428Y20396096D01*
X37740857Y20472286D01*
X38083714Y20548477D01*
X38340857Y20548477D01*
X38683714Y20472286D01*
X38855142Y20396096D01*
X39026571Y20243715D01*
X39112285Y20015143D01*
X39112285Y19634191D01*
X37312285Y21310381D02*
X37655142Y21158000D01*
X39026571Y21919905D02*
X39112285Y22072286D01*
X39112285Y22377048D01*
X39026571Y22529429D01*
X38855142Y22605620D01*
X38769428Y22605620D01*
X38598000Y22529429D01*
X38512285Y22377048D01*
X38512285Y22148477D01*
X38426571Y21996096D01*
X38255142Y21919905D01*
X38169428Y21919905D01*
X37998000Y21996096D01*
X37912285Y22148477D01*
X37912285Y22377048D01*
X37998000Y22529429D01*
X40333714Y9424667D02*
X40248000Y9500858D01*
X40162285Y9653239D01*
X40162285Y10034191D01*
X40248000Y10186572D01*
X40333714Y10262762D01*
X40505142Y10338953D01*
X40676571Y10338953D01*
X40933714Y10262762D01*
X41962285Y9348477D01*
X41962285Y10338953D01*
X41790857Y11024667D02*
X41876571Y11100858D01*
X41962285Y11024667D01*
X41876571Y10948477D01*
X41790857Y11024667D01*
X41962285Y11024667D01*
X40762285Y12472286D02*
X41962285Y12472286D01*
X40076571Y12091334D02*
X41362285Y11710381D01*
X41362285Y12700858D01*
X40248000Y15367524D02*
X40162285Y15215143D01*
X40162285Y14986572D01*
X40248000Y14758000D01*
X40419428Y14605620D01*
X40590857Y14529429D01*
X40933714Y14453239D01*
X41190857Y14453239D01*
X41533714Y14529429D01*
X41705142Y14605620D01*
X41876571Y14758000D01*
X41962285Y14986572D01*
X41962285Y15138953D01*
X41876571Y15367524D01*
X41790857Y15443715D01*
X41190857Y15443715D01*
X41190857Y15138953D01*
X41962285Y16129429D02*
X40162285Y16129429D01*
X41019428Y16129429D02*
X41019428Y17043715D01*
X41962285Y17043715D02*
X40162285Y17043715D01*
X40762285Y17653239D02*
X40762285Y18491334D01*
X41962285Y17653239D01*
X41962285Y18491334D01*
X41962285Y21234191D02*
X41105142Y20700858D01*
X41962285Y20319905D02*
X40162285Y20319905D01*
X40162285Y20929429D01*
X40248000Y21081810D01*
X40333714Y21158000D01*
X40505142Y21234191D01*
X40762285Y21234191D01*
X40933714Y21158000D01*
X41019428Y21081810D01*
X41105142Y20929429D01*
X41105142Y20319905D01*
X41876571Y22529429D02*
X41962285Y22377048D01*
X41962285Y22072286D01*
X41876571Y21919905D01*
X41705142Y21843715D01*
X41019428Y21843715D01*
X40848000Y21919905D01*
X40762285Y22072286D01*
X40762285Y22377048D01*
X40848000Y22529429D01*
X41019428Y22605620D01*
X41190857Y22605620D01*
X41362285Y21843715D01*
X41876571Y23977048D02*
X41962285Y23824667D01*
X41962285Y23519905D01*
X41876571Y23367524D01*
X41790857Y23291334D01*
X41619428Y23215143D01*
X41105142Y23215143D01*
X40933714Y23291334D01*
X40848000Y23367524D01*
X40762285Y23519905D01*
X40762285Y23824667D01*
X40848000Y23977048D01*
X41876571Y25272286D02*
X41962285Y25119905D01*
X41962285Y24815143D01*
X41876571Y24662762D01*
X41705142Y24586572D01*
X41019428Y24586572D01*
X40848000Y24662762D01*
X40762285Y24815143D01*
X40762285Y25119905D01*
X40848000Y25272286D01*
X41019428Y25348477D01*
X41190857Y25348477D01*
X41362285Y24586572D01*
X41962285Y26034191D02*
X40762285Y26034191D01*
X40162285Y26034191D02*
X40248000Y25958000D01*
X40333714Y26034191D01*
X40248000Y26110381D01*
X40162285Y26034191D01*
X40333714Y26034191D01*
X40762285Y26643715D02*
X41962285Y27024667D01*
X40762285Y27405620D01*
X41876571Y28624667D02*
X41962285Y28472286D01*
X41962285Y28167524D01*
X41876571Y28015143D01*
X41705142Y27938953D01*
X41019428Y27938953D01*
X40848000Y28015143D01*
X40762285Y28167524D01*
X40762285Y28472286D01*
X40848000Y28624667D01*
X41019428Y28700858D01*
X41190857Y28700858D01*
X41362285Y27938953D01*
X41962285Y29386572D02*
X40762285Y29386572D01*
X41105142Y29386572D02*
X40933714Y29462762D01*
X40848000Y29538953D01*
X40762285Y29691334D01*
X40762285Y29843715D01*
X43183714Y16815143D02*
X43098000Y16891334D01*
X43012285Y17043715D01*
X43012285Y17424667D01*
X43098000Y17577048D01*
X43183714Y17653239D01*
X43355142Y17729429D01*
X43526571Y17729429D01*
X43783714Y17653239D01*
X44812285Y16738953D01*
X44812285Y17729429D01*
X43012285Y18719905D02*
X43012285Y18872286D01*
X43098000Y19024667D01*
X43183714Y19100858D01*
X43355142Y19177048D01*
X43698000Y19253239D01*
X44126571Y19253239D01*
X44469428Y19177048D01*
X44640857Y19100858D01*
X44726571Y19024667D01*
X44812285Y18872286D01*
X44812285Y18719905D01*
X44726571Y18567524D01*
X44640857Y18491334D01*
X44469428Y18415143D01*
X44126571Y18338953D01*
X43698000Y18338953D01*
X43355142Y18415143D01*
X43183714Y18491334D01*
X43098000Y18567524D01*
X43012285Y18719905D01*
X44812285Y20777048D02*
X44812285Y19862762D01*
X44812285Y20319905D02*
X43012285Y20319905D01*
X43269428Y20167524D01*
X43440857Y20015143D01*
X43526571Y19862762D01*
X44812285Y21538953D02*
X44812285Y21843715D01*
X44726571Y21996096D01*
X44640857Y22072286D01*
X44383714Y22224667D01*
X44040857Y22300858D01*
X43355142Y22300858D01*
X43183714Y22224667D01*
X43098000Y22148477D01*
X43012285Y21996096D01*
X43012285Y21691334D01*
X43098000Y21538953D01*
X43183714Y21462762D01*
X43355142Y21386572D01*
X43783714Y21386572D01*
X43955142Y21462762D01*
X44040857Y21538953D01*
X44126571Y21691334D01*
X44126571Y21996096D01*
X44040857Y22148477D01*
X43955142Y22224667D01*
X43783714Y22300858D01*
D11*
X64516000Y85852000D02*
X64516000Y50800000D01*
X1778000Y87630000D02*
X62738000Y87630000D01*
X0Y1778000D02*
X0Y85852000D01*
X44958000Y0D02*
X1778000Y0D01*
X46736000Y50800000D02*
X46736000Y1778000D01*
X62738000Y87630000D02*
X64516000Y85852000D01*
X0Y85852000D02*
X1778000Y87630000D01*
X1778000Y0D02*
X0Y1778000D01*
X44958000Y0D02*
X46736000Y1778000D01*
D10*
X3921238Y817620D02*
X3445047Y817620D01*
X3445047Y1817620D01*
X4254571Y817620D02*
X4254571Y1817620D01*
X4730761Y817620D02*
X4730761Y1817620D01*
X5302190Y817620D01*
X5302190Y1817620D01*
X5778380Y1341429D02*
X6111714Y1341429D01*
X6254571Y817620D02*
X5778380Y817620D01*
X5778380Y1817620D01*
X6254571Y1817620D01*
X31123142Y1071620D02*
X31123142Y2071620D01*
X31694571Y1071620D01*
X31694571Y2071620D01*
X32170761Y1595429D02*
X32504095Y1595429D01*
X32646952Y1071620D02*
X32170761Y1071620D01*
X32170761Y2071620D01*
X32646952Y2071620D01*
X33075523Y2071620D02*
X33075523Y1262096D01*
X33123142Y1166858D01*
X33170761Y1119239D01*
X33266000Y1071620D01*
X33456476Y1071620D01*
X33551714Y1119239D01*
X33599333Y1166858D01*
X33646952Y1262096D01*
X33646952Y2071620D01*
X33980285Y2071620D02*
X34551714Y2071620D01*
X34266000Y1071620D02*
X34266000Y2071620D01*
D11*
X64516000Y50800000D02*
X46736000Y50800000D01*
D12*
X23950000Y2550000D02*
X24550000Y2550000D01*
X23950000Y3390000D02*
X23950000Y2550000D01*
X30570000Y5374000D02*
X30476000Y5281000D01*
X32820000Y7625000D02*
X32761000Y7566000D01*
X30740000Y5134000D02*
X30681000Y5076000D01*
X33025000Y7419000D02*
X32931000Y7326000D01*
X34310000Y10510000D02*
X34310000Y2789000D01*
X24190000Y10510000D02*
X24190000Y2789000D01*
X24190000Y2789000D02*
X34310000Y2789000D01*
X24190000Y10510000D02*
X34310000Y10510000D01*
X24190000Y8750000D02*
X34310000Y8750000D01*
X24190000Y4050000D02*
X34310000Y4050000D01*
X24190000Y3450000D02*
X34310000Y3450000D01*
X32300000Y9350000D02*
G75*
G03X32300000Y9350000I-550000J0D01*
G01*
X33430000Y6350000D02*
G75*
G03X33430000Y6350000I-1680000J0D01*
G01*
X27300000Y9350000D02*
G75*
G03X27300000Y9350000I-550000J0D01*
G01*
X26779383Y4669550D02*
G75*
G02X25961000Y4866000I-29383J1680450D01*
G01*
X25266047Y5560912D02*
G75*
G02X25266000Y7139000I1483953J789088D01*
G01*
X25960912Y7833953D02*
G75*
G02X27539000Y7834000I789088J-1483953D01*
G01*
X28233953Y7139088D02*
G75*
G02X28234000Y5561000I-1483953J-789088D01*
G01*
X27538712Y4866648D02*
G75*
G02X26750000Y4670000I-788712J1483352D01*
G01*
D13*
X9666000Y65934000D02*
X43166000Y65934000D01*
X43166000Y65934000D02*
X43166000Y84434000D01*
X43166000Y84434000D02*
X9666000Y84434000D01*
X9666000Y65934000D02*
X9666000Y84434000D01*
D12*
X50232000Y84388000D02*
X50232000Y79188000D01*
X57912000Y84388000D02*
X50232000Y84388000D01*
X60512000Y79188000D02*
X50232000Y79188000D01*
X57912000Y84388000D02*
X57912000Y81788000D01*
X57912000Y81788000D02*
X60512000Y81788000D01*
X60512000Y81788000D02*
X60512000Y79188000D01*
X59182000Y84388000D02*
X60512000Y84388000D01*
X60512000Y84388000D02*
X60512000Y83058000D01*
X15718000Y54256000D02*
X10778000Y54256000D01*
X15718000Y56996000D02*
X10778000Y56996000D01*
X15718000Y54256000D02*
X15718000Y54571000D01*
X15718000Y56681000D02*
X15718000Y56996000D01*
X10778000Y54256000D02*
X10778000Y54571000D01*
X10778000Y56681000D02*
X10778000Y56996000D01*
X38888712Y34838648D02*
G75*
G02X38100000Y34642000I-788712J1483352D01*
G01*
X39583953Y37111088D02*
G75*
G02X39584000Y35533000I-1483953J-789088D01*
G01*
X37310912Y37805953D02*
G75*
G02X38889000Y37806000I789088J-1483953D01*
G01*
X36616047Y35532912D02*
G75*
G02X36616000Y37111000I1483953J789088D01*
G01*
X38129383Y34641550D02*
G75*
G02X37311000Y34838000I-29383J1680450D01*
G01*
X38650000Y39322000D02*
G75*
G03X38650000Y39322000I-550000J0D01*
G01*
X44780000Y36322000D02*
G75*
G03X44780000Y36322000I-1680000J0D01*
G01*
X43650000Y39322000D02*
G75*
G03X43650000Y39322000I-550000J0D01*
G01*
X35540000Y33422000D02*
X45660000Y33422000D01*
X35540000Y34022000D02*
X45660000Y34022000D01*
X35540000Y38722000D02*
X45660000Y38722000D01*
X35540000Y40482000D02*
X45660000Y40482000D01*
X35540000Y32761000D02*
X45660000Y32761000D01*
X35540000Y40482000D02*
X35540000Y32761000D01*
X45660000Y40482000D02*
X45660000Y32761000D01*
X44375000Y37391000D02*
X44281000Y37298000D01*
X42090000Y35106000D02*
X42031000Y35048000D01*
X44170000Y37597000D02*
X44111000Y37538000D01*
X41920000Y35346000D02*
X41826000Y35253000D01*
X35300000Y33362000D02*
X35300000Y32522000D01*
X35300000Y32522000D02*
X35900000Y32522000D01*
X35112000Y59884000D02*
X35112000Y62544000D01*
X29972000Y59884000D02*
X35112000Y59884000D01*
X29972000Y62544000D02*
X35112000Y62544000D01*
X29972000Y59884000D02*
X29972000Y62544000D01*
X28702000Y59884000D02*
X27372000Y59884000D01*
X27372000Y59884000D02*
X27372000Y61214000D01*
X3550000Y2550000D02*
X4150000Y2550000D01*
X3550000Y3390000D02*
X3550000Y2550000D01*
X10170000Y5374000D02*
X10076000Y5281000D01*
X12420000Y7625000D02*
X12361000Y7566000D01*
X10340000Y5134000D02*
X10281000Y5076000D01*
X12625000Y7419000D02*
X12531000Y7326000D01*
X13910000Y10510000D02*
X13910000Y2789000D01*
X3790000Y10510000D02*
X3790000Y2789000D01*
X3790000Y2789000D02*
X13910000Y2789000D01*
X3790000Y10510000D02*
X13910000Y10510000D01*
X3790000Y8750000D02*
X13910000Y8750000D01*
X3790000Y4050000D02*
X13910000Y4050000D01*
X3790000Y3450000D02*
X13910000Y3450000D01*
X11900000Y9350000D02*
G75*
G03X11900000Y9350000I-550000J0D01*
G01*
X13030000Y6350000D02*
G75*
G03X13030000Y6350000I-1680000J0D01*
G01*
X6900000Y9350000D02*
G75*
G03X6900000Y9350000I-550000J0D01*
G01*
X6379383Y4669550D02*
G75*
G02X5561000Y4866000I-29383J1680450D01*
G01*
X4866047Y5560912D02*
G75*
G02X4866000Y7139000I1483953J789088D01*
G01*
X5560912Y7833953D02*
G75*
G02X7139000Y7834000I789088J-1483953D01*
G01*
X7833953Y7139088D02*
G75*
G02X7834000Y5561000I-1483953J-789088D01*
G01*
X7138712Y4866648D02*
G75*
G02X6350000Y4670000I-788712J1483352D01*
G01*
X12994000Y46260000D02*
X2754000Y46260000D01*
X12994000Y50901000D02*
X2754000Y50901000D01*
X12994000Y46260000D02*
X12994000Y50901000D01*
X2754000Y46260000D02*
X2754000Y50901000D01*
X12994000Y47770000D02*
X2754000Y47770000D01*
X9724000Y46260000D02*
X9724000Y47770000D01*
X6023000Y46260000D02*
X6023000Y47770000D01*
X2694000Y56996000D02*
X7934000Y56996000D01*
X2694000Y54256000D02*
X7934000Y54256000D01*
X2694000Y56996000D02*
X2694000Y54256000D01*
X7934000Y56996000D02*
X7934000Y54256000D01*
X17618000Y46306000D02*
X21468000Y46306000D01*
X17235369Y46883955D02*
G75*
G03X17618000Y46306000I2322631J1122045D01*
G01*
X17201600Y49104807D02*
G75*
G02X19558000Y50606000I2356400J-1098807D01*
G01*
X21914400Y49104807D02*
G75*
G03X19558000Y50606000I-2356400J-1098807D01*
G01*
X21860383Y46893736D02*
G75*
G02X21468000Y46306000I-2302383J1112264D01*
G01*
X6636000Y62584000D02*
X6636000Y59844000D01*
X6636000Y59844000D02*
X13176000Y59844000D01*
X13176000Y59844000D02*
X13176000Y62584000D01*
X13176000Y62584000D02*
X6636000Y62584000D01*
X5866000Y61214000D02*
X6636000Y61214000D01*
X13946000Y61214000D02*
X13176000Y61214000D01*
X27332000Y49562000D02*
X30072000Y49562000D01*
X30072000Y49562000D02*
X30072000Y56102000D01*
X30072000Y56102000D02*
X27332000Y56102000D01*
X27332000Y56102000D02*
X27332000Y49562000D01*
X28702000Y48792000D02*
X28702000Y49562000D01*
X28702000Y56872000D02*
X28702000Y56102000D01*
X33782000Y48792000D02*
X33782000Y49562000D01*
X33782000Y56872000D02*
X33782000Y56102000D01*
X35152000Y49562000D02*
X35152000Y56102000D01*
X32412000Y49562000D02*
X35152000Y49562000D01*
X32412000Y56102000D02*
X32412000Y49562000D01*
X35152000Y56102000D02*
X32412000Y56102000D01*
X1166000Y12744000D02*
X1166000Y40784000D01*
X1166000Y40784000D02*
X34206000Y40784000D01*
X34206000Y40784000D02*
X34206000Y12744000D01*
X34206000Y12744000D02*
X1166000Y12744000D01*
X29686000Y12364000D02*
X24686000Y12364000D01*
X18164000Y61840000D02*
X18654000Y61840000D01*
X19954000Y61840000D02*
X23104000Y61840000D01*
X18164000Y55000000D02*
X18654000Y55000000D01*
X19954000Y55000000D02*
X23104000Y55000000D01*
X23104000Y61840000D02*
X23104000Y55000000D01*
X18164000Y61840000D02*
X18164000Y55000000D01*
D10*
X28916666Y12057620D02*
X28916666Y11343334D01*
X28869047Y11200477D01*
X28773809Y11105239D01*
X28630952Y11057620D01*
X28535714Y11057620D01*
X29821428Y11724286D02*
X29821428Y11057620D01*
X29583333Y12105239D02*
X29345238Y11390953D01*
X29964285Y11390953D01*
X26543142Y74235429D02*
X26543142Y73235429D01*
X25900285Y74235429D02*
X25900285Y73449715D01*
X25971714Y73306858D01*
X26114571Y73235429D01*
X26328857Y73235429D01*
X26471714Y73306858D01*
X26543142Y73378286D01*
X27257428Y73235429D02*
X27257428Y74735429D01*
X27828857Y74735429D01*
X27971714Y74664000D01*
X28043142Y74592572D01*
X28114571Y74449715D01*
X28114571Y74235429D01*
X28043142Y74092572D01*
X27971714Y74021143D01*
X27828857Y73949715D01*
X27257428Y73949715D01*
X29543142Y73235429D02*
X28686000Y73235429D01*
X29114571Y73235429D02*
X29114571Y74735429D01*
X28971714Y74521143D01*
X28828857Y74378286D01*
X28686000Y74306858D01*
X18757428Y76204000D02*
X19471714Y76204000D01*
X18614571Y75775429D02*
X19114571Y77275429D01*
X19614571Y75775429D01*
X20971714Y75775429D02*
X20471714Y76489715D01*
X20114571Y75775429D02*
X20114571Y77275429D01*
X20686000Y77275429D01*
X20828857Y77204000D01*
X20900285Y77132572D01*
X20971714Y76989715D01*
X20971714Y76775429D01*
X20900285Y76632572D01*
X20828857Y76561143D01*
X20686000Y76489715D01*
X20114571Y76489715D01*
X21614571Y75775429D02*
X21614571Y77275429D01*
X21971714Y77275429D01*
X22186000Y77204000D01*
X22328857Y77061143D01*
X22400285Y76918286D01*
X22471714Y76632572D01*
X22471714Y76418286D01*
X22400285Y76132572D01*
X22328857Y75989715D01*
X22186000Y75846858D01*
X21971714Y75775429D01*
X21614571Y75775429D01*
X23114571Y77275429D02*
X23114571Y76061143D01*
X23186000Y75918286D01*
X23257428Y75846858D01*
X23400285Y75775429D01*
X23686000Y75775429D01*
X23828857Y75846858D01*
X23900285Y75918286D01*
X23971714Y76061143D01*
X23971714Y77275429D01*
X24686000Y75775429D02*
X24686000Y77275429D01*
X25257428Y77275429D01*
X25400285Y77204000D01*
X25471714Y77132572D01*
X25543142Y76989715D01*
X25543142Y76775429D01*
X25471714Y76632572D01*
X25400285Y76561143D01*
X25257428Y76489715D01*
X24686000Y76489715D01*
X27043142Y75775429D02*
X26543142Y76489715D01*
X26186000Y75775429D02*
X26186000Y77275429D01*
X26757428Y77275429D01*
X26900285Y77204000D01*
X26971714Y77132572D01*
X27043142Y76989715D01*
X27043142Y76775429D01*
X26971714Y76632572D01*
X26900285Y76561143D01*
X26757428Y76489715D01*
X26186000Y76489715D01*
X27971714Y77275429D02*
X28257428Y77275429D01*
X28400285Y77204000D01*
X28543142Y77061143D01*
X28614571Y76775429D01*
X28614571Y76275429D01*
X28543142Y75989715D01*
X28400285Y75846858D01*
X28257428Y75775429D01*
X27971714Y75775429D01*
X27828857Y75846858D01*
X27686000Y75989715D01*
X27614571Y76275429D01*
X27614571Y76775429D01*
X27686000Y77061143D01*
X27828857Y77204000D01*
X27971714Y77275429D01*
X29257428Y75775429D02*
X29257428Y77275429D01*
X29757428Y76204000D01*
X30257428Y77275429D01*
X30257428Y75775429D01*
X30971714Y75775429D02*
X30971714Y77275429D01*
X31686000Y75775429D02*
X31686000Y77275429D01*
X32543142Y75775429D01*
X32543142Y77275429D01*
X33257428Y75775429D02*
X33257428Y77275429D01*
X33971714Y76346858D02*
X35114571Y76346858D01*
X36471714Y77275429D02*
X36186000Y77275429D01*
X36043142Y77204000D01*
X35971714Y77132572D01*
X35828857Y76918286D01*
X35757428Y76632572D01*
X35757428Y76061143D01*
X35828857Y75918286D01*
X35900285Y75846858D01*
X36043142Y75775429D01*
X36328857Y75775429D01*
X36471714Y75846858D01*
X36543142Y75918286D01*
X36614571Y76061143D01*
X36614571Y76418286D01*
X36543142Y76561143D01*
X36471714Y76632572D01*
X36328857Y76704000D01*
X36043142Y76704000D01*
X35900285Y76632572D01*
X35828857Y76561143D01*
X35757428Y76418286D01*
X60964380Y81026096D02*
X61773904Y81026096D01*
X61869142Y81073715D01*
X61916761Y81121334D01*
X61964380Y81216572D01*
X61964380Y81407048D01*
X61916761Y81502286D01*
X61869142Y81549905D01*
X61773904Y81597524D01*
X60964380Y81597524D01*
X61059619Y82026096D02*
X61012000Y82073715D01*
X60964380Y82168953D01*
X60964380Y82407048D01*
X61012000Y82502286D01*
X61059619Y82549905D01*
X61154857Y82597524D01*
X61250095Y82597524D01*
X61392952Y82549905D01*
X61964380Y81978477D01*
X61964380Y82597524D01*
X13041333Y57554858D02*
X12993714Y57507239D01*
X12850857Y57459620D01*
X12755619Y57459620D01*
X12612761Y57507239D01*
X12517523Y57602477D01*
X12469904Y57697715D01*
X12422285Y57888191D01*
X12422285Y58031048D01*
X12469904Y58221524D01*
X12517523Y58316762D01*
X12612761Y58412000D01*
X12755619Y58459620D01*
X12850857Y58459620D01*
X12993714Y58412000D01*
X13041333Y58364381D01*
X13422285Y58364381D02*
X13469904Y58412000D01*
X13565142Y58459620D01*
X13803238Y58459620D01*
X13898476Y58412000D01*
X13946095Y58364381D01*
X13993714Y58269143D01*
X13993714Y58173905D01*
X13946095Y58031048D01*
X13374666Y57459620D01*
X13993714Y57459620D01*
X40266666Y42029620D02*
X40266666Y41315334D01*
X40219047Y41172477D01*
X40123809Y41077239D01*
X39980952Y41029620D01*
X39885714Y41029620D01*
X41266666Y41029620D02*
X40695238Y41029620D01*
X40980952Y41029620D02*
X40980952Y42029620D01*
X40885714Y41886762D01*
X40790476Y41791524D01*
X40695238Y41743905D01*
X25824380Y60880667D02*
X26538666Y60880667D01*
X26681523Y60833048D01*
X26776761Y60737810D01*
X26824380Y60594953D01*
X26824380Y60499715D01*
X25919619Y61309239D02*
X25872000Y61356858D01*
X25824380Y61452096D01*
X25824380Y61690191D01*
X25872000Y61785429D01*
X25919619Y61833048D01*
X26014857Y61880667D01*
X26110095Y61880667D01*
X26252952Y61833048D01*
X26824380Y61261620D01*
X26824380Y61880667D01*
X8516666Y12057620D02*
X8516666Y11343334D01*
X8469047Y11200477D01*
X8373809Y11105239D01*
X8230952Y11057620D01*
X8135714Y11057620D01*
X8897619Y12057620D02*
X9516666Y12057620D01*
X9183333Y11676667D01*
X9326190Y11676667D01*
X9421428Y11629048D01*
X9469047Y11581429D01*
X9516666Y11486191D01*
X9516666Y11248096D01*
X9469047Y11152858D01*
X9421428Y11105239D01*
X9326190Y11057620D01*
X9040476Y11057620D01*
X8945238Y11105239D01*
X8897619Y11152858D01*
X7112095Y45807620D02*
X7112095Y44998096D01*
X7159714Y44902858D01*
X7207333Y44855239D01*
X7302571Y44807620D01*
X7493047Y44807620D01*
X7588285Y44855239D01*
X7635904Y44902858D01*
X7683523Y44998096D01*
X7683523Y45807620D01*
X8683523Y44807620D02*
X8112095Y44807620D01*
X8397809Y44807620D02*
X8397809Y45807620D01*
X8302571Y45664762D01*
X8207333Y45569524D01*
X8112095Y45521905D01*
X5421333Y57554858D02*
X5373714Y57507239D01*
X5230857Y57459620D01*
X5135619Y57459620D01*
X4992761Y57507239D01*
X4897523Y57602477D01*
X4849904Y57697715D01*
X4802285Y57888191D01*
X4802285Y58031048D01*
X4849904Y58221524D01*
X4897523Y58316762D01*
X4992761Y58412000D01*
X5135619Y58459620D01*
X5230857Y58459620D01*
X5373714Y58412000D01*
X5421333Y58364381D01*
X6373714Y57459620D02*
X5802285Y57459620D01*
X6088000Y57459620D02*
X6088000Y58459620D01*
X5992761Y58316762D01*
X5897523Y58221524D01*
X5802285Y58173905D01*
X19462761Y51018381D02*
X19367523Y51066000D01*
X19272285Y51161239D01*
X19129428Y51304096D01*
X19034190Y51351715D01*
X18938952Y51351715D01*
X18986571Y51113620D02*
X18891333Y51161239D01*
X18796095Y51256477D01*
X18748476Y51446953D01*
X18748476Y51780286D01*
X18796095Y51970762D01*
X18891333Y52066000D01*
X18986571Y52113620D01*
X19177047Y52113620D01*
X19272285Y52066000D01*
X19367523Y51970762D01*
X19415142Y51780286D01*
X19415142Y51446953D01*
X19367523Y51256477D01*
X19272285Y51161239D01*
X19177047Y51113620D01*
X18986571Y51113620D01*
X20367523Y51113620D02*
X19796095Y51113620D01*
X20081809Y51113620D02*
X20081809Y52113620D01*
X19986571Y51970762D01*
X19891333Y51875524D01*
X19796095Y51827905D01*
X9739333Y63131620D02*
X9406000Y63607810D01*
X9167904Y63131620D02*
X9167904Y64131620D01*
X9548857Y64131620D01*
X9644095Y64084000D01*
X9691714Y64036381D01*
X9739333Y63941143D01*
X9739333Y63798286D01*
X9691714Y63703048D01*
X9644095Y63655429D01*
X9548857Y63607810D01*
X9167904Y63607810D01*
X10691714Y63131620D02*
X10120285Y63131620D01*
X10406000Y63131620D02*
X10406000Y64131620D01*
X10310761Y63988762D01*
X10215523Y63893524D01*
X10120285Y63845905D01*
X26868380Y52665334D02*
X26392190Y52332000D01*
X26868380Y52093905D02*
X25868380Y52093905D01*
X25868380Y52474858D01*
X25916000Y52570096D01*
X25963619Y52617715D01*
X26058857Y52665334D01*
X26201714Y52665334D01*
X26296952Y52617715D01*
X26344571Y52570096D01*
X26392190Y52474858D01*
X26392190Y52093905D01*
X25963619Y53046286D02*
X25916000Y53093905D01*
X25868380Y53189143D01*
X25868380Y53427239D01*
X25916000Y53522477D01*
X25963619Y53570096D01*
X26058857Y53617715D01*
X26154095Y53617715D01*
X26296952Y53570096D01*
X26868380Y52998667D01*
X26868380Y53617715D01*
X31948380Y52665334D02*
X31472190Y52332000D01*
X31948380Y52093905D02*
X30948380Y52093905D01*
X30948380Y52474858D01*
X30996000Y52570096D01*
X31043619Y52617715D01*
X31138857Y52665334D01*
X31281714Y52665334D01*
X31376952Y52617715D01*
X31424571Y52570096D01*
X31472190Y52474858D01*
X31472190Y52093905D01*
X30948380Y52998667D02*
X30948380Y53617715D01*
X31329333Y53284381D01*
X31329333Y53427239D01*
X31376952Y53522477D01*
X31424571Y53570096D01*
X31519809Y53617715D01*
X31757904Y53617715D01*
X31853142Y53570096D01*
X31900761Y53522477D01*
X31948380Y53427239D01*
X31948380Y53141524D01*
X31900761Y53046286D01*
X31853142Y52998667D01*
X30781714Y11141620D02*
X30781714Y12141620D01*
X31162666Y12141620D01*
X31257904Y12094000D01*
X31305523Y12046381D01*
X31353142Y11951143D01*
X31353142Y11808286D01*
X31305523Y11713048D01*
X31257904Y11665429D01*
X31162666Y11617810D01*
X30781714Y11617810D01*
X31734095Y11189239D02*
X31876952Y11141620D01*
X32115047Y11141620D01*
X32210285Y11189239D01*
X32257904Y11236858D01*
X32305523Y11332096D01*
X32305523Y11427334D01*
X32257904Y11522572D01*
X32210285Y11570191D01*
X32115047Y11617810D01*
X31924571Y11665429D01*
X31829333Y11713048D01*
X31781714Y11760667D01*
X31734095Y11855905D01*
X31734095Y11951143D01*
X31781714Y12046381D01*
X31829333Y12094000D01*
X31924571Y12141620D01*
X32162666Y12141620D01*
X32305523Y12094000D01*
X33257904Y11141620D02*
X32686476Y11141620D01*
X32972190Y11141620D02*
X32972190Y12141620D01*
X32876952Y11998762D01*
X32781714Y11903524D01*
X32686476Y11855905D01*
X19978761Y62517620D02*
X19645428Y62993810D01*
X19407333Y62517620D02*
X19407333Y63517620D01*
X19788285Y63517620D01*
X19883523Y63470000D01*
X19931142Y63422381D01*
X19978761Y63327143D01*
X19978761Y63184286D01*
X19931142Y63089048D01*
X19883523Y63041429D01*
X19788285Y62993810D01*
X19407333Y62993810D01*
X20264476Y63517620D02*
X20597809Y62517620D01*
X20931142Y63517620D01*
X21788285Y62517620D02*
X21216857Y62517620D01*
X21502571Y62517620D02*
X21502571Y63517620D01*
X21407333Y63374762D01*
X21312095Y63279524D01*
X21216857Y63231905D01*
M02*
