%TF.GenerationSoftware,KiCad,Pcbnew,(5.1.2)-2*%
%TF.CreationDate,2019-06-24T14:10:12+02:00*%
%TF.ProjectId,Main_Monstrum,4d61696e-5f4d-46f6-9e73-7472756d2e6b,rev?*%
%TF.SameCoordinates,PX196f3b0PYa952310*%
%TF.FileFunction,Copper,L1,Top*%
%TF.FilePolarity,Positive*%
%FSLAX46Y46*%
G04 Gerber Fmt 4.6, Leading zero omitted, Abs format (unit mm)*
G04 Created by KiCad (PCBNEW (5.1.2)-2) date 2019-06-24 14:10:12*
%MOMM*%
%LPD*%
G04 APERTURE LIST*
%ADD10C,0.100000*%
%ADD11C,5.700000*%
%ADD12C,2.500000*%
%ADD13R,2.500000X2.500000*%
%ADD14C,1.524000*%
%ADD15R,1.700000X1.700000*%
%ADD16O,1.700000X1.700000*%
%ADD17C,1.600000*%
%ADD18R,1.905000X2.000000*%
%ADD19O,1.905000X2.000000*%
%ADD20C,1.500000*%
%ADD21R,1.500000X1.500000*%
%ADD22O,1.600000X1.600000*%
%ADD23C,1.440000*%
%ADD24C,1.000000*%
%ADD25C,0.500000*%
%ADD26C,2.500000*%
G04 APERTURE END LIST*
D10*
X64516000Y85852000D02*
X64516000Y50800000D01*
X1778000Y87630000D02*
X62738000Y87630000D01*
X0Y1778000D02*
X0Y85852000D01*
X44958000Y0D02*
X1778000Y0D01*
X46736000Y50800000D02*
X46736000Y1778000D01*
X62738000Y87630000D02*
X64516000Y85852000D01*
X0Y85852000D02*
X1778000Y87630000D01*
X1778000Y0D02*
X0Y1778000D01*
X44958000Y0D02*
X46736000Y1778000D01*
X64516000Y50800000D02*
X46736000Y50800000D01*
D11*
X55372000Y61214000D03*
X42164000Y4572000D03*
X4826000Y75946000D03*
D12*
X31750000Y6350000D03*
D13*
X26750000Y6350000D03*
D14*
X40386000Y82804000D03*
X37846000Y82804000D03*
X35306000Y82804000D03*
X32766000Y82804000D03*
X30226000Y82804000D03*
X27686000Y82804000D03*
X25146000Y82804000D03*
X22606000Y82804000D03*
X20066000Y82804000D03*
X17526000Y82804000D03*
X14986000Y82804000D03*
X12446000Y82804000D03*
X40386000Y67564000D03*
X37846000Y67564000D03*
X35306000Y67564000D03*
X32766000Y67564000D03*
X30226000Y67564000D03*
X27686000Y67564000D03*
X25146000Y67564000D03*
X22606000Y67564000D03*
X20066000Y67564000D03*
X17526000Y67564000D03*
X14986000Y67564000D03*
X12446000Y67564000D03*
D15*
X59182000Y83058000D03*
D16*
X59182000Y80518000D03*
X56642000Y83058000D03*
X56642000Y80518000D03*
X54102000Y83058000D03*
X54102000Y80518000D03*
X51562000Y83058000D03*
X51562000Y80518000D03*
D17*
X15748000Y55626000D03*
X10748000Y55626000D03*
D13*
X38100000Y36322000D03*
D12*
X43100000Y36322000D03*
D15*
X28702000Y61214000D03*
D16*
X31242000Y61214000D03*
X33782000Y61214000D03*
D12*
X11350000Y6350000D03*
D13*
X6350000Y6350000D03*
D18*
X10414000Y49530000D03*
D19*
X7874000Y49530000D03*
X5334000Y49530000D03*
D17*
X4064000Y55626000D03*
X6564000Y55626000D03*
D20*
X19558000Y48006000D03*
X22098000Y48006000D03*
D21*
X17018000Y48006000D03*
D17*
X4826000Y61214000D03*
D22*
X14986000Y61214000D03*
D17*
X28702000Y47752000D03*
D22*
X28702000Y57912000D03*
X33782000Y47752000D03*
D17*
X33782000Y57912000D03*
D12*
X7686000Y16764000D03*
D13*
X27686000Y16764000D03*
D12*
X12686000Y36764000D03*
X22686000Y36764000D03*
D23*
X19304000Y55880000D03*
X21844000Y58420000D03*
X19304000Y60960000D03*
D24*
X49022000Y75438000D03*
X42926000Y75438000D03*
X50254954Y77067817D03*
X46736000Y80263996D03*
X51308000Y78486000D03*
X48006000Y81788000D03*
D25*
X4064000Y50800000D02*
X5334000Y49530000D01*
X4064000Y55626000D02*
X4064000Y50800000D01*
X5334000Y46482000D02*
X5334000Y49530000D01*
X12686000Y36764000D02*
X12686000Y39130000D01*
X12686000Y39130000D02*
X5334000Y46482000D01*
X41850001Y35072001D02*
X43100000Y36322000D01*
X40560000Y33782000D02*
X41850001Y35072001D01*
X12686000Y36764000D02*
X15668000Y33782000D01*
X15668000Y33782000D02*
X40560000Y33782000D01*
X43100000Y38089766D02*
X43100000Y36322000D01*
X43100000Y55706000D02*
X43100000Y38089766D01*
X35560000Y63246000D02*
X43100000Y55706000D01*
X32071919Y63246000D02*
X35560000Y63246000D01*
X31242000Y61214000D02*
X31242000Y62416081D01*
X31242000Y62416081D02*
X32071919Y63246000D01*
X59182000Y80518000D02*
X54102000Y75438000D01*
X54102000Y75438000D02*
X49022000Y75438000D01*
X27432000Y75438000D02*
X20066000Y82804000D01*
X42926000Y75438000D02*
X27432000Y75438000D01*
X15748000Y54494630D02*
X15748000Y55626000D01*
X15748000Y51308000D02*
X15748000Y54494630D01*
X11938000Y47498000D02*
X15748000Y51308000D01*
X8406000Y47498000D02*
X11938000Y47498000D01*
X7874000Y49530000D02*
X7874000Y48030000D01*
X7874000Y48030000D02*
X8406000Y47498000D01*
X4826000Y64516000D02*
X4826000Y61214000D01*
X10414000Y70104000D02*
X4826000Y64516000D01*
X27432000Y75438000D02*
X22098000Y70104000D01*
X22098000Y70104000D02*
X10414000Y70104000D01*
X8636000Y57404000D02*
X4826000Y61214000D01*
X8636000Y53975000D02*
X8636000Y57404000D01*
X7874000Y49530000D02*
X7874000Y53213000D01*
X7874000Y53213000D02*
X8636000Y53975000D01*
X28448000Y48006000D02*
X28702000Y47752000D01*
X22098000Y48006000D02*
X28448000Y48006000D01*
X38100000Y38608000D02*
X38100000Y36322000D01*
X28702000Y47752000D02*
X28956000Y47752000D01*
X28956000Y47752000D02*
X38100000Y38608000D01*
X28702000Y61214000D02*
X28702000Y57912000D01*
X33782000Y61214000D02*
X33782000Y57912000D01*
X20307999Y48755999D02*
X19558000Y48006000D01*
X23368000Y51816000D02*
X20307999Y48755999D01*
X23368000Y62168370D02*
X23368000Y51816000D01*
X27686000Y67564000D02*
X27686000Y66486370D01*
X27686000Y66486370D02*
X23368000Y62168370D01*
X19050000Y61214000D02*
X19304000Y60960000D01*
X14986000Y61214000D02*
X19050000Y61214000D01*
X10414000Y51030000D02*
X10414000Y49530000D01*
X10414000Y52578000D02*
X10414000Y51030000D01*
X14986000Y61214000D02*
X14986000Y57150000D01*
X14986000Y57150000D02*
X10414000Y52578000D01*
X41463630Y67564000D02*
X40386000Y67564000D01*
X56642000Y83820000D02*
X57404000Y84582000D01*
X57404000Y84582000D02*
X60168002Y84582000D01*
X60168002Y84582000D02*
X60960000Y83790002D01*
X56642000Y83058000D02*
X56642000Y83820000D01*
X60960000Y83790002D02*
X60960000Y79502000D01*
X49022000Y67564000D02*
X41463630Y67564000D01*
X60960000Y79502000D02*
X49022000Y67564000D01*
X53191817Y77067817D02*
X50962060Y77067817D01*
X56642000Y80518000D02*
X53191817Y77067817D01*
X50962060Y77067817D02*
X50254954Y77067817D01*
X40386000Y82804000D02*
X44195996Y82804000D01*
X44195996Y82804000D02*
X46236001Y80763995D01*
X46236001Y80763995D02*
X46736000Y80263996D01*
X53252001Y83907999D02*
X54102000Y83058000D01*
X50800000Y86360000D02*
X53252001Y83907999D01*
X32766000Y82804000D02*
X36322000Y86360000D01*
X36322000Y86360000D02*
X50800000Y86360000D01*
X52015106Y78486000D02*
X51308000Y78486000D01*
X52070000Y78486000D02*
X52015106Y78486000D01*
X54102000Y80518000D02*
X52070000Y78486000D01*
X45212000Y84582000D02*
X47506001Y82287999D01*
X37846000Y82804000D02*
X39624000Y84582000D01*
X47506001Y82287999D02*
X48006000Y81788000D01*
X39624000Y84582000D02*
X45212000Y84582000D01*
X50712001Y82208001D02*
X51562000Y83058000D01*
X47309998Y78805998D02*
X50712001Y82208001D01*
X35306000Y82804000D02*
X39304002Y78805998D01*
X39304002Y78805998D02*
X47309998Y78805998D01*
X50800000Y80518000D02*
X51562000Y80518000D01*
X37846000Y67564000D02*
X50800000Y80518000D01*
D26*
X6350000Y15428000D02*
X7686000Y16764000D01*
X6350000Y6350000D02*
X6350000Y15428000D01*
X6350000Y6350000D02*
X11350000Y6350000D01*
X26750000Y6350000D02*
X31750000Y6350000D01*
X31750000Y12700000D02*
X27686000Y16764000D01*
X31750000Y6350000D02*
X31750000Y12700000D01*
M02*
