M48
; DRILL file {KiCad (5.1.2)-2} date 24/06/2019 14:11:29
; FORMAT={-:-/ absolute / inch / decimal}
; #@! TF.CreationDate,2019-06-24T14:11:29+02:00
; #@! TF.GenerationSoftware,Kicad,Pcbnew,(5.1.2)-2
FMAT,2
INCH
T1C0.0236
T2C0.0300
T3C0.0315
T4C0.0394
T5C0.0433
T6C0.0512
T7C0.1260
%
G90
G05
T1
X1.69Y2.97
X1.84Y3.16
X1.89Y3.22
X1.93Y2.97
X1.9785Y3.0342
X2.02Y3.09
T2
X0.49Y3.26
X0.49Y2.66
X0.59Y3.26
X0.59Y2.66
X0.69Y3.26
X0.69Y2.66
X0.79Y3.26
X0.79Y2.66
X0.89Y3.26
X0.89Y2.66
X0.99Y3.26
X0.99Y2.66
X1.09Y3.26
X1.09Y2.66
X1.19Y3.26
X1.19Y2.66
X1.29Y3.26
X1.29Y2.66
X1.39Y3.26
X1.39Y2.66
X1.49Y3.26
X1.49Y2.66
X1.59Y3.26
X1.59Y2.66
T3
X1.33Y2.28
X1.33Y1.88
X1.13Y2.28
X1.13Y1.88
X0.4231Y2.19
X0.62Y2.19
X0.76Y2.4
X0.76Y2.2
X0.86Y2.3
X0.16Y2.19
X0.2584Y2.19
X0.67Y1.89
X0.77Y1.89
X0.87Y1.89
X0.19Y2.41
X0.59Y2.41
T4
X1.13Y2.41
X1.23Y2.41
X1.33Y2.41
X2.03Y3.27
X2.03Y3.17
X2.13Y3.27
X2.13Y3.17
X2.23Y3.27
X2.23Y3.17
X2.33Y3.27
X2.33Y3.17
T5
X0.21Y1.95
X0.31Y1.95
X0.41Y1.95
X0.3026Y0.66
X0.4994Y1.4474
X0.8931Y1.4474
X1.09Y0.66
T6
X1.5Y1.43
X1.6969Y1.43
X0.25Y0.25
X0.4469Y0.25
X1.0531Y0.25
X1.25Y0.25
T7
X1.66Y0.18
X0.19Y2.99
X2.18Y2.41
T0
M30
