%TF.GenerationSoftware,KiCad,Pcbnew,(5.1.2)-2*%
%TF.CreationDate,2019-06-24T14:10:12+02:00*%
%TF.ProjectId,Main_Monstrum,4d61696e-5f4d-46f6-9e73-7472756d2e6b,rev?*%
%TF.SameCoordinates,PX196f3b0PYa952310*%
%TF.FileFunction,Soldermask,Bot*%
%TF.FilePolarity,Negative*%
%FSLAX46Y46*%
G04 Gerber Fmt 4.6, Leading zero omitted, Abs format (unit mm)*
G04 Created by KiCad (PCBNEW (5.1.2)-2) date 2019-06-24 14:10:12*
%MOMM*%
%LPD*%
G04 APERTURE LIST*
%ADD10C,0.100000*%
%ADD11C,0.150000*%
G04 APERTURE END LIST*
D10*
X64516000Y85852000D02*
X64516000Y50800000D01*
X1778000Y87630000D02*
X62738000Y87630000D01*
X0Y1778000D02*
X0Y85852000D01*
X44958000Y0D02*
X1778000Y0D01*
X46736000Y50800000D02*
X46736000Y1778000D01*
X62738000Y87630000D02*
X64516000Y85852000D01*
X0Y85852000D02*
X1778000Y87630000D01*
X1778000Y0D02*
X0Y1778000D01*
X44958000Y0D02*
X46736000Y1778000D01*
X64516000Y50800000D02*
X46736000Y50800000D01*
D11*
G36*
X42995313Y7312477D02*
G01*
X43513980Y7097638D01*
X43513981Y7097637D01*
X43980769Y6785740D01*
X44377740Y6388769D01*
X44485906Y6226886D01*
X44689638Y5921980D01*
X44904477Y5403313D01*
X45014000Y4852702D01*
X45014000Y4291298D01*
X44904477Y3740687D01*
X44689638Y3222020D01*
X44689637Y3222019D01*
X44377740Y2755231D01*
X43980769Y2358260D01*
X43668871Y2149857D01*
X43513980Y2046362D01*
X42995313Y1831523D01*
X42444702Y1722000D01*
X41883298Y1722000D01*
X41332687Y1831523D01*
X40814020Y2046362D01*
X40659129Y2149857D01*
X40347231Y2358260D01*
X39950260Y2755231D01*
X39638363Y3222019D01*
X39638362Y3222020D01*
X39423523Y3740687D01*
X39314000Y4291298D01*
X39314000Y4852702D01*
X39423523Y5403313D01*
X39638362Y5921980D01*
X39842094Y6226886D01*
X39950260Y6388769D01*
X40347231Y6785740D01*
X40814019Y7097637D01*
X40814020Y7097638D01*
X41332687Y7312477D01*
X41883298Y7422000D01*
X42444702Y7422000D01*
X42995313Y7312477D01*
X42995313Y7312477D01*
G37*
G36*
X32114610Y7551964D02*
G01*
X32342095Y7457736D01*
X32342097Y7457735D01*
X32395578Y7422000D01*
X32546828Y7320938D01*
X32720938Y7146828D01*
X32857736Y6942095D01*
X32951964Y6714610D01*
X33000000Y6473116D01*
X33000000Y6226884D01*
X32951964Y5985390D01*
X32857736Y5757905D01*
X32857735Y5757903D01*
X32720938Y5553172D01*
X32546828Y5379062D01*
X32342097Y5242265D01*
X32342096Y5242264D01*
X32342095Y5242264D01*
X32114610Y5148036D01*
X31873116Y5100000D01*
X31626884Y5100000D01*
X31385390Y5148036D01*
X31157905Y5242264D01*
X31157904Y5242264D01*
X31157903Y5242265D01*
X30953172Y5379062D01*
X30779062Y5553172D01*
X30642265Y5757903D01*
X30642264Y5757905D01*
X30548036Y5985390D01*
X30500000Y6226884D01*
X30500000Y6473116D01*
X30548036Y6714610D01*
X30642264Y6942095D01*
X30779062Y7146828D01*
X30953172Y7320938D01*
X31104422Y7422000D01*
X31157903Y7457735D01*
X31157905Y7457736D01*
X31385390Y7551964D01*
X31626884Y7600000D01*
X31873116Y7600000D01*
X32114610Y7551964D01*
X32114610Y7551964D01*
G37*
G36*
X7600000Y5100000D02*
G01*
X5100000Y5100000D01*
X5100000Y7600000D01*
X7600000Y7600000D01*
X7600000Y5100000D01*
X7600000Y5100000D01*
G37*
G36*
X28000000Y5100000D02*
G01*
X25500000Y5100000D01*
X25500000Y7600000D01*
X28000000Y7600000D01*
X28000000Y5100000D01*
X28000000Y5100000D01*
G37*
G36*
X11714610Y7551964D02*
G01*
X11942095Y7457736D01*
X11942097Y7457735D01*
X11995578Y7422000D01*
X12146828Y7320938D01*
X12320938Y7146828D01*
X12457736Y6942095D01*
X12551964Y6714610D01*
X12600000Y6473116D01*
X12600000Y6226884D01*
X12551964Y5985390D01*
X12457736Y5757905D01*
X12457735Y5757903D01*
X12320938Y5553172D01*
X12146828Y5379062D01*
X11942097Y5242265D01*
X11942096Y5242264D01*
X11942095Y5242264D01*
X11714610Y5148036D01*
X11473116Y5100000D01*
X11226884Y5100000D01*
X10985390Y5148036D01*
X10757905Y5242264D01*
X10757904Y5242264D01*
X10757903Y5242265D01*
X10553172Y5379062D01*
X10379062Y5553172D01*
X10242265Y5757903D01*
X10242264Y5757905D01*
X10148036Y5985390D01*
X10100000Y6226884D01*
X10100000Y6473116D01*
X10148036Y6714610D01*
X10242264Y6942095D01*
X10379062Y7146828D01*
X10553172Y7320938D01*
X10704422Y7422000D01*
X10757903Y7457735D01*
X10757905Y7457736D01*
X10985390Y7551964D01*
X11226884Y7600000D01*
X11473116Y7600000D01*
X11714610Y7551964D01*
X11714610Y7551964D01*
G37*
G36*
X28936000Y15514000D02*
G01*
X26436000Y15514000D01*
X26436000Y18014000D01*
X28936000Y18014000D01*
X28936000Y15514000D01*
X28936000Y15514000D01*
G37*
G36*
X8050610Y17965964D02*
G01*
X8278095Y17871736D01*
X8278097Y17871735D01*
X8482828Y17734938D01*
X8656938Y17560828D01*
X8793736Y17356095D01*
X8887964Y17128610D01*
X8936000Y16887116D01*
X8936000Y16640884D01*
X8887964Y16399390D01*
X8793736Y16171905D01*
X8793735Y16171903D01*
X8656938Y15967172D01*
X8482828Y15793062D01*
X8278097Y15656265D01*
X8278096Y15656264D01*
X8278095Y15656264D01*
X8050610Y15562036D01*
X7809116Y15514000D01*
X7562884Y15514000D01*
X7321390Y15562036D01*
X7093905Y15656264D01*
X7093904Y15656264D01*
X7093903Y15656265D01*
X6889172Y15793062D01*
X6715062Y15967172D01*
X6578265Y16171903D01*
X6578264Y16171905D01*
X6484036Y16399390D01*
X6436000Y16640884D01*
X6436000Y16887116D01*
X6484036Y17128610D01*
X6578264Y17356095D01*
X6715062Y17560828D01*
X6889172Y17734938D01*
X7093903Y17871735D01*
X7093905Y17871736D01*
X7321390Y17965964D01*
X7562884Y18014000D01*
X7809116Y18014000D01*
X8050610Y17965964D01*
X8050610Y17965964D01*
G37*
G36*
X39350000Y35072000D02*
G01*
X36850000Y35072000D01*
X36850000Y37572000D01*
X39350000Y37572000D01*
X39350000Y35072000D01*
X39350000Y35072000D01*
G37*
G36*
X43464610Y37523964D02*
G01*
X43692095Y37429736D01*
X43692097Y37429735D01*
X43802304Y37356097D01*
X43896828Y37292938D01*
X44070938Y37118828D01*
X44207736Y36914095D01*
X44301964Y36686610D01*
X44350000Y36445116D01*
X44350000Y36198884D01*
X44301964Y35957390D01*
X44207736Y35729905D01*
X44207735Y35729903D01*
X44070938Y35525172D01*
X43896828Y35351062D01*
X43692097Y35214265D01*
X43692096Y35214264D01*
X43692095Y35214264D01*
X43464610Y35120036D01*
X43223116Y35072000D01*
X42976884Y35072000D01*
X42735390Y35120036D01*
X42507905Y35214264D01*
X42507904Y35214264D01*
X42507903Y35214265D01*
X42303172Y35351062D01*
X42129062Y35525172D01*
X41992265Y35729903D01*
X41992264Y35729905D01*
X41898036Y35957390D01*
X41850000Y36198884D01*
X41850000Y36445116D01*
X41898036Y36686610D01*
X41992264Y36914095D01*
X42129062Y37118828D01*
X42303172Y37292938D01*
X42397696Y37356097D01*
X42507903Y37429735D01*
X42507905Y37429736D01*
X42735390Y37523964D01*
X42976884Y37572000D01*
X43223116Y37572000D01*
X43464610Y37523964D01*
X43464610Y37523964D01*
G37*
G36*
X23050610Y37965964D02*
G01*
X23278095Y37871736D01*
X23278097Y37871735D01*
X23482828Y37734938D01*
X23656938Y37560828D01*
X23744532Y37429735D01*
X23793736Y37356095D01*
X23887964Y37128610D01*
X23936000Y36887116D01*
X23936000Y36640884D01*
X23887964Y36399390D01*
X23804912Y36198886D01*
X23793735Y36171903D01*
X23656938Y35967172D01*
X23482828Y35793062D01*
X23278097Y35656265D01*
X23278096Y35656264D01*
X23278095Y35656264D01*
X23050610Y35562036D01*
X22809116Y35514000D01*
X22562884Y35514000D01*
X22321390Y35562036D01*
X22093905Y35656264D01*
X22093904Y35656264D01*
X22093903Y35656265D01*
X21889172Y35793062D01*
X21715062Y35967172D01*
X21578265Y36171903D01*
X21567088Y36198886D01*
X21484036Y36399390D01*
X21436000Y36640884D01*
X21436000Y36887116D01*
X21484036Y37128610D01*
X21578264Y37356095D01*
X21627469Y37429735D01*
X21715062Y37560828D01*
X21889172Y37734938D01*
X22093903Y37871735D01*
X22093905Y37871736D01*
X22321390Y37965964D01*
X22562884Y38014000D01*
X22809116Y38014000D01*
X23050610Y37965964D01*
X23050610Y37965964D01*
G37*
G36*
X13050610Y37965964D02*
G01*
X13278095Y37871736D01*
X13278097Y37871735D01*
X13482828Y37734938D01*
X13656938Y37560828D01*
X13744532Y37429735D01*
X13793736Y37356095D01*
X13887964Y37128610D01*
X13936000Y36887116D01*
X13936000Y36640884D01*
X13887964Y36399390D01*
X13804912Y36198886D01*
X13793735Y36171903D01*
X13656938Y35967172D01*
X13482828Y35793062D01*
X13278097Y35656265D01*
X13278096Y35656264D01*
X13278095Y35656264D01*
X13050610Y35562036D01*
X12809116Y35514000D01*
X12562884Y35514000D01*
X12321390Y35562036D01*
X12093905Y35656264D01*
X12093904Y35656264D01*
X12093903Y35656265D01*
X11889172Y35793062D01*
X11715062Y35967172D01*
X11578265Y36171903D01*
X11567088Y36198886D01*
X11484036Y36399390D01*
X11436000Y36640884D01*
X11436000Y36887116D01*
X11484036Y37128610D01*
X11578264Y37356095D01*
X11627469Y37429735D01*
X11715062Y37560828D01*
X11889172Y37734938D01*
X12093903Y37871735D01*
X12093905Y37871736D01*
X12321390Y37965964D01*
X12562884Y38014000D01*
X12809116Y38014000D01*
X13050610Y37965964D01*
X13050610Y37965964D01*
G37*
G36*
X33860471Y48548141D02*
G01*
X33938827Y48540424D01*
X34089628Y48494679D01*
X34089630Y48494678D01*
X34228605Y48420394D01*
X34350422Y48320422D01*
X34428924Y48224767D01*
X34450393Y48198606D01*
X34524679Y48059628D01*
X34570424Y47908827D01*
X34585870Y47752000D01*
X34570424Y47595173D01*
X34524679Y47444372D01*
X34524678Y47444370D01*
X34450394Y47305395D01*
X34350422Y47183578D01*
X34228605Y47083606D01*
X34089630Y47009322D01*
X34089628Y47009321D01*
X33938827Y46963576D01*
X33860471Y46955859D01*
X33821294Y46952000D01*
X33742706Y46952000D01*
X33703529Y46955859D01*
X33625173Y46963576D01*
X33474372Y47009321D01*
X33474370Y47009322D01*
X33335395Y47083606D01*
X33213578Y47183578D01*
X33113606Y47305395D01*
X33039322Y47444370D01*
X33039321Y47444372D01*
X32993576Y47595173D01*
X32978130Y47752000D01*
X32993576Y47908827D01*
X33039321Y48059628D01*
X33113607Y48198606D01*
X33135077Y48224767D01*
X33213578Y48320422D01*
X33335395Y48420394D01*
X33474370Y48494678D01*
X33474372Y48494679D01*
X33625173Y48540424D01*
X33703529Y48548141D01*
X33742706Y48552000D01*
X33821294Y48552000D01*
X33860471Y48548141D01*
X33860471Y48548141D01*
G37*
G36*
X28935351Y48521257D02*
G01*
X29080941Y48460952D01*
X29211970Y48373401D01*
X29323401Y48261970D01*
X29410952Y48130941D01*
X29471257Y47985351D01*
X29502000Y47830794D01*
X29502000Y47673206D01*
X29471257Y47518649D01*
X29410952Y47373059D01*
X29323401Y47242030D01*
X29211970Y47130599D01*
X29080941Y47043048D01*
X28935351Y46982743D01*
X28780794Y46952000D01*
X28623206Y46952000D01*
X28468649Y46982743D01*
X28323059Y47043048D01*
X28192030Y47130599D01*
X28080599Y47242030D01*
X27993048Y47373059D01*
X27932743Y47518649D01*
X27902000Y47673206D01*
X27902000Y47830794D01*
X27932743Y47985351D01*
X27993048Y48130941D01*
X28080599Y48261970D01*
X28192030Y48373401D01*
X28323059Y48460952D01*
X28468649Y48521257D01*
X28623206Y48552000D01*
X28780794Y48552000D01*
X28935351Y48521257D01*
X28935351Y48521257D01*
G37*
G36*
X17768000Y47256000D02*
G01*
X16268000Y47256000D01*
X16268000Y48756000D01*
X17768000Y48756000D01*
X17768000Y47256000D01*
X17768000Y47256000D01*
G37*
G36*
X22316766Y48727179D02*
G01*
X22453257Y48670642D01*
X22576097Y48588563D01*
X22680563Y48484097D01*
X22762642Y48361257D01*
X22819179Y48224766D01*
X22848000Y48079870D01*
X22848000Y47932130D01*
X22819179Y47787234D01*
X22762642Y47650743D01*
X22680563Y47527903D01*
X22576097Y47423437D01*
X22453257Y47341358D01*
X22316766Y47284821D01*
X22171870Y47256000D01*
X22024130Y47256000D01*
X21879234Y47284821D01*
X21742743Y47341358D01*
X21619903Y47423437D01*
X21515437Y47527903D01*
X21433358Y47650743D01*
X21376821Y47787234D01*
X21348000Y47932130D01*
X21348000Y48079870D01*
X21376821Y48224766D01*
X21433358Y48361257D01*
X21515437Y48484097D01*
X21619903Y48588563D01*
X21742743Y48670642D01*
X21879234Y48727179D01*
X22024130Y48756000D01*
X22171870Y48756000D01*
X22316766Y48727179D01*
X22316766Y48727179D01*
G37*
G36*
X19776766Y48727179D02*
G01*
X19913257Y48670642D01*
X20036097Y48588563D01*
X20140563Y48484097D01*
X20222642Y48361257D01*
X20279179Y48224766D01*
X20308000Y48079870D01*
X20308000Y47932130D01*
X20279179Y47787234D01*
X20222642Y47650743D01*
X20140563Y47527903D01*
X20036097Y47423437D01*
X19913257Y47341358D01*
X19776766Y47284821D01*
X19631870Y47256000D01*
X19484130Y47256000D01*
X19339234Y47284821D01*
X19202743Y47341358D01*
X19079903Y47423437D01*
X18975437Y47527903D01*
X18893358Y47650743D01*
X18836821Y47787234D01*
X18808000Y47932130D01*
X18808000Y48079870D01*
X18836821Y48224766D01*
X18893358Y48361257D01*
X18975437Y48484097D01*
X19079903Y48588563D01*
X19202743Y48670642D01*
X19339234Y48727179D01*
X19484130Y48756000D01*
X19631870Y48756000D01*
X19776766Y48727179D01*
X19776766Y48727179D01*
G37*
G36*
X8060724Y50516218D02*
G01*
X8240269Y50461753D01*
X8405741Y50373307D01*
X8550778Y50254278D01*
X8669804Y50109244D01*
X8758254Y49943764D01*
X8812718Y49764223D01*
X8826500Y49624288D01*
X8826500Y49435711D01*
X8812718Y49295776D01*
X8758253Y49116231D01*
X8669807Y48950759D01*
X8550778Y48805722D01*
X8405744Y48686696D01*
X8405742Y48686695D01*
X8405741Y48686694D01*
X8240268Y48598248D01*
X8240264Y48598246D01*
X8060723Y48543782D01*
X7874000Y48525392D01*
X7687276Y48543782D01*
X7507731Y48598247D01*
X7342259Y48686693D01*
X7197222Y48805722D01*
X7078196Y48950756D01*
X6989746Y49116236D01*
X6935282Y49295777D01*
X6921500Y49435712D01*
X6921500Y49624289D01*
X6935282Y49764224D01*
X6989747Y49943769D01*
X7078193Y50109241D01*
X7143569Y50188902D01*
X7197222Y50254278D01*
X7342259Y50373306D01*
X7352943Y50379016D01*
X7507732Y50461753D01*
X7687277Y50516218D01*
X7874000Y50534608D01*
X8060724Y50516218D01*
X8060724Y50516218D01*
G37*
G36*
X5520724Y50516218D02*
G01*
X5700269Y50461753D01*
X5865741Y50373307D01*
X6010778Y50254278D01*
X6129804Y50109244D01*
X6218254Y49943764D01*
X6272718Y49764223D01*
X6286500Y49624288D01*
X6286500Y49435711D01*
X6272718Y49295776D01*
X6218253Y49116231D01*
X6129807Y48950759D01*
X6010778Y48805722D01*
X5865744Y48686696D01*
X5865742Y48686695D01*
X5865741Y48686694D01*
X5700268Y48598248D01*
X5700264Y48598246D01*
X5520723Y48543782D01*
X5334000Y48525392D01*
X5147276Y48543782D01*
X4967731Y48598247D01*
X4802259Y48686693D01*
X4657222Y48805722D01*
X4538196Y48950756D01*
X4449746Y49116236D01*
X4395282Y49295777D01*
X4381500Y49435712D01*
X4381500Y49624289D01*
X4395282Y49764224D01*
X4449747Y49943769D01*
X4538193Y50109241D01*
X4603569Y50188902D01*
X4657222Y50254278D01*
X4802259Y50373306D01*
X4812943Y50379016D01*
X4967732Y50461753D01*
X5147277Y50516218D01*
X5334000Y50534608D01*
X5520724Y50516218D01*
X5520724Y50516218D01*
G37*
G36*
X11366500Y48530000D02*
G01*
X9461500Y48530000D01*
X9461500Y50530000D01*
X11366500Y50530000D01*
X11366500Y48530000D01*
X11366500Y48530000D01*
G37*
G36*
X15981351Y56395257D02*
G01*
X16126941Y56334952D01*
X16257970Y56247401D01*
X16369401Y56135970D01*
X16456952Y56004941D01*
X16517257Y55859351D01*
X16548000Y55704794D01*
X16548000Y55547206D01*
X16517257Y55392649D01*
X16456952Y55247059D01*
X16369401Y55116030D01*
X16257970Y55004599D01*
X16126941Y54917048D01*
X15981351Y54856743D01*
X15826794Y54826000D01*
X15669206Y54826000D01*
X15514649Y54856743D01*
X15369059Y54917048D01*
X15238030Y55004599D01*
X15126599Y55116030D01*
X15039048Y55247059D01*
X14978743Y55392649D01*
X14948000Y55547206D01*
X14948000Y55704794D01*
X14978743Y55859351D01*
X15039048Y56004941D01*
X15126599Y56135970D01*
X15238030Y56247401D01*
X15369059Y56334952D01*
X15514649Y56395257D01*
X15669206Y56426000D01*
X15826794Y56426000D01*
X15981351Y56395257D01*
X15981351Y56395257D01*
G37*
G36*
X6797351Y56395257D02*
G01*
X6942941Y56334952D01*
X7073970Y56247401D01*
X7185401Y56135970D01*
X7272952Y56004941D01*
X7333257Y55859351D01*
X7364000Y55704794D01*
X7364000Y55547206D01*
X7333257Y55392649D01*
X7272952Y55247059D01*
X7185401Y55116030D01*
X7073970Y55004599D01*
X6942941Y54917048D01*
X6797351Y54856743D01*
X6642794Y54826000D01*
X6485206Y54826000D01*
X6330649Y54856743D01*
X6185059Y54917048D01*
X6054030Y55004599D01*
X5942599Y55116030D01*
X5855048Y55247059D01*
X5794743Y55392649D01*
X5764000Y55547206D01*
X5764000Y55704794D01*
X5794743Y55859351D01*
X5855048Y56004941D01*
X5942599Y56135970D01*
X6054030Y56247401D01*
X6185059Y56334952D01*
X6330649Y56395257D01*
X6485206Y56426000D01*
X6642794Y56426000D01*
X6797351Y56395257D01*
X6797351Y56395257D01*
G37*
G36*
X4297351Y56395257D02*
G01*
X4442941Y56334952D01*
X4573970Y56247401D01*
X4685401Y56135970D01*
X4772952Y56004941D01*
X4833257Y55859351D01*
X4864000Y55704794D01*
X4864000Y55547206D01*
X4833257Y55392649D01*
X4772952Y55247059D01*
X4685401Y55116030D01*
X4573970Y55004599D01*
X4442941Y54917048D01*
X4297351Y54856743D01*
X4142794Y54826000D01*
X3985206Y54826000D01*
X3830649Y54856743D01*
X3685059Y54917048D01*
X3554030Y55004599D01*
X3442599Y55116030D01*
X3355048Y55247059D01*
X3294743Y55392649D01*
X3264000Y55547206D01*
X3264000Y55704794D01*
X3294743Y55859351D01*
X3355048Y56004941D01*
X3442599Y56135970D01*
X3554030Y56247401D01*
X3685059Y56334952D01*
X3830649Y56395257D01*
X3985206Y56426000D01*
X4142794Y56426000D01*
X4297351Y56395257D01*
X4297351Y56395257D01*
G37*
G36*
X10981351Y56395257D02*
G01*
X11126941Y56334952D01*
X11257970Y56247401D01*
X11369401Y56135970D01*
X11456952Y56004941D01*
X11517257Y55859351D01*
X11548000Y55704794D01*
X11548000Y55547206D01*
X11517257Y55392649D01*
X11456952Y55247059D01*
X11369401Y55116030D01*
X11257970Y55004599D01*
X11126941Y54917048D01*
X10981351Y54856743D01*
X10826794Y54826000D01*
X10669206Y54826000D01*
X10514649Y54856743D01*
X10369059Y54917048D01*
X10238030Y55004599D01*
X10126599Y55116030D01*
X10039048Y55247059D01*
X9978743Y55392649D01*
X9948000Y55547206D01*
X9948000Y55704794D01*
X9978743Y55859351D01*
X10039048Y56004941D01*
X10126599Y56135970D01*
X10238030Y56247401D01*
X10369059Y56334952D01*
X10514649Y56395257D01*
X10669206Y56426000D01*
X10826794Y56426000D01*
X10981351Y56395257D01*
X10981351Y56395257D01*
G37*
G36*
X19514015Y56572332D02*
G01*
X19645046Y56518057D01*
X19645048Y56518056D01*
X19762973Y56439261D01*
X19863261Y56338973D01*
X19942057Y56221046D01*
X19996332Y56090015D01*
X20024000Y55950916D01*
X20024000Y55809084D01*
X19996332Y55669985D01*
X19945475Y55547206D01*
X19942056Y55538952D01*
X19863261Y55421027D01*
X19762973Y55320739D01*
X19645048Y55241944D01*
X19645047Y55241943D01*
X19645046Y55241943D01*
X19514015Y55187668D01*
X19374916Y55160000D01*
X19233084Y55160000D01*
X19093985Y55187668D01*
X18962954Y55241943D01*
X18962953Y55241943D01*
X18962952Y55241944D01*
X18845027Y55320739D01*
X18744739Y55421027D01*
X18665944Y55538952D01*
X18662525Y55547206D01*
X18611668Y55669985D01*
X18584000Y55809084D01*
X18584000Y55950916D01*
X18611668Y56090015D01*
X18665943Y56221046D01*
X18744739Y56338973D01*
X18845027Y56439261D01*
X18962952Y56518056D01*
X18962954Y56518057D01*
X19093985Y56572332D01*
X19233084Y56600000D01*
X19374916Y56600000D01*
X19514015Y56572332D01*
X19514015Y56572332D01*
G37*
G36*
X34015351Y58681257D02*
G01*
X34160941Y58620952D01*
X34291970Y58533401D01*
X34403401Y58421970D01*
X34490952Y58290941D01*
X34551257Y58145351D01*
X34582000Y57990794D01*
X34582000Y57833206D01*
X34551257Y57678649D01*
X34490952Y57533059D01*
X34403401Y57402030D01*
X34291970Y57290599D01*
X34160941Y57203048D01*
X34015351Y57142743D01*
X33860794Y57112000D01*
X33703206Y57112000D01*
X33548649Y57142743D01*
X33403059Y57203048D01*
X33272030Y57290599D01*
X33160599Y57402030D01*
X33073048Y57533059D01*
X33012743Y57678649D01*
X32982000Y57833206D01*
X32982000Y57990794D01*
X33012743Y58145351D01*
X33073048Y58290941D01*
X33160599Y58421970D01*
X33272030Y58533401D01*
X33403059Y58620952D01*
X33548649Y58681257D01*
X33703206Y58712000D01*
X33860794Y58712000D01*
X34015351Y58681257D01*
X34015351Y58681257D01*
G37*
G36*
X28780471Y58708141D02*
G01*
X28858827Y58700424D01*
X29009628Y58654679D01*
X29009630Y58654678D01*
X29148605Y58580394D01*
X29148607Y58580393D01*
X29148606Y58580393D01*
X29270422Y58480422D01*
X29370393Y58358606D01*
X29444679Y58219628D01*
X29490424Y58068827D01*
X29505870Y57912000D01*
X29490424Y57755173D01*
X29444679Y57604372D01*
X29444678Y57604370D01*
X29370394Y57465395D01*
X29270422Y57343578D01*
X29148605Y57243606D01*
X29009630Y57169322D01*
X29009628Y57169321D01*
X28858827Y57123576D01*
X28780471Y57115859D01*
X28741294Y57112000D01*
X28662706Y57112000D01*
X28623529Y57115859D01*
X28545173Y57123576D01*
X28394372Y57169321D01*
X28394370Y57169322D01*
X28255395Y57243606D01*
X28133578Y57343578D01*
X28033606Y57465395D01*
X27959322Y57604370D01*
X27959321Y57604372D01*
X27913576Y57755173D01*
X27898130Y57912000D01*
X27913576Y58068827D01*
X27959321Y58219628D01*
X28033607Y58358606D01*
X28133578Y58480422D01*
X28255394Y58580393D01*
X28255393Y58580393D01*
X28255395Y58580394D01*
X28394370Y58654678D01*
X28394372Y58654679D01*
X28545173Y58700424D01*
X28623529Y58708141D01*
X28662706Y58712000D01*
X28741294Y58712000D01*
X28780471Y58708141D01*
X28780471Y58708141D01*
G37*
G36*
X22054015Y59112332D02*
G01*
X22185046Y59058057D01*
X22185048Y59058056D01*
X22271546Y59000260D01*
X22302973Y58979261D01*
X22403261Y58878973D01*
X22482057Y58761046D01*
X22536332Y58630015D01*
X22564000Y58490916D01*
X22564000Y58349084D01*
X22536332Y58209985D01*
X22482057Y58078954D01*
X22482056Y58078952D01*
X22403261Y57961027D01*
X22302973Y57860739D01*
X22185048Y57781944D01*
X22185047Y57781943D01*
X22185046Y57781943D01*
X22054015Y57727668D01*
X21914916Y57700000D01*
X21773084Y57700000D01*
X21633985Y57727668D01*
X21502954Y57781943D01*
X21502953Y57781943D01*
X21502952Y57781944D01*
X21385027Y57860739D01*
X21284739Y57961027D01*
X21205944Y58078952D01*
X21205943Y58078954D01*
X21151668Y58209985D01*
X21124000Y58349084D01*
X21124000Y58490916D01*
X21151668Y58630015D01*
X21205943Y58761046D01*
X21284739Y58878973D01*
X21385027Y58979261D01*
X21416454Y59000260D01*
X21502952Y59058056D01*
X21502954Y59058057D01*
X21633985Y59112332D01*
X21773084Y59140000D01*
X21914916Y59140000D01*
X22054015Y59112332D01*
X22054015Y59112332D01*
G37*
G36*
X56203313Y63954477D02*
G01*
X56721980Y63739638D01*
X56721981Y63739637D01*
X57188769Y63427740D01*
X57585740Y63030769D01*
X57794143Y62718871D01*
X57897638Y62563980D01*
X58112477Y62045313D01*
X58222000Y61494702D01*
X58222000Y60933298D01*
X58112477Y60382687D01*
X57897638Y59864020D01*
X57897637Y59864019D01*
X57585740Y59397231D01*
X57188769Y59000260D01*
X56876871Y58791857D01*
X56721980Y58688362D01*
X56203313Y58473523D01*
X55652702Y58364000D01*
X55091298Y58364000D01*
X54540687Y58473523D01*
X54022020Y58688362D01*
X53867129Y58791857D01*
X53555231Y59000260D01*
X53158260Y59397231D01*
X52846363Y59864019D01*
X52846362Y59864020D01*
X52631523Y60382687D01*
X52522000Y60933298D01*
X52522000Y61494702D01*
X52631523Y62045313D01*
X52846362Y62563980D01*
X52949857Y62718871D01*
X53158260Y63030769D01*
X53555231Y63427740D01*
X54022019Y63739637D01*
X54022020Y63739638D01*
X54540687Y63954477D01*
X55091298Y64064000D01*
X55652702Y64064000D01*
X56203313Y63954477D01*
X56203313Y63954477D01*
G37*
G36*
X19514015Y61652332D02*
G01*
X19645046Y61598057D01*
X19645048Y61598056D01*
X19652703Y61592941D01*
X19762973Y61519261D01*
X19863261Y61418973D01*
X19942057Y61301046D01*
X19996332Y61170015D01*
X20024000Y61030916D01*
X20024000Y60889084D01*
X19996332Y60749985D01*
X19953085Y60645578D01*
X19942056Y60618952D01*
X19863261Y60501027D01*
X19762973Y60400739D01*
X19645048Y60321944D01*
X19645047Y60321943D01*
X19645046Y60321943D01*
X19514015Y60267668D01*
X19374916Y60240000D01*
X19233084Y60240000D01*
X19093985Y60267668D01*
X18962954Y60321943D01*
X18962953Y60321943D01*
X18962952Y60321944D01*
X18845027Y60400739D01*
X18744739Y60501027D01*
X18665944Y60618952D01*
X18654915Y60645578D01*
X18611668Y60749985D01*
X18584000Y60889084D01*
X18584000Y61030916D01*
X18611668Y61170015D01*
X18665943Y61301046D01*
X18744739Y61418973D01*
X18845027Y61519261D01*
X18955297Y61592941D01*
X18962952Y61598056D01*
X18962954Y61598057D01*
X19093985Y61652332D01*
X19233084Y61680000D01*
X19374916Y61680000D01*
X19514015Y61652332D01*
X19514015Y61652332D01*
G37*
G36*
X33948627Y62051701D02*
G01*
X34028742Y62027399D01*
X34108855Y62003097D01*
X34108857Y62003096D01*
X34256518Y61924169D01*
X34385949Y61817949D01*
X34492168Y61688519D01*
X34571097Y61540855D01*
X34576929Y61521628D01*
X34619701Y61380627D01*
X34636112Y61214000D01*
X34619701Y61047373D01*
X34619700Y61047371D01*
X34571686Y60889086D01*
X34571096Y60887143D01*
X34492169Y60739482D01*
X34385949Y60610051D01*
X34256518Y60503831D01*
X34195698Y60471322D01*
X34108855Y60424903D01*
X34029195Y60400739D01*
X33948627Y60376299D01*
X33823752Y60364000D01*
X33740248Y60364000D01*
X33615373Y60376299D01*
X33534805Y60400739D01*
X33455145Y60424903D01*
X33368302Y60471322D01*
X33307482Y60503831D01*
X33178051Y60610051D01*
X33071831Y60739482D01*
X32992904Y60887143D01*
X32992315Y60889086D01*
X32944300Y61047371D01*
X32944299Y61047373D01*
X32927888Y61214000D01*
X32944299Y61380627D01*
X32987071Y61521628D01*
X32992903Y61540855D01*
X33071832Y61688519D01*
X33178051Y61817949D01*
X33307482Y61924169D01*
X33455143Y62003096D01*
X33455145Y62003097D01*
X33535258Y62027399D01*
X33615373Y62051701D01*
X33740248Y62064000D01*
X33823752Y62064000D01*
X33948627Y62051701D01*
X33948627Y62051701D01*
G37*
G36*
X31408627Y62051701D02*
G01*
X31488742Y62027399D01*
X31568855Y62003097D01*
X31568857Y62003096D01*
X31716518Y61924169D01*
X31845949Y61817949D01*
X31952168Y61688519D01*
X32031097Y61540855D01*
X32036929Y61521628D01*
X32079701Y61380627D01*
X32096112Y61214000D01*
X32079701Y61047373D01*
X32079700Y61047371D01*
X32031686Y60889086D01*
X32031096Y60887143D01*
X31952169Y60739482D01*
X31845949Y60610051D01*
X31716518Y60503831D01*
X31655698Y60471322D01*
X31568855Y60424903D01*
X31489195Y60400739D01*
X31408627Y60376299D01*
X31283752Y60364000D01*
X31200248Y60364000D01*
X31075373Y60376299D01*
X30994805Y60400739D01*
X30915145Y60424903D01*
X30828302Y60471322D01*
X30767482Y60503831D01*
X30638051Y60610051D01*
X30531831Y60739482D01*
X30452904Y60887143D01*
X30452315Y60889086D01*
X30404300Y61047371D01*
X30404299Y61047373D01*
X30387888Y61214000D01*
X30404299Y61380627D01*
X30447071Y61521628D01*
X30452903Y61540855D01*
X30531832Y61688519D01*
X30638051Y61817949D01*
X30767482Y61924169D01*
X30915143Y62003096D01*
X30915145Y62003097D01*
X30995258Y62027399D01*
X31075373Y62051701D01*
X31200248Y62064000D01*
X31283752Y62064000D01*
X31408627Y62051701D01*
X31408627Y62051701D01*
G37*
G36*
X29552000Y60364000D02*
G01*
X27852000Y60364000D01*
X27852000Y62064000D01*
X29552000Y62064000D01*
X29552000Y60364000D01*
X29552000Y60364000D01*
G37*
G36*
X5059351Y61983257D02*
G01*
X5204941Y61922952D01*
X5335970Y61835401D01*
X5447401Y61723970D01*
X5534952Y61592941D01*
X5595257Y61447351D01*
X5626000Y61292794D01*
X5626000Y61135206D01*
X5595257Y60980649D01*
X5534952Y60835059D01*
X5447401Y60704030D01*
X5335970Y60592599D01*
X5204941Y60505048D01*
X5059351Y60444743D01*
X4904794Y60414000D01*
X4747206Y60414000D01*
X4592649Y60444743D01*
X4447059Y60505048D01*
X4316030Y60592599D01*
X4204599Y60704030D01*
X4117048Y60835059D01*
X4056743Y60980649D01*
X4026000Y61135206D01*
X4026000Y61292794D01*
X4056743Y61447351D01*
X4117048Y61592941D01*
X4204599Y61723970D01*
X4316030Y61835401D01*
X4447059Y61922952D01*
X4592649Y61983257D01*
X4747206Y62014000D01*
X4904794Y62014000D01*
X5059351Y61983257D01*
X5059351Y61983257D01*
G37*
G36*
X15064471Y62010141D02*
G01*
X15142827Y62002424D01*
X15293628Y61956679D01*
X15293630Y61956678D01*
X15432605Y61882394D01*
X15554422Y61782422D01*
X15654394Y61660605D01*
X15687827Y61598056D01*
X15728679Y61521628D01*
X15774424Y61370827D01*
X15789870Y61214000D01*
X15774424Y61057173D01*
X15728679Y60906372D01*
X15728678Y60906370D01*
X15654394Y60767395D01*
X15554422Y60645578D01*
X15432605Y60545606D01*
X15293630Y60471322D01*
X15293628Y60471321D01*
X15142827Y60425576D01*
X15064471Y60417859D01*
X15025294Y60414000D01*
X14946706Y60414000D01*
X14907529Y60417859D01*
X14829173Y60425576D01*
X14678372Y60471321D01*
X14678370Y60471322D01*
X14539395Y60545606D01*
X14417578Y60645578D01*
X14317606Y60767395D01*
X14243322Y60906370D01*
X14243321Y60906372D01*
X14197576Y61057173D01*
X14182130Y61214000D01*
X14197576Y61370827D01*
X14243321Y61521628D01*
X14284173Y61598056D01*
X14317606Y61660605D01*
X14417578Y61782422D01*
X14539395Y61882394D01*
X14678370Y61956678D01*
X14678372Y61956679D01*
X14829173Y62002424D01*
X14907529Y62010141D01*
X14946706Y62014000D01*
X15025294Y62014000D01*
X15064471Y62010141D01*
X15064471Y62010141D01*
G37*
G36*
X12619195Y68306478D02*
G01*
X12668267Y68296717D01*
X12806942Y68239276D01*
X12931747Y68155884D01*
X13037884Y68049747D01*
X13121276Y67924942D01*
X13178717Y67786267D01*
X13208000Y67639050D01*
X13208000Y67488950D01*
X13178717Y67341733D01*
X13121276Y67203058D01*
X13037884Y67078253D01*
X12931747Y66972116D01*
X12806942Y66888724D01*
X12668267Y66831283D01*
X12619195Y66821522D01*
X12521052Y66802000D01*
X12370948Y66802000D01*
X12272805Y66821522D01*
X12223733Y66831283D01*
X12085058Y66888724D01*
X11960253Y66972116D01*
X11854116Y67078253D01*
X11770724Y67203058D01*
X11713283Y67341733D01*
X11684000Y67488950D01*
X11684000Y67639050D01*
X11713283Y67786267D01*
X11770724Y67924942D01*
X11854116Y68049747D01*
X11960253Y68155884D01*
X12085058Y68239276D01*
X12223733Y68296717D01*
X12272805Y68306478D01*
X12370948Y68326000D01*
X12521052Y68326000D01*
X12619195Y68306478D01*
X12619195Y68306478D01*
G37*
G36*
X30399195Y68306478D02*
G01*
X30448267Y68296717D01*
X30586942Y68239276D01*
X30711747Y68155884D01*
X30817884Y68049747D01*
X30901276Y67924942D01*
X30958717Y67786267D01*
X30988000Y67639050D01*
X30988000Y67488950D01*
X30958717Y67341733D01*
X30901276Y67203058D01*
X30817884Y67078253D01*
X30711747Y66972116D01*
X30586942Y66888724D01*
X30448267Y66831283D01*
X30399195Y66821522D01*
X30301052Y66802000D01*
X30150948Y66802000D01*
X30052805Y66821522D01*
X30003733Y66831283D01*
X29865058Y66888724D01*
X29740253Y66972116D01*
X29634116Y67078253D01*
X29550724Y67203058D01*
X29493283Y67341733D01*
X29464000Y67488950D01*
X29464000Y67639050D01*
X29493283Y67786267D01*
X29550724Y67924942D01*
X29634116Y68049747D01*
X29740253Y68155884D01*
X29865058Y68239276D01*
X30003733Y68296717D01*
X30052805Y68306478D01*
X30150948Y68326000D01*
X30301052Y68326000D01*
X30399195Y68306478D01*
X30399195Y68306478D01*
G37*
G36*
X17699195Y68306478D02*
G01*
X17748267Y68296717D01*
X17886942Y68239276D01*
X18011747Y68155884D01*
X18117884Y68049747D01*
X18201276Y67924942D01*
X18258717Y67786267D01*
X18288000Y67639050D01*
X18288000Y67488950D01*
X18258717Y67341733D01*
X18201276Y67203058D01*
X18117884Y67078253D01*
X18011747Y66972116D01*
X17886942Y66888724D01*
X17748267Y66831283D01*
X17699195Y66821522D01*
X17601052Y66802000D01*
X17450948Y66802000D01*
X17352805Y66821522D01*
X17303733Y66831283D01*
X17165058Y66888724D01*
X17040253Y66972116D01*
X16934116Y67078253D01*
X16850724Y67203058D01*
X16793283Y67341733D01*
X16764000Y67488950D01*
X16764000Y67639050D01*
X16793283Y67786267D01*
X16850724Y67924942D01*
X16934116Y68049747D01*
X17040253Y68155884D01*
X17165058Y68239276D01*
X17303733Y68296717D01*
X17352805Y68306478D01*
X17450948Y68326000D01*
X17601052Y68326000D01*
X17699195Y68306478D01*
X17699195Y68306478D01*
G37*
G36*
X20239195Y68306478D02*
G01*
X20288267Y68296717D01*
X20426942Y68239276D01*
X20551747Y68155884D01*
X20657884Y68049747D01*
X20741276Y67924942D01*
X20798717Y67786267D01*
X20828000Y67639050D01*
X20828000Y67488950D01*
X20798717Y67341733D01*
X20741276Y67203058D01*
X20657884Y67078253D01*
X20551747Y66972116D01*
X20426942Y66888724D01*
X20288267Y66831283D01*
X20239195Y66821522D01*
X20141052Y66802000D01*
X19990948Y66802000D01*
X19892805Y66821522D01*
X19843733Y66831283D01*
X19705058Y66888724D01*
X19580253Y66972116D01*
X19474116Y67078253D01*
X19390724Y67203058D01*
X19333283Y67341733D01*
X19304000Y67488950D01*
X19304000Y67639050D01*
X19333283Y67786267D01*
X19390724Y67924942D01*
X19474116Y68049747D01*
X19580253Y68155884D01*
X19705058Y68239276D01*
X19843733Y68296717D01*
X19892805Y68306478D01*
X19990948Y68326000D01*
X20141052Y68326000D01*
X20239195Y68306478D01*
X20239195Y68306478D01*
G37*
G36*
X22779195Y68306478D02*
G01*
X22828267Y68296717D01*
X22966942Y68239276D01*
X23091747Y68155884D01*
X23197884Y68049747D01*
X23281276Y67924942D01*
X23338717Y67786267D01*
X23368000Y67639050D01*
X23368000Y67488950D01*
X23338717Y67341733D01*
X23281276Y67203058D01*
X23197884Y67078253D01*
X23091747Y66972116D01*
X22966942Y66888724D01*
X22828267Y66831283D01*
X22779195Y66821522D01*
X22681052Y66802000D01*
X22530948Y66802000D01*
X22432805Y66821522D01*
X22383733Y66831283D01*
X22245058Y66888724D01*
X22120253Y66972116D01*
X22014116Y67078253D01*
X21930724Y67203058D01*
X21873283Y67341733D01*
X21844000Y67488950D01*
X21844000Y67639050D01*
X21873283Y67786267D01*
X21930724Y67924942D01*
X22014116Y68049747D01*
X22120253Y68155884D01*
X22245058Y68239276D01*
X22383733Y68296717D01*
X22432805Y68306478D01*
X22530948Y68326000D01*
X22681052Y68326000D01*
X22779195Y68306478D01*
X22779195Y68306478D01*
G37*
G36*
X25319195Y68306478D02*
G01*
X25368267Y68296717D01*
X25506942Y68239276D01*
X25631747Y68155884D01*
X25737884Y68049747D01*
X25821276Y67924942D01*
X25878717Y67786267D01*
X25908000Y67639050D01*
X25908000Y67488950D01*
X25878717Y67341733D01*
X25821276Y67203058D01*
X25737884Y67078253D01*
X25631747Y66972116D01*
X25506942Y66888724D01*
X25368267Y66831283D01*
X25319195Y66821522D01*
X25221052Y66802000D01*
X25070948Y66802000D01*
X24972805Y66821522D01*
X24923733Y66831283D01*
X24785058Y66888724D01*
X24660253Y66972116D01*
X24554116Y67078253D01*
X24470724Y67203058D01*
X24413283Y67341733D01*
X24384000Y67488950D01*
X24384000Y67639050D01*
X24413283Y67786267D01*
X24470724Y67924942D01*
X24554116Y68049747D01*
X24660253Y68155884D01*
X24785058Y68239276D01*
X24923733Y68296717D01*
X24972805Y68306478D01*
X25070948Y68326000D01*
X25221052Y68326000D01*
X25319195Y68306478D01*
X25319195Y68306478D01*
G37*
G36*
X27859195Y68306478D02*
G01*
X27908267Y68296717D01*
X28046942Y68239276D01*
X28171747Y68155884D01*
X28277884Y68049747D01*
X28361276Y67924942D01*
X28418717Y67786267D01*
X28448000Y67639050D01*
X28448000Y67488950D01*
X28418717Y67341733D01*
X28361276Y67203058D01*
X28277884Y67078253D01*
X28171747Y66972116D01*
X28046942Y66888724D01*
X27908267Y66831283D01*
X27859195Y66821522D01*
X27761052Y66802000D01*
X27610948Y66802000D01*
X27512805Y66821522D01*
X27463733Y66831283D01*
X27325058Y66888724D01*
X27200253Y66972116D01*
X27094116Y67078253D01*
X27010724Y67203058D01*
X26953283Y67341733D01*
X26924000Y67488950D01*
X26924000Y67639050D01*
X26953283Y67786267D01*
X27010724Y67924942D01*
X27094116Y68049747D01*
X27200253Y68155884D01*
X27325058Y68239276D01*
X27463733Y68296717D01*
X27512805Y68306478D01*
X27610948Y68326000D01*
X27761052Y68326000D01*
X27859195Y68306478D01*
X27859195Y68306478D01*
G37*
G36*
X15159195Y68306478D02*
G01*
X15208267Y68296717D01*
X15346942Y68239276D01*
X15471747Y68155884D01*
X15577884Y68049747D01*
X15661276Y67924942D01*
X15718717Y67786267D01*
X15748000Y67639050D01*
X15748000Y67488950D01*
X15718717Y67341733D01*
X15661276Y67203058D01*
X15577884Y67078253D01*
X15471747Y66972116D01*
X15346942Y66888724D01*
X15208267Y66831283D01*
X15159195Y66821522D01*
X15061052Y66802000D01*
X14910948Y66802000D01*
X14812805Y66821522D01*
X14763733Y66831283D01*
X14625058Y66888724D01*
X14500253Y66972116D01*
X14394116Y67078253D01*
X14310724Y67203058D01*
X14253283Y67341733D01*
X14224000Y67488950D01*
X14224000Y67639050D01*
X14253283Y67786267D01*
X14310724Y67924942D01*
X14394116Y68049747D01*
X14500253Y68155884D01*
X14625058Y68239276D01*
X14763733Y68296717D01*
X14812805Y68306478D01*
X14910948Y68326000D01*
X15061052Y68326000D01*
X15159195Y68306478D01*
X15159195Y68306478D01*
G37*
G36*
X32939195Y68306478D02*
G01*
X32988267Y68296717D01*
X33126942Y68239276D01*
X33251747Y68155884D01*
X33357884Y68049747D01*
X33441276Y67924942D01*
X33498717Y67786267D01*
X33528000Y67639050D01*
X33528000Y67488950D01*
X33498717Y67341733D01*
X33441276Y67203058D01*
X33357884Y67078253D01*
X33251747Y66972116D01*
X33126942Y66888724D01*
X32988267Y66831283D01*
X32939195Y66821522D01*
X32841052Y66802000D01*
X32690948Y66802000D01*
X32592805Y66821522D01*
X32543733Y66831283D01*
X32405058Y66888724D01*
X32280253Y66972116D01*
X32174116Y67078253D01*
X32090724Y67203058D01*
X32033283Y67341733D01*
X32004000Y67488950D01*
X32004000Y67639050D01*
X32033283Y67786267D01*
X32090724Y67924942D01*
X32174116Y68049747D01*
X32280253Y68155884D01*
X32405058Y68239276D01*
X32543733Y68296717D01*
X32592805Y68306478D01*
X32690948Y68326000D01*
X32841052Y68326000D01*
X32939195Y68306478D01*
X32939195Y68306478D01*
G37*
G36*
X35479195Y68306478D02*
G01*
X35528267Y68296717D01*
X35666942Y68239276D01*
X35791747Y68155884D01*
X35897884Y68049747D01*
X35981276Y67924942D01*
X36038717Y67786267D01*
X36068000Y67639050D01*
X36068000Y67488950D01*
X36038717Y67341733D01*
X35981276Y67203058D01*
X35897884Y67078253D01*
X35791747Y66972116D01*
X35666942Y66888724D01*
X35528267Y66831283D01*
X35479195Y66821522D01*
X35381052Y66802000D01*
X35230948Y66802000D01*
X35132805Y66821522D01*
X35083733Y66831283D01*
X34945058Y66888724D01*
X34820253Y66972116D01*
X34714116Y67078253D01*
X34630724Y67203058D01*
X34573283Y67341733D01*
X34544000Y67488950D01*
X34544000Y67639050D01*
X34573283Y67786267D01*
X34630724Y67924942D01*
X34714116Y68049747D01*
X34820253Y68155884D01*
X34945058Y68239276D01*
X35083733Y68296717D01*
X35132805Y68306478D01*
X35230948Y68326000D01*
X35381052Y68326000D01*
X35479195Y68306478D01*
X35479195Y68306478D01*
G37*
G36*
X38019195Y68306478D02*
G01*
X38068267Y68296717D01*
X38206942Y68239276D01*
X38331747Y68155884D01*
X38437884Y68049747D01*
X38521276Y67924942D01*
X38578717Y67786267D01*
X38608000Y67639050D01*
X38608000Y67488950D01*
X38578717Y67341733D01*
X38521276Y67203058D01*
X38437884Y67078253D01*
X38331747Y66972116D01*
X38206942Y66888724D01*
X38068267Y66831283D01*
X38019195Y66821522D01*
X37921052Y66802000D01*
X37770948Y66802000D01*
X37672805Y66821522D01*
X37623733Y66831283D01*
X37485058Y66888724D01*
X37360253Y66972116D01*
X37254116Y67078253D01*
X37170724Y67203058D01*
X37113283Y67341733D01*
X37084000Y67488950D01*
X37084000Y67639050D01*
X37113283Y67786267D01*
X37170724Y67924942D01*
X37254116Y68049747D01*
X37360253Y68155884D01*
X37485058Y68239276D01*
X37623733Y68296717D01*
X37672805Y68306478D01*
X37770948Y68326000D01*
X37921052Y68326000D01*
X38019195Y68306478D01*
X38019195Y68306478D01*
G37*
G36*
X40559195Y68306478D02*
G01*
X40608267Y68296717D01*
X40746942Y68239276D01*
X40871747Y68155884D01*
X40977884Y68049747D01*
X41061276Y67924942D01*
X41118717Y67786267D01*
X41148000Y67639050D01*
X41148000Y67488950D01*
X41118717Y67341733D01*
X41061276Y67203058D01*
X40977884Y67078253D01*
X40871747Y66972116D01*
X40746942Y66888724D01*
X40608267Y66831283D01*
X40559195Y66821522D01*
X40461052Y66802000D01*
X40310948Y66802000D01*
X40212805Y66821522D01*
X40163733Y66831283D01*
X40025058Y66888724D01*
X39900253Y66972116D01*
X39794116Y67078253D01*
X39710724Y67203058D01*
X39653283Y67341733D01*
X39624000Y67488950D01*
X39624000Y67639050D01*
X39653283Y67786267D01*
X39710724Y67924942D01*
X39794116Y68049747D01*
X39900253Y68155884D01*
X40025058Y68239276D01*
X40163733Y68296717D01*
X40212805Y68306478D01*
X40310948Y68326000D01*
X40461052Y68326000D01*
X40559195Y68306478D01*
X40559195Y68306478D01*
G37*
G36*
X5657313Y78686477D02*
G01*
X6175980Y78471638D01*
X6175981Y78471637D01*
X6642769Y78159740D01*
X7039740Y77762769D01*
X7248143Y77450871D01*
X7351638Y77295980D01*
X7566477Y76777313D01*
X7676000Y76226702D01*
X7676000Y75665298D01*
X7566477Y75114687D01*
X7351638Y74596020D01*
X7351637Y74596019D01*
X7039740Y74129231D01*
X6642769Y73732260D01*
X6330871Y73523857D01*
X6175980Y73420362D01*
X5657313Y73205523D01*
X5106702Y73096000D01*
X4545298Y73096000D01*
X3994687Y73205523D01*
X3476020Y73420362D01*
X3321129Y73523857D01*
X3009231Y73732260D01*
X2612260Y74129231D01*
X2300363Y74596019D01*
X2300362Y74596020D01*
X2085523Y75114687D01*
X1976000Y75665298D01*
X1976000Y76226702D01*
X2085523Y76777313D01*
X2300362Y77295980D01*
X2403857Y77450871D01*
X2612260Y77762769D01*
X3009231Y78159740D01*
X3476019Y78471637D01*
X3476020Y78471638D01*
X3994687Y78686477D01*
X4545298Y78796000D01*
X5106702Y78796000D01*
X5657313Y78686477D01*
X5657313Y78686477D01*
G37*
G36*
X51728627Y81355701D02*
G01*
X51808742Y81331399D01*
X51888855Y81307097D01*
X51888857Y81307096D01*
X52036518Y81228169D01*
X52165949Y81121949D01*
X52272169Y80992518D01*
X52351096Y80844857D01*
X52399701Y80684627D01*
X52416112Y80518000D01*
X52399701Y80351373D01*
X52351096Y80191143D01*
X52272169Y80043482D01*
X52165949Y79914051D01*
X52036518Y79807831D01*
X51888857Y79728904D01*
X51888855Y79728903D01*
X51808742Y79704602D01*
X51728627Y79680299D01*
X51603752Y79668000D01*
X51520248Y79668000D01*
X51395373Y79680299D01*
X51315258Y79704602D01*
X51235145Y79728903D01*
X51235143Y79728904D01*
X51087482Y79807831D01*
X50958051Y79914051D01*
X50851831Y80043482D01*
X50772904Y80191143D01*
X50724299Y80351373D01*
X50707888Y80518000D01*
X50724299Y80684627D01*
X50772904Y80844857D01*
X50851831Y80992518D01*
X50958051Y81121949D01*
X51087482Y81228169D01*
X51235143Y81307096D01*
X51235145Y81307097D01*
X51315258Y81331399D01*
X51395373Y81355701D01*
X51520248Y81368000D01*
X51603752Y81368000D01*
X51728627Y81355701D01*
X51728627Y81355701D01*
G37*
G36*
X54268627Y81355701D02*
G01*
X54348742Y81331399D01*
X54428855Y81307097D01*
X54428857Y81307096D01*
X54576518Y81228169D01*
X54705949Y81121949D01*
X54812169Y80992518D01*
X54891096Y80844857D01*
X54939701Y80684627D01*
X54956112Y80518000D01*
X54939701Y80351373D01*
X54891096Y80191143D01*
X54812169Y80043482D01*
X54705949Y79914051D01*
X54576518Y79807831D01*
X54428857Y79728904D01*
X54428855Y79728903D01*
X54348742Y79704602D01*
X54268627Y79680299D01*
X54143752Y79668000D01*
X54060248Y79668000D01*
X53935373Y79680299D01*
X53855258Y79704602D01*
X53775145Y79728903D01*
X53775143Y79728904D01*
X53627482Y79807831D01*
X53498051Y79914051D01*
X53391831Y80043482D01*
X53312904Y80191143D01*
X53264299Y80351373D01*
X53247888Y80518000D01*
X53264299Y80684627D01*
X53312904Y80844857D01*
X53391831Y80992518D01*
X53498051Y81121949D01*
X53627482Y81228169D01*
X53775143Y81307096D01*
X53775145Y81307097D01*
X53855258Y81331399D01*
X53935373Y81355701D01*
X54060248Y81368000D01*
X54143752Y81368000D01*
X54268627Y81355701D01*
X54268627Y81355701D01*
G37*
G36*
X59348627Y81355701D02*
G01*
X59428742Y81331399D01*
X59508855Y81307097D01*
X59508857Y81307096D01*
X59656518Y81228169D01*
X59785949Y81121949D01*
X59892169Y80992518D01*
X59971096Y80844857D01*
X60019701Y80684627D01*
X60036112Y80518000D01*
X60019701Y80351373D01*
X59971096Y80191143D01*
X59892169Y80043482D01*
X59785949Y79914051D01*
X59656518Y79807831D01*
X59508857Y79728904D01*
X59508855Y79728903D01*
X59428742Y79704602D01*
X59348627Y79680299D01*
X59223752Y79668000D01*
X59140248Y79668000D01*
X59015373Y79680299D01*
X58935258Y79704602D01*
X58855145Y79728903D01*
X58855143Y79728904D01*
X58707482Y79807831D01*
X58578051Y79914051D01*
X58471831Y80043482D01*
X58392904Y80191143D01*
X58344299Y80351373D01*
X58327888Y80518000D01*
X58344299Y80684627D01*
X58392904Y80844857D01*
X58471831Y80992518D01*
X58578051Y81121949D01*
X58707482Y81228169D01*
X58855143Y81307096D01*
X58855145Y81307097D01*
X58935258Y81331399D01*
X59015373Y81355701D01*
X59140248Y81368000D01*
X59223752Y81368000D01*
X59348627Y81355701D01*
X59348627Y81355701D01*
G37*
G36*
X56808627Y81355701D02*
G01*
X56888742Y81331399D01*
X56968855Y81307097D01*
X56968857Y81307096D01*
X57116518Y81228169D01*
X57245949Y81121949D01*
X57352169Y80992518D01*
X57431096Y80844857D01*
X57479701Y80684627D01*
X57496112Y80518000D01*
X57479701Y80351373D01*
X57431096Y80191143D01*
X57352169Y80043482D01*
X57245949Y79914051D01*
X57116518Y79807831D01*
X56968857Y79728904D01*
X56968855Y79728903D01*
X56888742Y79704602D01*
X56808627Y79680299D01*
X56683752Y79668000D01*
X56600248Y79668000D01*
X56475373Y79680299D01*
X56395258Y79704602D01*
X56315145Y79728903D01*
X56315143Y79728904D01*
X56167482Y79807831D01*
X56038051Y79914051D01*
X55931831Y80043482D01*
X55852904Y80191143D01*
X55804299Y80351373D01*
X55787888Y80518000D01*
X55804299Y80684627D01*
X55852904Y80844857D01*
X55931831Y80992518D01*
X56038051Y81121949D01*
X56167482Y81228169D01*
X56315143Y81307096D01*
X56315145Y81307097D01*
X56395258Y81331399D01*
X56475373Y81355701D01*
X56600248Y81368000D01*
X56683752Y81368000D01*
X56808627Y81355701D01*
X56808627Y81355701D01*
G37*
G36*
X20239195Y83546478D02*
G01*
X20288267Y83536717D01*
X20426942Y83479276D01*
X20551747Y83395884D01*
X20657884Y83289747D01*
X20741276Y83164942D01*
X20798717Y83026267D01*
X20798717Y83026266D01*
X20825550Y82891371D01*
X20828000Y82879050D01*
X20828000Y82728950D01*
X20798717Y82581733D01*
X20741276Y82443058D01*
X20657884Y82318253D01*
X20551747Y82212116D01*
X20426942Y82128724D01*
X20288267Y82071283D01*
X20239195Y82061522D01*
X20141052Y82042000D01*
X19990948Y82042000D01*
X19892805Y82061522D01*
X19843733Y82071283D01*
X19705058Y82128724D01*
X19580253Y82212116D01*
X19474116Y82318253D01*
X19390724Y82443058D01*
X19333283Y82581733D01*
X19304000Y82728950D01*
X19304000Y82879050D01*
X19306451Y82891371D01*
X19333283Y83026266D01*
X19333283Y83026267D01*
X19390724Y83164942D01*
X19474116Y83289747D01*
X19580253Y83395884D01*
X19705058Y83479276D01*
X19843733Y83536717D01*
X19892805Y83546478D01*
X19990948Y83566000D01*
X20141052Y83566000D01*
X20239195Y83546478D01*
X20239195Y83546478D01*
G37*
G36*
X30399195Y83546478D02*
G01*
X30448267Y83536717D01*
X30586942Y83479276D01*
X30711747Y83395884D01*
X30817884Y83289747D01*
X30901276Y83164942D01*
X30958717Y83026267D01*
X30958717Y83026266D01*
X30985550Y82891371D01*
X30988000Y82879050D01*
X30988000Y82728950D01*
X30958717Y82581733D01*
X30901276Y82443058D01*
X30817884Y82318253D01*
X30711747Y82212116D01*
X30586942Y82128724D01*
X30448267Y82071283D01*
X30399195Y82061522D01*
X30301052Y82042000D01*
X30150948Y82042000D01*
X30052805Y82061522D01*
X30003733Y82071283D01*
X29865058Y82128724D01*
X29740253Y82212116D01*
X29634116Y82318253D01*
X29550724Y82443058D01*
X29493283Y82581733D01*
X29464000Y82728950D01*
X29464000Y82879050D01*
X29466451Y82891371D01*
X29493283Y83026266D01*
X29493283Y83026267D01*
X29550724Y83164942D01*
X29634116Y83289747D01*
X29740253Y83395884D01*
X29865058Y83479276D01*
X30003733Y83536717D01*
X30052805Y83546478D01*
X30150948Y83566000D01*
X30301052Y83566000D01*
X30399195Y83546478D01*
X30399195Y83546478D01*
G37*
G36*
X27859195Y83546478D02*
G01*
X27908267Y83536717D01*
X28046942Y83479276D01*
X28171747Y83395884D01*
X28277884Y83289747D01*
X28361276Y83164942D01*
X28418717Y83026267D01*
X28418717Y83026266D01*
X28445550Y82891371D01*
X28448000Y82879050D01*
X28448000Y82728950D01*
X28418717Y82581733D01*
X28361276Y82443058D01*
X28277884Y82318253D01*
X28171747Y82212116D01*
X28046942Y82128724D01*
X27908267Y82071283D01*
X27859195Y82061522D01*
X27761052Y82042000D01*
X27610948Y82042000D01*
X27512805Y82061522D01*
X27463733Y82071283D01*
X27325058Y82128724D01*
X27200253Y82212116D01*
X27094116Y82318253D01*
X27010724Y82443058D01*
X26953283Y82581733D01*
X26924000Y82728950D01*
X26924000Y82879050D01*
X26926451Y82891371D01*
X26953283Y83026266D01*
X26953283Y83026267D01*
X27010724Y83164942D01*
X27094116Y83289747D01*
X27200253Y83395884D01*
X27325058Y83479276D01*
X27463733Y83536717D01*
X27512805Y83546478D01*
X27610948Y83566000D01*
X27761052Y83566000D01*
X27859195Y83546478D01*
X27859195Y83546478D01*
G37*
G36*
X25319195Y83546478D02*
G01*
X25368267Y83536717D01*
X25506942Y83479276D01*
X25631747Y83395884D01*
X25737884Y83289747D01*
X25821276Y83164942D01*
X25878717Y83026267D01*
X25878717Y83026266D01*
X25905550Y82891371D01*
X25908000Y82879050D01*
X25908000Y82728950D01*
X25878717Y82581733D01*
X25821276Y82443058D01*
X25737884Y82318253D01*
X25631747Y82212116D01*
X25506942Y82128724D01*
X25368267Y82071283D01*
X25319195Y82061522D01*
X25221052Y82042000D01*
X25070948Y82042000D01*
X24972805Y82061522D01*
X24923733Y82071283D01*
X24785058Y82128724D01*
X24660253Y82212116D01*
X24554116Y82318253D01*
X24470724Y82443058D01*
X24413283Y82581733D01*
X24384000Y82728950D01*
X24384000Y82879050D01*
X24386451Y82891371D01*
X24413283Y83026266D01*
X24413283Y83026267D01*
X24470724Y83164942D01*
X24554116Y83289747D01*
X24660253Y83395884D01*
X24785058Y83479276D01*
X24923733Y83536717D01*
X24972805Y83546478D01*
X25070948Y83566000D01*
X25221052Y83566000D01*
X25319195Y83546478D01*
X25319195Y83546478D01*
G37*
G36*
X22779195Y83546478D02*
G01*
X22828267Y83536717D01*
X22966942Y83479276D01*
X23091747Y83395884D01*
X23197884Y83289747D01*
X23281276Y83164942D01*
X23338717Y83026267D01*
X23338717Y83026266D01*
X23365550Y82891371D01*
X23368000Y82879050D01*
X23368000Y82728950D01*
X23338717Y82581733D01*
X23281276Y82443058D01*
X23197884Y82318253D01*
X23091747Y82212116D01*
X22966942Y82128724D01*
X22828267Y82071283D01*
X22779195Y82061522D01*
X22681052Y82042000D01*
X22530948Y82042000D01*
X22432805Y82061522D01*
X22383733Y82071283D01*
X22245058Y82128724D01*
X22120253Y82212116D01*
X22014116Y82318253D01*
X21930724Y82443058D01*
X21873283Y82581733D01*
X21844000Y82728950D01*
X21844000Y82879050D01*
X21846451Y82891371D01*
X21873283Y83026266D01*
X21873283Y83026267D01*
X21930724Y83164942D01*
X22014116Y83289747D01*
X22120253Y83395884D01*
X22245058Y83479276D01*
X22383733Y83536717D01*
X22432805Y83546478D01*
X22530948Y83566000D01*
X22681052Y83566000D01*
X22779195Y83546478D01*
X22779195Y83546478D01*
G37*
G36*
X17699195Y83546478D02*
G01*
X17748267Y83536717D01*
X17886942Y83479276D01*
X18011747Y83395884D01*
X18117884Y83289747D01*
X18201276Y83164942D01*
X18258717Y83026267D01*
X18258717Y83026266D01*
X18285550Y82891371D01*
X18288000Y82879050D01*
X18288000Y82728950D01*
X18258717Y82581733D01*
X18201276Y82443058D01*
X18117884Y82318253D01*
X18011747Y82212116D01*
X17886942Y82128724D01*
X17748267Y82071283D01*
X17699195Y82061522D01*
X17601052Y82042000D01*
X17450948Y82042000D01*
X17352805Y82061522D01*
X17303733Y82071283D01*
X17165058Y82128724D01*
X17040253Y82212116D01*
X16934116Y82318253D01*
X16850724Y82443058D01*
X16793283Y82581733D01*
X16764000Y82728950D01*
X16764000Y82879050D01*
X16766451Y82891371D01*
X16793283Y83026266D01*
X16793283Y83026267D01*
X16850724Y83164942D01*
X16934116Y83289747D01*
X17040253Y83395884D01*
X17165058Y83479276D01*
X17303733Y83536717D01*
X17352805Y83546478D01*
X17450948Y83566000D01*
X17601052Y83566000D01*
X17699195Y83546478D01*
X17699195Y83546478D01*
G37*
G36*
X15159195Y83546478D02*
G01*
X15208267Y83536717D01*
X15346942Y83479276D01*
X15471747Y83395884D01*
X15577884Y83289747D01*
X15661276Y83164942D01*
X15718717Y83026267D01*
X15718717Y83026266D01*
X15745550Y82891371D01*
X15748000Y82879050D01*
X15748000Y82728950D01*
X15718717Y82581733D01*
X15661276Y82443058D01*
X15577884Y82318253D01*
X15471747Y82212116D01*
X15346942Y82128724D01*
X15208267Y82071283D01*
X15159195Y82061522D01*
X15061052Y82042000D01*
X14910948Y82042000D01*
X14812805Y82061522D01*
X14763733Y82071283D01*
X14625058Y82128724D01*
X14500253Y82212116D01*
X14394116Y82318253D01*
X14310724Y82443058D01*
X14253283Y82581733D01*
X14224000Y82728950D01*
X14224000Y82879050D01*
X14226451Y82891371D01*
X14253283Y83026266D01*
X14253283Y83026267D01*
X14310724Y83164942D01*
X14394116Y83289747D01*
X14500253Y83395884D01*
X14625058Y83479276D01*
X14763733Y83536717D01*
X14812805Y83546478D01*
X14910948Y83566000D01*
X15061052Y83566000D01*
X15159195Y83546478D01*
X15159195Y83546478D01*
G37*
G36*
X35479195Y83546478D02*
G01*
X35528267Y83536717D01*
X35666942Y83479276D01*
X35791747Y83395884D01*
X35897884Y83289747D01*
X35981276Y83164942D01*
X36038717Y83026267D01*
X36038717Y83026266D01*
X36065550Y82891371D01*
X36068000Y82879050D01*
X36068000Y82728950D01*
X36038717Y82581733D01*
X35981276Y82443058D01*
X35897884Y82318253D01*
X35791747Y82212116D01*
X35666942Y82128724D01*
X35528267Y82071283D01*
X35479195Y82061522D01*
X35381052Y82042000D01*
X35230948Y82042000D01*
X35132805Y82061522D01*
X35083733Y82071283D01*
X34945058Y82128724D01*
X34820253Y82212116D01*
X34714116Y82318253D01*
X34630724Y82443058D01*
X34573283Y82581733D01*
X34544000Y82728950D01*
X34544000Y82879050D01*
X34546451Y82891371D01*
X34573283Y83026266D01*
X34573283Y83026267D01*
X34630724Y83164942D01*
X34714116Y83289747D01*
X34820253Y83395884D01*
X34945058Y83479276D01*
X35083733Y83536717D01*
X35132805Y83546478D01*
X35230948Y83566000D01*
X35381052Y83566000D01*
X35479195Y83546478D01*
X35479195Y83546478D01*
G37*
G36*
X12619195Y83546478D02*
G01*
X12668267Y83536717D01*
X12806942Y83479276D01*
X12931747Y83395884D01*
X13037884Y83289747D01*
X13121276Y83164942D01*
X13178717Y83026267D01*
X13178717Y83026266D01*
X13205550Y82891371D01*
X13208000Y82879050D01*
X13208000Y82728950D01*
X13178717Y82581733D01*
X13121276Y82443058D01*
X13037884Y82318253D01*
X12931747Y82212116D01*
X12806942Y82128724D01*
X12668267Y82071283D01*
X12619195Y82061522D01*
X12521052Y82042000D01*
X12370948Y82042000D01*
X12272805Y82061522D01*
X12223733Y82071283D01*
X12085058Y82128724D01*
X11960253Y82212116D01*
X11854116Y82318253D01*
X11770724Y82443058D01*
X11713283Y82581733D01*
X11684000Y82728950D01*
X11684000Y82879050D01*
X11686451Y82891371D01*
X11713283Y83026266D01*
X11713283Y83026267D01*
X11770724Y83164942D01*
X11854116Y83289747D01*
X11960253Y83395884D01*
X12085058Y83479276D01*
X12223733Y83536717D01*
X12272805Y83546478D01*
X12370948Y83566000D01*
X12521052Y83566000D01*
X12619195Y83546478D01*
X12619195Y83546478D01*
G37*
G36*
X38019195Y83546478D02*
G01*
X38068267Y83536717D01*
X38206942Y83479276D01*
X38331747Y83395884D01*
X38437884Y83289747D01*
X38521276Y83164942D01*
X38578717Y83026267D01*
X38578717Y83026266D01*
X38605550Y82891371D01*
X38608000Y82879050D01*
X38608000Y82728950D01*
X38578717Y82581733D01*
X38521276Y82443058D01*
X38437884Y82318253D01*
X38331747Y82212116D01*
X38206942Y82128724D01*
X38068267Y82071283D01*
X38019195Y82061522D01*
X37921052Y82042000D01*
X37770948Y82042000D01*
X37672805Y82061522D01*
X37623733Y82071283D01*
X37485058Y82128724D01*
X37360253Y82212116D01*
X37254116Y82318253D01*
X37170724Y82443058D01*
X37113283Y82581733D01*
X37084000Y82728950D01*
X37084000Y82879050D01*
X37086451Y82891371D01*
X37113283Y83026266D01*
X37113283Y83026267D01*
X37170724Y83164942D01*
X37254116Y83289747D01*
X37360253Y83395884D01*
X37485058Y83479276D01*
X37623733Y83536717D01*
X37672805Y83546478D01*
X37770948Y83566000D01*
X37921052Y83566000D01*
X38019195Y83546478D01*
X38019195Y83546478D01*
G37*
G36*
X32939195Y83546478D02*
G01*
X32988267Y83536717D01*
X33126942Y83479276D01*
X33251747Y83395884D01*
X33357884Y83289747D01*
X33441276Y83164942D01*
X33498717Y83026267D01*
X33498717Y83026266D01*
X33525550Y82891371D01*
X33528000Y82879050D01*
X33528000Y82728950D01*
X33498717Y82581733D01*
X33441276Y82443058D01*
X33357884Y82318253D01*
X33251747Y82212116D01*
X33126942Y82128724D01*
X32988267Y82071283D01*
X32939195Y82061522D01*
X32841052Y82042000D01*
X32690948Y82042000D01*
X32592805Y82061522D01*
X32543733Y82071283D01*
X32405058Y82128724D01*
X32280253Y82212116D01*
X32174116Y82318253D01*
X32090724Y82443058D01*
X32033283Y82581733D01*
X32004000Y82728950D01*
X32004000Y82879050D01*
X32006451Y82891371D01*
X32033283Y83026266D01*
X32033283Y83026267D01*
X32090724Y83164942D01*
X32174116Y83289747D01*
X32280253Y83395884D01*
X32405058Y83479276D01*
X32543733Y83536717D01*
X32592805Y83546478D01*
X32690948Y83566000D01*
X32841052Y83566000D01*
X32939195Y83546478D01*
X32939195Y83546478D01*
G37*
G36*
X40559195Y83546478D02*
G01*
X40608267Y83536717D01*
X40746942Y83479276D01*
X40871747Y83395884D01*
X40977884Y83289747D01*
X41061276Y83164942D01*
X41118717Y83026267D01*
X41118717Y83026266D01*
X41145550Y82891371D01*
X41148000Y82879050D01*
X41148000Y82728950D01*
X41118717Y82581733D01*
X41061276Y82443058D01*
X40977884Y82318253D01*
X40871747Y82212116D01*
X40746942Y82128724D01*
X40608267Y82071283D01*
X40559195Y82061522D01*
X40461052Y82042000D01*
X40310948Y82042000D01*
X40212805Y82061522D01*
X40163733Y82071283D01*
X40025058Y82128724D01*
X39900253Y82212116D01*
X39794116Y82318253D01*
X39710724Y82443058D01*
X39653283Y82581733D01*
X39624000Y82728950D01*
X39624000Y82879050D01*
X39626451Y82891371D01*
X39653283Y83026266D01*
X39653283Y83026267D01*
X39710724Y83164942D01*
X39794116Y83289747D01*
X39900253Y83395884D01*
X40025058Y83479276D01*
X40163733Y83536717D01*
X40212805Y83546478D01*
X40310948Y83566000D01*
X40461052Y83566000D01*
X40559195Y83546478D01*
X40559195Y83546478D01*
G37*
G36*
X51728627Y83895701D02*
G01*
X51808742Y83871399D01*
X51888855Y83847097D01*
X51888857Y83847096D01*
X52036518Y83768169D01*
X52165949Y83661949D01*
X52272169Y83532518D01*
X52351096Y83384857D01*
X52399701Y83224627D01*
X52416112Y83058000D01*
X52399701Y82891373D01*
X52351096Y82731143D01*
X52272169Y82583482D01*
X52165949Y82454051D01*
X52036518Y82347831D01*
X51888857Y82268904D01*
X51888855Y82268903D01*
X51808742Y82244601D01*
X51728627Y82220299D01*
X51603752Y82208000D01*
X51520248Y82208000D01*
X51395373Y82220299D01*
X51315258Y82244601D01*
X51235145Y82268903D01*
X51235143Y82268904D01*
X51087482Y82347831D01*
X50958051Y82454051D01*
X50851831Y82583482D01*
X50772904Y82731143D01*
X50724299Y82891373D01*
X50707888Y83058000D01*
X50724299Y83224627D01*
X50772904Y83384857D01*
X50851831Y83532518D01*
X50958051Y83661949D01*
X51087482Y83768169D01*
X51235143Y83847096D01*
X51235145Y83847097D01*
X51315258Y83871399D01*
X51395373Y83895701D01*
X51520248Y83908000D01*
X51603752Y83908000D01*
X51728627Y83895701D01*
X51728627Y83895701D01*
G37*
G36*
X54268627Y83895701D02*
G01*
X54348742Y83871399D01*
X54428855Y83847097D01*
X54428857Y83847096D01*
X54576518Y83768169D01*
X54705949Y83661949D01*
X54812169Y83532518D01*
X54891096Y83384857D01*
X54939701Y83224627D01*
X54956112Y83058000D01*
X54939701Y82891373D01*
X54891096Y82731143D01*
X54812169Y82583482D01*
X54705949Y82454051D01*
X54576518Y82347831D01*
X54428857Y82268904D01*
X54428855Y82268903D01*
X54348742Y82244601D01*
X54268627Y82220299D01*
X54143752Y82208000D01*
X54060248Y82208000D01*
X53935373Y82220299D01*
X53855258Y82244601D01*
X53775145Y82268903D01*
X53775143Y82268904D01*
X53627482Y82347831D01*
X53498051Y82454051D01*
X53391831Y82583482D01*
X53312904Y82731143D01*
X53264299Y82891373D01*
X53247888Y83058000D01*
X53264299Y83224627D01*
X53312904Y83384857D01*
X53391831Y83532518D01*
X53498051Y83661949D01*
X53627482Y83768169D01*
X53775143Y83847096D01*
X53775145Y83847097D01*
X53855258Y83871399D01*
X53935373Y83895701D01*
X54060248Y83908000D01*
X54143752Y83908000D01*
X54268627Y83895701D01*
X54268627Y83895701D01*
G37*
G36*
X56808627Y83895701D02*
G01*
X56888742Y83871399D01*
X56968855Y83847097D01*
X56968857Y83847096D01*
X57116518Y83768169D01*
X57245949Y83661949D01*
X57352169Y83532518D01*
X57431096Y83384857D01*
X57479701Y83224627D01*
X57496112Y83058000D01*
X57479701Y82891373D01*
X57431096Y82731143D01*
X57352169Y82583482D01*
X57245949Y82454051D01*
X57116518Y82347831D01*
X56968857Y82268904D01*
X56968855Y82268903D01*
X56888742Y82244601D01*
X56808627Y82220299D01*
X56683752Y82208000D01*
X56600248Y82208000D01*
X56475373Y82220299D01*
X56395258Y82244601D01*
X56315145Y82268903D01*
X56315143Y82268904D01*
X56167482Y82347831D01*
X56038051Y82454051D01*
X55931831Y82583482D01*
X55852904Y82731143D01*
X55804299Y82891373D01*
X55787888Y83058000D01*
X55804299Y83224627D01*
X55852904Y83384857D01*
X55931831Y83532518D01*
X56038051Y83661949D01*
X56167482Y83768169D01*
X56315143Y83847096D01*
X56315145Y83847097D01*
X56395258Y83871399D01*
X56475373Y83895701D01*
X56600248Y83908000D01*
X56683752Y83908000D01*
X56808627Y83895701D01*
X56808627Y83895701D01*
G37*
G36*
X60032000Y82208000D02*
G01*
X58332000Y82208000D01*
X58332000Y83908000D01*
X60032000Y83908000D01*
X60032000Y82208000D01*
X60032000Y82208000D01*
G37*
M02*
