%TF.GenerationSoftware,KiCad,Pcbnew,(5.1.2)-2*%
%TF.CreationDate,2019-06-24T14:10:12+02:00*%
%TF.ProjectId,Main_Monstrum,4d61696e-5f4d-46f6-9e73-7472756d2e6b,rev?*%
%TF.SameCoordinates,PX196f3b0PYa952310*%
%TF.FileFunction,Copper,L2,Bot*%
%TF.FilePolarity,Positive*%
%FSLAX46Y46*%
G04 Gerber Fmt 4.6, Leading zero omitted, Abs format (unit mm)*
G04 Created by KiCad (PCBNEW (5.1.2)-2) date 2019-06-24 14:10:12*
%MOMM*%
%LPD*%
G04 APERTURE LIST*
%ADD10C,0.100000*%
%ADD11C,5.700000*%
%ADD12C,2.500000*%
%ADD13R,2.500000X2.500000*%
%ADD14C,1.524000*%
%ADD15R,1.700000X1.700000*%
%ADD16O,1.700000X1.700000*%
%ADD17C,1.600000*%
%ADD18R,1.905000X2.000000*%
%ADD19O,1.905000X2.000000*%
%ADD20C,1.500000*%
%ADD21R,1.500000X1.500000*%
%ADD22O,1.600000X1.600000*%
%ADD23C,1.440000*%
%ADD24C,1.000000*%
%ADD25C,0.500000*%
%ADD26C,0.254000*%
G04 APERTURE END LIST*
D10*
X64516000Y85852000D02*
X64516000Y50800000D01*
X1778000Y87630000D02*
X62738000Y87630000D01*
X0Y1778000D02*
X0Y85852000D01*
X44958000Y0D02*
X1778000Y0D01*
X46736000Y50800000D02*
X46736000Y1778000D01*
X62738000Y87630000D02*
X64516000Y85852000D01*
X0Y85852000D02*
X1778000Y87630000D01*
X1778000Y0D02*
X0Y1778000D01*
X44958000Y0D02*
X46736000Y1778000D01*
X64516000Y50800000D02*
X46736000Y50800000D01*
D11*
X55372000Y61214000D03*
X42164000Y4572000D03*
X4826000Y75946000D03*
D12*
X31750000Y6350000D03*
D13*
X26750000Y6350000D03*
D14*
X40386000Y82804000D03*
X37846000Y82804000D03*
X35306000Y82804000D03*
X32766000Y82804000D03*
X30226000Y82804000D03*
X27686000Y82804000D03*
X25146000Y82804000D03*
X22606000Y82804000D03*
X20066000Y82804000D03*
X17526000Y82804000D03*
X14986000Y82804000D03*
X12446000Y82804000D03*
X40386000Y67564000D03*
X37846000Y67564000D03*
X35306000Y67564000D03*
X32766000Y67564000D03*
X30226000Y67564000D03*
X27686000Y67564000D03*
X25146000Y67564000D03*
X22606000Y67564000D03*
X20066000Y67564000D03*
X17526000Y67564000D03*
X14986000Y67564000D03*
X12446000Y67564000D03*
D15*
X59182000Y83058000D03*
D16*
X59182000Y80518000D03*
X56642000Y83058000D03*
X56642000Y80518000D03*
X54102000Y83058000D03*
X54102000Y80518000D03*
X51562000Y83058000D03*
X51562000Y80518000D03*
D17*
X15748000Y55626000D03*
X10748000Y55626000D03*
D13*
X38100000Y36322000D03*
D12*
X43100000Y36322000D03*
D15*
X28702000Y61214000D03*
D16*
X31242000Y61214000D03*
X33782000Y61214000D03*
D12*
X11350000Y6350000D03*
D13*
X6350000Y6350000D03*
D18*
X10414000Y49530000D03*
D19*
X7874000Y49530000D03*
X5334000Y49530000D03*
D17*
X4064000Y55626000D03*
X6564000Y55626000D03*
D20*
X19558000Y48006000D03*
X22098000Y48006000D03*
D21*
X17018000Y48006000D03*
D17*
X4826000Y61214000D03*
D22*
X14986000Y61214000D03*
D17*
X28702000Y47752000D03*
D22*
X28702000Y57912000D03*
X33782000Y47752000D03*
D17*
X33782000Y57912000D03*
D12*
X7686000Y16764000D03*
D13*
X27686000Y16764000D03*
D12*
X12686000Y36764000D03*
X22686000Y36764000D03*
D23*
X19304000Y55880000D03*
X21844000Y58420000D03*
X19304000Y60960000D03*
D24*
X49022000Y75438000D03*
X42926000Y75438000D03*
X50254954Y77067817D03*
X46736000Y80263996D03*
X51308000Y78486000D03*
X48006000Y81788000D03*
D25*
X49022000Y75438000D02*
X42926000Y75438000D01*
X46736000Y80171386D02*
X46736000Y80263996D01*
X50254954Y77067817D02*
X49839569Y77067817D01*
X49839569Y77067817D02*
X46736000Y80171386D01*
X51308000Y78486000D02*
X48006000Y81788000D01*
D26*
G36*
X63831000Y85568264D02*
G01*
X63831001Y51485000D01*
X46769647Y51485000D01*
X46736000Y51488314D01*
X46702353Y51485000D01*
X46601717Y51475088D01*
X46472594Y51435919D01*
X46353593Y51372312D01*
X46249289Y51286711D01*
X46163688Y51182407D01*
X46100081Y51063406D01*
X46060912Y50934283D01*
X46047686Y50800000D01*
X46051000Y50766353D01*
X46051000Y32385000D01*
X685000Y32385000D01*
X685000Y36949656D01*
X10801000Y36949656D01*
X10801000Y36578344D01*
X10873439Y36214166D01*
X11015534Y35871118D01*
X11221825Y35562382D01*
X11484382Y35299825D01*
X11793118Y35093534D01*
X12136166Y34951439D01*
X12500344Y34879000D01*
X12871656Y34879000D01*
X13235834Y34951439D01*
X13578882Y35093534D01*
X13887618Y35299825D01*
X14038188Y35450395D01*
X21552000Y35450395D01*
X21677914Y35160423D01*
X22010126Y34994567D01*
X22368312Y34896710D01*
X22738706Y34870611D01*
X23107075Y34917275D01*
X23459262Y35034906D01*
X23694086Y35160423D01*
X23820000Y35450395D01*
X22686000Y36584395D01*
X21552000Y35450395D01*
X14038188Y35450395D01*
X14150175Y35562382D01*
X14356466Y35871118D01*
X14498561Y36214166D01*
X14571000Y36578344D01*
X14571000Y36711294D01*
X20792611Y36711294D01*
X20839275Y36342925D01*
X20956906Y35990738D01*
X21082423Y35755914D01*
X21372395Y35630000D01*
X22506395Y36764000D01*
X22865605Y36764000D01*
X23999605Y35630000D01*
X24289577Y35755914D01*
X24455433Y36088126D01*
X24553290Y36446312D01*
X24579389Y36816706D01*
X24532725Y37185075D01*
X24415094Y37537262D01*
X24396527Y37572000D01*
X36211928Y37572000D01*
X36211928Y35072000D01*
X36224188Y34947518D01*
X36260498Y34827820D01*
X36319463Y34717506D01*
X36398815Y34620815D01*
X36495506Y34541463D01*
X36605820Y34482498D01*
X36725518Y34446188D01*
X36850000Y34433928D01*
X39350000Y34433928D01*
X39474482Y34446188D01*
X39594180Y34482498D01*
X39704494Y34541463D01*
X39801185Y34620815D01*
X39880537Y34717506D01*
X39939502Y34827820D01*
X39975812Y34947518D01*
X39988072Y35072000D01*
X39988072Y36507656D01*
X41215000Y36507656D01*
X41215000Y36136344D01*
X41287439Y35772166D01*
X41429534Y35429118D01*
X41635825Y35120382D01*
X41898382Y34857825D01*
X42207118Y34651534D01*
X42550166Y34509439D01*
X42914344Y34437000D01*
X43285656Y34437000D01*
X43649834Y34509439D01*
X43992882Y34651534D01*
X44301618Y34857825D01*
X44564175Y35120382D01*
X44770466Y35429118D01*
X44912561Y35772166D01*
X44985000Y36136344D01*
X44985000Y36507656D01*
X44912561Y36871834D01*
X44770466Y37214882D01*
X44564175Y37523618D01*
X44301618Y37786175D01*
X43992882Y37992466D01*
X43649834Y38134561D01*
X43285656Y38207000D01*
X42914344Y38207000D01*
X42550166Y38134561D01*
X42207118Y37992466D01*
X41898382Y37786175D01*
X41635825Y37523618D01*
X41429534Y37214882D01*
X41287439Y36871834D01*
X41215000Y36507656D01*
X39988072Y36507656D01*
X39988072Y37572000D01*
X39975812Y37696482D01*
X39939502Y37816180D01*
X39880537Y37926494D01*
X39801185Y38023185D01*
X39704494Y38102537D01*
X39594180Y38161502D01*
X39474482Y38197812D01*
X39350000Y38210072D01*
X36850000Y38210072D01*
X36725518Y38197812D01*
X36605820Y38161502D01*
X36495506Y38102537D01*
X36398815Y38023185D01*
X36319463Y37926494D01*
X36260498Y37816180D01*
X36224188Y37696482D01*
X36211928Y37572000D01*
X24396527Y37572000D01*
X24289577Y37772086D01*
X23999605Y37898000D01*
X22865605Y36764000D01*
X22506395Y36764000D01*
X21372395Y37898000D01*
X21082423Y37772086D01*
X20916567Y37439874D01*
X20818710Y37081688D01*
X20792611Y36711294D01*
X14571000Y36711294D01*
X14571000Y36949656D01*
X14498561Y37313834D01*
X14356466Y37656882D01*
X14150175Y37965618D01*
X14038188Y38077605D01*
X21552000Y38077605D01*
X22686000Y36943605D01*
X23820000Y38077605D01*
X23694086Y38367577D01*
X23361874Y38533433D01*
X23003688Y38631290D01*
X22633294Y38657389D01*
X22264925Y38610725D01*
X21912738Y38493094D01*
X21677914Y38367577D01*
X21552000Y38077605D01*
X14038188Y38077605D01*
X13887618Y38228175D01*
X13578882Y38434466D01*
X13235834Y38576561D01*
X12871656Y38649000D01*
X12500344Y38649000D01*
X12136166Y38576561D01*
X11793118Y38434466D01*
X11484382Y38228175D01*
X11221825Y37965618D01*
X11015534Y37656882D01*
X10873439Y37313834D01*
X10801000Y36949656D01*
X685000Y36949656D01*
X685000Y47256000D01*
X15629928Y47256000D01*
X15642188Y47131518D01*
X15678498Y47011820D01*
X15737463Y46901506D01*
X15816815Y46804815D01*
X15913506Y46725463D01*
X16023820Y46666498D01*
X16143518Y46630188D01*
X16268000Y46617928D01*
X16732250Y46621000D01*
X16891000Y46779750D01*
X16891000Y47879000D01*
X15791750Y47879000D01*
X15633000Y47720250D01*
X15629928Y47256000D01*
X685000Y47256000D01*
X685000Y49655486D01*
X3746500Y49655486D01*
X3746500Y49404515D01*
X3769470Y49171297D01*
X3860245Y48872052D01*
X4007655Y48596266D01*
X4206037Y48354537D01*
X4447765Y48156155D01*
X4723551Y48008745D01*
X5022796Y47917970D01*
X5334000Y47887319D01*
X5645203Y47917970D01*
X5944448Y48008745D01*
X6220234Y48156155D01*
X6461963Y48354537D01*
X6604000Y48527609D01*
X6746037Y48354537D01*
X6987765Y48156155D01*
X7263551Y48008745D01*
X7562796Y47917970D01*
X7874000Y47887319D01*
X8185203Y47917970D01*
X8484448Y48008745D01*
X8760234Y48156155D01*
X8886095Y48259447D01*
X8930963Y48175506D01*
X9010315Y48078815D01*
X9107006Y47999463D01*
X9217320Y47940498D01*
X9337018Y47904188D01*
X9461500Y47891928D01*
X11366500Y47891928D01*
X11490982Y47904188D01*
X11610680Y47940498D01*
X11720994Y47999463D01*
X11817685Y48078815D01*
X11897037Y48175506D01*
X11956002Y48285820D01*
X11992312Y48405518D01*
X12004572Y48530000D01*
X12004572Y48756000D01*
X15629928Y48756000D01*
X15633000Y48291750D01*
X15791750Y48133000D01*
X16891000Y48133000D01*
X16891000Y49232250D01*
X17145000Y49232250D01*
X17145000Y48133000D01*
X17165000Y48133000D01*
X17165000Y47879000D01*
X17145000Y47879000D01*
X17145000Y46779750D01*
X17303750Y46621000D01*
X17768000Y46617928D01*
X17892482Y46630188D01*
X18012180Y46666498D01*
X18122494Y46725463D01*
X18219185Y46804815D01*
X18298537Y46901506D01*
X18357502Y47011820D01*
X18393812Y47131518D01*
X18404445Y47239483D01*
X18482201Y47123114D01*
X18675114Y46930201D01*
X18901957Y46778629D01*
X19154011Y46674225D01*
X19421589Y46621000D01*
X19694411Y46621000D01*
X19961989Y46674225D01*
X20214043Y46778629D01*
X20440886Y46930201D01*
X20633799Y47123114D01*
X20785371Y47349957D01*
X20828000Y47452873D01*
X20870629Y47349957D01*
X21022201Y47123114D01*
X21215114Y46930201D01*
X21441957Y46778629D01*
X21694011Y46674225D01*
X21961589Y46621000D01*
X22234411Y46621000D01*
X22501989Y46674225D01*
X22754043Y46778629D01*
X22980886Y46930201D01*
X23173799Y47123114D01*
X23325371Y47349957D01*
X23429775Y47602011D01*
X23483000Y47869589D01*
X23483000Y47893335D01*
X27267000Y47893335D01*
X27267000Y47610665D01*
X27322147Y47333426D01*
X27430320Y47072273D01*
X27587363Y46837241D01*
X27787241Y46637363D01*
X28022273Y46480320D01*
X28283426Y46372147D01*
X28560665Y46317000D01*
X28843335Y46317000D01*
X29120574Y46372147D01*
X29381727Y46480320D01*
X29616759Y46637363D01*
X29816637Y46837241D01*
X29973680Y47072273D01*
X30081853Y47333426D01*
X30095684Y47402960D01*
X32390091Y47402960D01*
X32484930Y47138119D01*
X32629615Y46896869D01*
X32818586Y46688481D01*
X33044580Y46520963D01*
X33298913Y46400754D01*
X33432961Y46360096D01*
X33655000Y46482085D01*
X33655000Y47625000D01*
X33909000Y47625000D01*
X33909000Y46482085D01*
X34131039Y46360096D01*
X34265087Y46400754D01*
X34519420Y46520963D01*
X34745414Y46688481D01*
X34934385Y46896869D01*
X35079070Y47138119D01*
X35173909Y47402960D01*
X35052624Y47625000D01*
X33909000Y47625000D01*
X33655000Y47625000D01*
X32511376Y47625000D01*
X32390091Y47402960D01*
X30095684Y47402960D01*
X30137000Y47610665D01*
X30137000Y47893335D01*
X30095685Y48101040D01*
X32390091Y48101040D01*
X32511376Y47879000D01*
X33655000Y47879000D01*
X33655000Y49021915D01*
X33909000Y49021915D01*
X33909000Y47879000D01*
X35052624Y47879000D01*
X35173909Y48101040D01*
X35079070Y48365881D01*
X34934385Y48607131D01*
X34745414Y48815519D01*
X34519420Y48983037D01*
X34265087Y49103246D01*
X34131039Y49143904D01*
X33909000Y49021915D01*
X33655000Y49021915D01*
X33432961Y49143904D01*
X33298913Y49103246D01*
X33044580Y48983037D01*
X32818586Y48815519D01*
X32629615Y48607131D01*
X32484930Y48365881D01*
X32390091Y48101040D01*
X30095685Y48101040D01*
X30081853Y48170574D01*
X29973680Y48431727D01*
X29816637Y48666759D01*
X29616759Y48866637D01*
X29381727Y49023680D01*
X29120574Y49131853D01*
X28843335Y49187000D01*
X28560665Y49187000D01*
X28283426Y49131853D01*
X28022273Y49023680D01*
X27787241Y48866637D01*
X27587363Y48666759D01*
X27430320Y48431727D01*
X27322147Y48170574D01*
X27267000Y47893335D01*
X23483000Y47893335D01*
X23483000Y48142411D01*
X23429775Y48409989D01*
X23325371Y48662043D01*
X23173799Y48888886D01*
X22980886Y49081799D01*
X22754043Y49233371D01*
X22501989Y49337775D01*
X22234411Y49391000D01*
X21961589Y49391000D01*
X21694011Y49337775D01*
X21441957Y49233371D01*
X21215114Y49081799D01*
X21022201Y48888886D01*
X20870629Y48662043D01*
X20828000Y48559127D01*
X20785371Y48662043D01*
X20633799Y48888886D01*
X20440886Y49081799D01*
X20214043Y49233371D01*
X19961989Y49337775D01*
X19694411Y49391000D01*
X19421589Y49391000D01*
X19154011Y49337775D01*
X18901957Y49233371D01*
X18675114Y49081799D01*
X18482201Y48888886D01*
X18404445Y48772517D01*
X18393812Y48880482D01*
X18357502Y49000180D01*
X18298537Y49110494D01*
X18219185Y49207185D01*
X18122494Y49286537D01*
X18012180Y49345502D01*
X17892482Y49381812D01*
X17768000Y49394072D01*
X17303750Y49391000D01*
X17145000Y49232250D01*
X16891000Y49232250D01*
X16732250Y49391000D01*
X16268000Y49394072D01*
X16143518Y49381812D01*
X16023820Y49345502D01*
X15913506Y49286537D01*
X15816815Y49207185D01*
X15737463Y49110494D01*
X15678498Y49000180D01*
X15642188Y48880482D01*
X15629928Y48756000D01*
X12004572Y48756000D01*
X12004572Y50530000D01*
X11992312Y50654482D01*
X11956002Y50774180D01*
X11897037Y50884494D01*
X11817685Y50981185D01*
X11720994Y51060537D01*
X11610680Y51119502D01*
X11490982Y51155812D01*
X11366500Y51168072D01*
X9461500Y51168072D01*
X9337018Y51155812D01*
X9217320Y51119502D01*
X9107006Y51060537D01*
X9010315Y50981185D01*
X8930963Y50884494D01*
X8886095Y50800554D01*
X8760235Y50903845D01*
X8484449Y51051255D01*
X8185204Y51142030D01*
X7874000Y51172681D01*
X7562797Y51142030D01*
X7263552Y51051255D01*
X6987766Y50903845D01*
X6746037Y50705463D01*
X6604000Y50532391D01*
X6461963Y50705463D01*
X6220235Y50903845D01*
X5944449Y51051255D01*
X5645204Y51142030D01*
X5334000Y51172681D01*
X5022797Y51142030D01*
X4723552Y51051255D01*
X4447766Y50903845D01*
X4206037Y50705463D01*
X4007655Y50463735D01*
X3860245Y50187949D01*
X3769470Y49888704D01*
X3746500Y49655486D01*
X685000Y49655486D01*
X685000Y55767335D01*
X2629000Y55767335D01*
X2629000Y55484665D01*
X2684147Y55207426D01*
X2792320Y54946273D01*
X2949363Y54711241D01*
X3149241Y54511363D01*
X3384273Y54354320D01*
X3645426Y54246147D01*
X3922665Y54191000D01*
X4205335Y54191000D01*
X4482574Y54246147D01*
X4743727Y54354320D01*
X4978759Y54511363D01*
X5100694Y54633298D01*
X5750903Y54633298D01*
X5822486Y54389329D01*
X6077996Y54268429D01*
X6352184Y54199700D01*
X6634512Y54185783D01*
X6914130Y54227213D01*
X7180292Y54322397D01*
X7305514Y54389329D01*
X7377097Y54633298D01*
X9934903Y54633298D01*
X10006486Y54389329D01*
X10261996Y54268429D01*
X10536184Y54199700D01*
X10818512Y54185783D01*
X11098130Y54227213D01*
X11364292Y54322397D01*
X11489514Y54389329D01*
X11561097Y54633298D01*
X10748000Y55446395D01*
X9934903Y54633298D01*
X7377097Y54633298D01*
X6564000Y55446395D01*
X5750903Y54633298D01*
X5100694Y54633298D01*
X5178637Y54711241D01*
X5312692Y54911869D01*
X5327329Y54884486D01*
X5571298Y54812903D01*
X6384395Y55626000D01*
X6743605Y55626000D01*
X7556702Y54812903D01*
X7800671Y54884486D01*
X7921571Y55139996D01*
X7990300Y55414184D01*
X7997265Y55555488D01*
X9307783Y55555488D01*
X9349213Y55275870D01*
X9444397Y55009708D01*
X9511329Y54884486D01*
X9755298Y54812903D01*
X10568395Y55626000D01*
X10927605Y55626000D01*
X11740702Y54812903D01*
X11984671Y54884486D01*
X12105571Y55139996D01*
X12174300Y55414184D01*
X12188217Y55696512D01*
X12177724Y55767335D01*
X14313000Y55767335D01*
X14313000Y55484665D01*
X14368147Y55207426D01*
X14476320Y54946273D01*
X14633363Y54711241D01*
X14833241Y54511363D01*
X15068273Y54354320D01*
X15329426Y54246147D01*
X15606665Y54191000D01*
X15889335Y54191000D01*
X16166574Y54246147D01*
X16427727Y54354320D01*
X16662759Y54511363D01*
X16862637Y54711241D01*
X17018455Y54944440D01*
X18548045Y54944440D01*
X18609932Y54708632D01*
X18851790Y54595734D01*
X19111027Y54532189D01*
X19377680Y54520439D01*
X19641501Y54560937D01*
X19892353Y54652125D01*
X19998068Y54708632D01*
X20059955Y54944440D01*
X19304000Y55700395D01*
X18548045Y54944440D01*
X17018455Y54944440D01*
X17019680Y54946273D01*
X17127853Y55207426D01*
X17183000Y55484665D01*
X17183000Y55767335D01*
X17175246Y55806320D01*
X17944439Y55806320D01*
X17984937Y55542499D01*
X18076125Y55291647D01*
X18132632Y55185932D01*
X18368440Y55124045D01*
X19124395Y55880000D01*
X19483605Y55880000D01*
X20239560Y55124045D01*
X20475368Y55185932D01*
X20588266Y55427790D01*
X20651811Y55687027D01*
X20663561Y55953680D01*
X20623063Y56217501D01*
X20531875Y56468353D01*
X20475368Y56574068D01*
X20239560Y56635955D01*
X19483605Y55880000D01*
X19124395Y55880000D01*
X18368440Y56635955D01*
X18132632Y56574068D01*
X18019734Y56332210D01*
X17956189Y56072973D01*
X17944439Y55806320D01*
X17175246Y55806320D01*
X17127853Y56044574D01*
X17019680Y56305727D01*
X16862637Y56540759D01*
X16662759Y56740637D01*
X16550629Y56815560D01*
X18548045Y56815560D01*
X19304000Y56059605D01*
X20059955Y56815560D01*
X19998068Y57051368D01*
X19756210Y57164266D01*
X19496973Y57227811D01*
X19230320Y57239561D01*
X18966499Y57199063D01*
X18715647Y57107875D01*
X18609932Y57051368D01*
X18548045Y56815560D01*
X16550629Y56815560D01*
X16427727Y56897680D01*
X16166574Y57005853D01*
X15889335Y57061000D01*
X15606665Y57061000D01*
X15329426Y57005853D01*
X15068273Y56897680D01*
X14833241Y56740637D01*
X14633363Y56540759D01*
X14476320Y56305727D01*
X14368147Y56044574D01*
X14313000Y55767335D01*
X12177724Y55767335D01*
X12146787Y55976130D01*
X12051603Y56242292D01*
X11984671Y56367514D01*
X11740702Y56439097D01*
X10927605Y55626000D01*
X10568395Y55626000D01*
X9755298Y56439097D01*
X9511329Y56367514D01*
X9390429Y56112004D01*
X9321700Y55837816D01*
X9307783Y55555488D01*
X7997265Y55555488D01*
X8004217Y55696512D01*
X7962787Y55976130D01*
X7867603Y56242292D01*
X7800671Y56367514D01*
X7556702Y56439097D01*
X6743605Y55626000D01*
X6384395Y55626000D01*
X5571298Y56439097D01*
X5327329Y56367514D01*
X5313676Y56338659D01*
X5178637Y56540759D01*
X5100694Y56618702D01*
X5750903Y56618702D01*
X6564000Y55805605D01*
X7377097Y56618702D01*
X9934903Y56618702D01*
X10748000Y55805605D01*
X11561097Y56618702D01*
X11489514Y56862671D01*
X11234004Y56983571D01*
X10959816Y57052300D01*
X10677488Y57066217D01*
X10397870Y57024787D01*
X10131708Y56929603D01*
X10006486Y56862671D01*
X9934903Y56618702D01*
X7377097Y56618702D01*
X7305514Y56862671D01*
X7050004Y56983571D01*
X6775816Y57052300D01*
X6493488Y57066217D01*
X6213870Y57024787D01*
X5947708Y56929603D01*
X5822486Y56862671D01*
X5750903Y56618702D01*
X5100694Y56618702D01*
X4978759Y56740637D01*
X4743727Y56897680D01*
X4482574Y57005853D01*
X4205335Y57061000D01*
X3922665Y57061000D01*
X3645426Y57005853D01*
X3384273Y56897680D01*
X3149241Y56740637D01*
X2949363Y56540759D01*
X2792320Y56305727D01*
X2684147Y56044574D01*
X2629000Y55767335D01*
X685000Y55767335D01*
X685000Y57484440D01*
X21088045Y57484440D01*
X21149932Y57248632D01*
X21391790Y57135734D01*
X21651027Y57072189D01*
X21917680Y57060439D01*
X22181501Y57100937D01*
X22432353Y57192125D01*
X22538068Y57248632D01*
X22599955Y57484440D01*
X21844000Y58240395D01*
X21088045Y57484440D01*
X685000Y57484440D01*
X685000Y58346320D01*
X20484439Y58346320D01*
X20524937Y58082499D01*
X20616125Y57831647D01*
X20672632Y57725932D01*
X20908440Y57664045D01*
X21664395Y58420000D01*
X22023605Y58420000D01*
X22779560Y57664045D01*
X23015368Y57725932D01*
X23102223Y57912000D01*
X27260057Y57912000D01*
X27287764Y57630691D01*
X27369818Y57360192D01*
X27503068Y57110899D01*
X27682392Y56892392D01*
X27900899Y56713068D01*
X28150192Y56579818D01*
X28420691Y56497764D01*
X28631508Y56477000D01*
X28772492Y56477000D01*
X28983309Y56497764D01*
X29253808Y56579818D01*
X29503101Y56713068D01*
X29721608Y56892392D01*
X29900932Y57110899D01*
X30034182Y57360192D01*
X30116236Y57630691D01*
X30143943Y57912000D01*
X30130023Y58053335D01*
X32347000Y58053335D01*
X32347000Y57770665D01*
X32402147Y57493426D01*
X32510320Y57232273D01*
X32667363Y56997241D01*
X32867241Y56797363D01*
X33102273Y56640320D01*
X33363426Y56532147D01*
X33640665Y56477000D01*
X33923335Y56477000D01*
X34200574Y56532147D01*
X34461727Y56640320D01*
X34696759Y56797363D01*
X34896637Y56997241D01*
X35053680Y57232273D01*
X35161853Y57493426D01*
X35217000Y57770665D01*
X35217000Y58053335D01*
X35161853Y58330574D01*
X35053680Y58591727D01*
X34896637Y58826759D01*
X34696759Y59026637D01*
X34461727Y59183680D01*
X34200574Y59291853D01*
X33923335Y59347000D01*
X33640665Y59347000D01*
X33363426Y59291853D01*
X33102273Y59183680D01*
X32867241Y59026637D01*
X32667363Y58826759D01*
X32510320Y58591727D01*
X32402147Y58330574D01*
X32347000Y58053335D01*
X30130023Y58053335D01*
X30116236Y58193309D01*
X30034182Y58463808D01*
X29900932Y58713101D01*
X29721608Y58931608D01*
X29503101Y59110932D01*
X29253808Y59244182D01*
X28983309Y59326236D01*
X28772492Y59347000D01*
X28631508Y59347000D01*
X28420691Y59326236D01*
X28150192Y59244182D01*
X27900899Y59110932D01*
X27682392Y58931608D01*
X27503068Y58713101D01*
X27369818Y58463808D01*
X27287764Y58193309D01*
X27260057Y57912000D01*
X23102223Y57912000D01*
X23128266Y57967790D01*
X23191811Y58227027D01*
X23203561Y58493680D01*
X23163063Y58757501D01*
X23071875Y59008353D01*
X23015368Y59114068D01*
X22779560Y59175955D01*
X22023605Y58420000D01*
X21664395Y58420000D01*
X20908440Y59175955D01*
X20672632Y59114068D01*
X20559734Y58872210D01*
X20496189Y58612973D01*
X20484439Y58346320D01*
X685000Y58346320D01*
X685000Y59355560D01*
X21088045Y59355560D01*
X21844000Y58599605D01*
X22599955Y59355560D01*
X22538068Y59591368D01*
X22296210Y59704266D01*
X22036973Y59767811D01*
X21770320Y59779561D01*
X21506499Y59739063D01*
X21255647Y59647875D01*
X21149932Y59591368D01*
X21088045Y59355560D01*
X685000Y59355560D01*
X685000Y61355335D01*
X3391000Y61355335D01*
X3391000Y61072665D01*
X3446147Y60795426D01*
X3554320Y60534273D01*
X3711363Y60299241D01*
X3911241Y60099363D01*
X4146273Y59942320D01*
X4407426Y59834147D01*
X4684665Y59779000D01*
X4967335Y59779000D01*
X5244574Y59834147D01*
X5505727Y59942320D01*
X5740759Y60099363D01*
X5940637Y60299241D01*
X6097680Y60534273D01*
X6205853Y60795426D01*
X6261000Y61072665D01*
X6261000Y61214000D01*
X13544057Y61214000D01*
X13571764Y60932691D01*
X13653818Y60662192D01*
X13787068Y60412899D01*
X13966392Y60194392D01*
X14184899Y60015068D01*
X14434192Y59881818D01*
X14704691Y59799764D01*
X14915508Y59779000D01*
X15056492Y59779000D01*
X15267309Y59799764D01*
X15537808Y59881818D01*
X15787101Y60015068D01*
X16005608Y60194392D01*
X16184932Y60412899D01*
X16318182Y60662192D01*
X16400236Y60932691D01*
X16416070Y61093456D01*
X17949000Y61093456D01*
X17949000Y60826544D01*
X18001072Y60564761D01*
X18103215Y60318167D01*
X18251503Y60096238D01*
X18440238Y59907503D01*
X18662167Y59759215D01*
X18908761Y59657072D01*
X19170544Y59605000D01*
X19437456Y59605000D01*
X19699239Y59657072D01*
X19945833Y59759215D01*
X20167762Y59907503D01*
X20356497Y60096238D01*
X20504785Y60318167D01*
X20606928Y60564761D01*
X20659000Y60826544D01*
X20659000Y61093456D01*
X20606928Y61355239D01*
X20504785Y61601833D01*
X20356497Y61823762D01*
X20167762Y62012497D01*
X20090683Y62064000D01*
X27213928Y62064000D01*
X27213928Y60364000D01*
X27226188Y60239518D01*
X27262498Y60119820D01*
X27321463Y60009506D01*
X27400815Y59912815D01*
X27497506Y59833463D01*
X27607820Y59774498D01*
X27727518Y59738188D01*
X27852000Y59725928D01*
X29552000Y59725928D01*
X29676482Y59738188D01*
X29796180Y59774498D01*
X29906494Y59833463D01*
X30003185Y59912815D01*
X30082537Y60009506D01*
X30141502Y60119820D01*
X30162393Y60188687D01*
X30186866Y60158866D01*
X30412986Y59973294D01*
X30670966Y59835401D01*
X30950889Y59750487D01*
X31169050Y59729000D01*
X31314950Y59729000D01*
X31533111Y59750487D01*
X31813034Y59835401D01*
X32071014Y59973294D01*
X32297134Y60158866D01*
X32482706Y60384986D01*
X32512000Y60439791D01*
X32541294Y60384986D01*
X32726866Y60158866D01*
X32952986Y59973294D01*
X33210966Y59835401D01*
X33490889Y59750487D01*
X33709050Y59729000D01*
X33854950Y59729000D01*
X34073111Y59750487D01*
X34353034Y59835401D01*
X34611014Y59973294D01*
X34837134Y60158866D01*
X35022706Y60384986D01*
X35160599Y60642966D01*
X35245513Y60922889D01*
X35274185Y61214000D01*
X35245513Y61505111D01*
X35229700Y61557242D01*
X51887000Y61557242D01*
X51887000Y60870758D01*
X52020927Y60197463D01*
X52283633Y59563234D01*
X52665024Y58992442D01*
X53150442Y58507024D01*
X53721234Y58125633D01*
X54355463Y57862927D01*
X55028758Y57729000D01*
X55715242Y57729000D01*
X56388537Y57862927D01*
X57022766Y58125633D01*
X57593558Y58507024D01*
X58078976Y58992442D01*
X58460367Y59563234D01*
X58723073Y60197463D01*
X58857000Y60870758D01*
X58857000Y61557242D01*
X58723073Y62230537D01*
X58460367Y62864766D01*
X58078976Y63435558D01*
X57593558Y63920976D01*
X57022766Y64302367D01*
X56388537Y64565073D01*
X55715242Y64699000D01*
X55028758Y64699000D01*
X54355463Y64565073D01*
X53721234Y64302367D01*
X53150442Y63920976D01*
X52665024Y63435558D01*
X52283633Y62864766D01*
X52020927Y62230537D01*
X51887000Y61557242D01*
X35229700Y61557242D01*
X35160599Y61785034D01*
X35022706Y62043014D01*
X34837134Y62269134D01*
X34611014Y62454706D01*
X34353034Y62592599D01*
X34073111Y62677513D01*
X33854950Y62699000D01*
X33709050Y62699000D01*
X33490889Y62677513D01*
X33210966Y62592599D01*
X32952986Y62454706D01*
X32726866Y62269134D01*
X32541294Y62043014D01*
X32512000Y61988209D01*
X32482706Y62043014D01*
X32297134Y62269134D01*
X32071014Y62454706D01*
X31813034Y62592599D01*
X31533111Y62677513D01*
X31314950Y62699000D01*
X31169050Y62699000D01*
X30950889Y62677513D01*
X30670966Y62592599D01*
X30412986Y62454706D01*
X30186866Y62269134D01*
X30162393Y62239313D01*
X30141502Y62308180D01*
X30082537Y62418494D01*
X30003185Y62515185D01*
X29906494Y62594537D01*
X29796180Y62653502D01*
X29676482Y62689812D01*
X29552000Y62702072D01*
X27852000Y62702072D01*
X27727518Y62689812D01*
X27607820Y62653502D01*
X27497506Y62594537D01*
X27400815Y62515185D01*
X27321463Y62418494D01*
X27262498Y62308180D01*
X27226188Y62188482D01*
X27213928Y62064000D01*
X20090683Y62064000D01*
X19945833Y62160785D01*
X19699239Y62262928D01*
X19437456Y62315000D01*
X19170544Y62315000D01*
X18908761Y62262928D01*
X18662167Y62160785D01*
X18440238Y62012497D01*
X18251503Y61823762D01*
X18103215Y61601833D01*
X18001072Y61355239D01*
X17949000Y61093456D01*
X16416070Y61093456D01*
X16427943Y61214000D01*
X16400236Y61495309D01*
X16318182Y61765808D01*
X16184932Y62015101D01*
X16005608Y62233608D01*
X15787101Y62412932D01*
X15537808Y62546182D01*
X15267309Y62628236D01*
X15056492Y62649000D01*
X14915508Y62649000D01*
X14704691Y62628236D01*
X14434192Y62546182D01*
X14184899Y62412932D01*
X13966392Y62233608D01*
X13787068Y62015101D01*
X13653818Y61765808D01*
X13571764Y61495309D01*
X13544057Y61214000D01*
X6261000Y61214000D01*
X6261000Y61355335D01*
X6205853Y61632574D01*
X6097680Y61893727D01*
X5940637Y62128759D01*
X5740759Y62328637D01*
X5505727Y62485680D01*
X5244574Y62593853D01*
X4967335Y62649000D01*
X4684665Y62649000D01*
X4407426Y62593853D01*
X4146273Y62485680D01*
X3911241Y62328637D01*
X3711363Y62128759D01*
X3554320Y61893727D01*
X3446147Y61632574D01*
X3391000Y61355335D01*
X685000Y61355335D01*
X685000Y67701592D01*
X11049000Y67701592D01*
X11049000Y67426408D01*
X11102686Y67156510D01*
X11207995Y66902273D01*
X11360880Y66673465D01*
X11555465Y66478880D01*
X11784273Y66325995D01*
X12038510Y66220686D01*
X12308408Y66167000D01*
X12583592Y66167000D01*
X12853490Y66220686D01*
X13107727Y66325995D01*
X13336535Y66478880D01*
X13531120Y66673465D01*
X13684005Y66902273D01*
X13716000Y66979515D01*
X13747995Y66902273D01*
X13900880Y66673465D01*
X14095465Y66478880D01*
X14324273Y66325995D01*
X14578510Y66220686D01*
X14848408Y66167000D01*
X15123592Y66167000D01*
X15393490Y66220686D01*
X15647727Y66325995D01*
X15876535Y66478880D01*
X16071120Y66673465D01*
X16224005Y66902273D01*
X16256000Y66979515D01*
X16287995Y66902273D01*
X16440880Y66673465D01*
X16635465Y66478880D01*
X16864273Y66325995D01*
X17118510Y66220686D01*
X17388408Y66167000D01*
X17663592Y66167000D01*
X17933490Y66220686D01*
X18187727Y66325995D01*
X18416535Y66478880D01*
X18536090Y66598435D01*
X19280040Y66598435D01*
X19347020Y66358344D01*
X19596048Y66241244D01*
X19863135Y66174977D01*
X20138017Y66162090D01*
X20410133Y66203078D01*
X20669023Y66296364D01*
X20784980Y66358344D01*
X20851960Y66598435D01*
X20066000Y67384395D01*
X19280040Y66598435D01*
X18536090Y66598435D01*
X18611120Y66673465D01*
X18764005Y66902273D01*
X18793692Y66973943D01*
X18798364Y66960977D01*
X18860344Y66845020D01*
X19100435Y66778040D01*
X19886395Y67564000D01*
X20245605Y67564000D01*
X21031565Y66778040D01*
X21271656Y66845020D01*
X21335485Y66980760D01*
X21367995Y66902273D01*
X21520880Y66673465D01*
X21715465Y66478880D01*
X21944273Y66325995D01*
X22198510Y66220686D01*
X22468408Y66167000D01*
X22743592Y66167000D01*
X23013490Y66220686D01*
X23267727Y66325995D01*
X23496535Y66478880D01*
X23691120Y66673465D01*
X23844005Y66902273D01*
X23876000Y66979515D01*
X23907995Y66902273D01*
X24060880Y66673465D01*
X24255465Y66478880D01*
X24484273Y66325995D01*
X24738510Y66220686D01*
X25008408Y66167000D01*
X25283592Y66167000D01*
X25553490Y66220686D01*
X25807727Y66325995D01*
X26036535Y66478880D01*
X26231120Y66673465D01*
X26384005Y66902273D01*
X26416000Y66979515D01*
X26447995Y66902273D01*
X26600880Y66673465D01*
X26795465Y66478880D01*
X27024273Y66325995D01*
X27278510Y66220686D01*
X27548408Y66167000D01*
X27823592Y66167000D01*
X28093490Y66220686D01*
X28347727Y66325995D01*
X28576535Y66478880D01*
X28771120Y66673465D01*
X28924005Y66902273D01*
X28956000Y66979515D01*
X28987995Y66902273D01*
X29140880Y66673465D01*
X29335465Y66478880D01*
X29564273Y66325995D01*
X29818510Y66220686D01*
X30088408Y66167000D01*
X30363592Y66167000D01*
X30633490Y66220686D01*
X30887727Y66325995D01*
X31116535Y66478880D01*
X31311120Y66673465D01*
X31464005Y66902273D01*
X31496000Y66979515D01*
X31527995Y66902273D01*
X31680880Y66673465D01*
X31875465Y66478880D01*
X32104273Y66325995D01*
X32358510Y66220686D01*
X32628408Y66167000D01*
X32903592Y66167000D01*
X33173490Y66220686D01*
X33427727Y66325995D01*
X33656535Y66478880D01*
X33851120Y66673465D01*
X34004005Y66902273D01*
X34036000Y66979515D01*
X34067995Y66902273D01*
X34220880Y66673465D01*
X34415465Y66478880D01*
X34644273Y66325995D01*
X34898510Y66220686D01*
X35168408Y66167000D01*
X35443592Y66167000D01*
X35713490Y66220686D01*
X35967727Y66325995D01*
X36196535Y66478880D01*
X36391120Y66673465D01*
X36544005Y66902273D01*
X36576000Y66979515D01*
X36607995Y66902273D01*
X36760880Y66673465D01*
X36955465Y66478880D01*
X37184273Y66325995D01*
X37438510Y66220686D01*
X37708408Y66167000D01*
X37983592Y66167000D01*
X38253490Y66220686D01*
X38507727Y66325995D01*
X38736535Y66478880D01*
X38931120Y66673465D01*
X39084005Y66902273D01*
X39116000Y66979515D01*
X39147995Y66902273D01*
X39300880Y66673465D01*
X39495465Y66478880D01*
X39724273Y66325995D01*
X39978510Y66220686D01*
X40248408Y66167000D01*
X40523592Y66167000D01*
X40793490Y66220686D01*
X41047727Y66325995D01*
X41276535Y66478880D01*
X41471120Y66673465D01*
X41624005Y66902273D01*
X41729314Y67156510D01*
X41783000Y67426408D01*
X41783000Y67701592D01*
X41729314Y67971490D01*
X41624005Y68225727D01*
X41471120Y68454535D01*
X41276535Y68649120D01*
X41047727Y68802005D01*
X40793490Y68907314D01*
X40523592Y68961000D01*
X40248408Y68961000D01*
X39978510Y68907314D01*
X39724273Y68802005D01*
X39495465Y68649120D01*
X39300880Y68454535D01*
X39147995Y68225727D01*
X39116000Y68148485D01*
X39084005Y68225727D01*
X38931120Y68454535D01*
X38736535Y68649120D01*
X38507727Y68802005D01*
X38253490Y68907314D01*
X37983592Y68961000D01*
X37708408Y68961000D01*
X37438510Y68907314D01*
X37184273Y68802005D01*
X36955465Y68649120D01*
X36760880Y68454535D01*
X36607995Y68225727D01*
X36576000Y68148485D01*
X36544005Y68225727D01*
X36391120Y68454535D01*
X36196535Y68649120D01*
X35967727Y68802005D01*
X35713490Y68907314D01*
X35443592Y68961000D01*
X35168408Y68961000D01*
X34898510Y68907314D01*
X34644273Y68802005D01*
X34415465Y68649120D01*
X34220880Y68454535D01*
X34067995Y68225727D01*
X34036000Y68148485D01*
X34004005Y68225727D01*
X33851120Y68454535D01*
X33656535Y68649120D01*
X33427727Y68802005D01*
X33173490Y68907314D01*
X32903592Y68961000D01*
X32628408Y68961000D01*
X32358510Y68907314D01*
X32104273Y68802005D01*
X31875465Y68649120D01*
X31680880Y68454535D01*
X31527995Y68225727D01*
X31496000Y68148485D01*
X31464005Y68225727D01*
X31311120Y68454535D01*
X31116535Y68649120D01*
X30887727Y68802005D01*
X30633490Y68907314D01*
X30363592Y68961000D01*
X30088408Y68961000D01*
X29818510Y68907314D01*
X29564273Y68802005D01*
X29335465Y68649120D01*
X29140880Y68454535D01*
X28987995Y68225727D01*
X28956000Y68148485D01*
X28924005Y68225727D01*
X28771120Y68454535D01*
X28576535Y68649120D01*
X28347727Y68802005D01*
X28093490Y68907314D01*
X27823592Y68961000D01*
X27548408Y68961000D01*
X27278510Y68907314D01*
X27024273Y68802005D01*
X26795465Y68649120D01*
X26600880Y68454535D01*
X26447995Y68225727D01*
X26416000Y68148485D01*
X26384005Y68225727D01*
X26231120Y68454535D01*
X26036535Y68649120D01*
X25807727Y68802005D01*
X25553490Y68907314D01*
X25283592Y68961000D01*
X25008408Y68961000D01*
X24738510Y68907314D01*
X24484273Y68802005D01*
X24255465Y68649120D01*
X24060880Y68454535D01*
X23907995Y68225727D01*
X23876000Y68148485D01*
X23844005Y68225727D01*
X23691120Y68454535D01*
X23496535Y68649120D01*
X23267727Y68802005D01*
X23013490Y68907314D01*
X22743592Y68961000D01*
X22468408Y68961000D01*
X22198510Y68907314D01*
X21944273Y68802005D01*
X21715465Y68649120D01*
X21520880Y68454535D01*
X21367995Y68225727D01*
X21338308Y68154057D01*
X21333636Y68167023D01*
X21271656Y68282980D01*
X21031565Y68349960D01*
X20245605Y67564000D01*
X19886395Y67564000D01*
X19100435Y68349960D01*
X18860344Y68282980D01*
X18796515Y68147240D01*
X18764005Y68225727D01*
X18611120Y68454535D01*
X18536090Y68529565D01*
X19280040Y68529565D01*
X20066000Y67743605D01*
X20851960Y68529565D01*
X20784980Y68769656D01*
X20535952Y68886756D01*
X20268865Y68953023D01*
X19993983Y68965910D01*
X19721867Y68924922D01*
X19462977Y68831636D01*
X19347020Y68769656D01*
X19280040Y68529565D01*
X18536090Y68529565D01*
X18416535Y68649120D01*
X18187727Y68802005D01*
X17933490Y68907314D01*
X17663592Y68961000D01*
X17388408Y68961000D01*
X17118510Y68907314D01*
X16864273Y68802005D01*
X16635465Y68649120D01*
X16440880Y68454535D01*
X16287995Y68225727D01*
X16256000Y68148485D01*
X16224005Y68225727D01*
X16071120Y68454535D01*
X15876535Y68649120D01*
X15647727Y68802005D01*
X15393490Y68907314D01*
X15123592Y68961000D01*
X14848408Y68961000D01*
X14578510Y68907314D01*
X14324273Y68802005D01*
X14095465Y68649120D01*
X13900880Y68454535D01*
X13747995Y68225727D01*
X13716000Y68148485D01*
X13684005Y68225727D01*
X13531120Y68454535D01*
X13336535Y68649120D01*
X13107727Y68802005D01*
X12853490Y68907314D01*
X12583592Y68961000D01*
X12308408Y68961000D01*
X12038510Y68907314D01*
X11784273Y68802005D01*
X11555465Y68649120D01*
X11360880Y68454535D01*
X11207995Y68225727D01*
X11102686Y67971490D01*
X11049000Y67701592D01*
X685000Y67701592D01*
X685000Y76289242D01*
X1341000Y76289242D01*
X1341000Y75602758D01*
X1474927Y74929463D01*
X1737633Y74295234D01*
X2119024Y73724442D01*
X2604442Y73239024D01*
X3175234Y72857633D01*
X3809463Y72594927D01*
X4482758Y72461000D01*
X5169242Y72461000D01*
X5842537Y72594927D01*
X6476766Y72857633D01*
X7047558Y73239024D01*
X7532976Y73724442D01*
X7914367Y74295234D01*
X8177073Y74929463D01*
X8300463Y75549788D01*
X41791000Y75549788D01*
X41791000Y75326212D01*
X41834617Y75106933D01*
X41920176Y74900376D01*
X42044388Y74714480D01*
X42202480Y74556388D01*
X42388376Y74432176D01*
X42594933Y74346617D01*
X42814212Y74303000D01*
X43037788Y74303000D01*
X43257067Y74346617D01*
X43463624Y74432176D01*
X43644450Y74553000D01*
X48303550Y74553000D01*
X48484376Y74432176D01*
X48690933Y74346617D01*
X48910212Y74303000D01*
X49133788Y74303000D01*
X49353067Y74346617D01*
X49559624Y74432176D01*
X49745520Y74556388D01*
X49903612Y74714480D01*
X50027824Y74900376D01*
X50113383Y75106933D01*
X50157000Y75326212D01*
X50157000Y75549788D01*
X50113383Y75769067D01*
X50036791Y75953976D01*
X50143166Y75932817D01*
X50366742Y75932817D01*
X50586021Y75976434D01*
X50792578Y76061993D01*
X50978474Y76186205D01*
X51136566Y76344297D01*
X51260778Y76530193D01*
X51346337Y76736750D01*
X51389954Y76956029D01*
X51389954Y77179605D01*
X51355862Y77351000D01*
X51419788Y77351000D01*
X51639067Y77394617D01*
X51845624Y77480176D01*
X52031520Y77604388D01*
X52189612Y77762480D01*
X52313824Y77948376D01*
X52399383Y78154933D01*
X52443000Y78374212D01*
X52443000Y78597788D01*
X52399383Y78817067D01*
X52313824Y79023624D01*
X52209245Y79180137D01*
X52391014Y79277294D01*
X52617134Y79462866D01*
X52802706Y79688986D01*
X52832000Y79743791D01*
X52861294Y79688986D01*
X53046866Y79462866D01*
X53272986Y79277294D01*
X53530966Y79139401D01*
X53810889Y79054487D01*
X54029050Y79033000D01*
X54174950Y79033000D01*
X54393111Y79054487D01*
X54673034Y79139401D01*
X54931014Y79277294D01*
X55157134Y79462866D01*
X55342706Y79688986D01*
X55372000Y79743791D01*
X55401294Y79688986D01*
X55586866Y79462866D01*
X55812986Y79277294D01*
X56070966Y79139401D01*
X56350889Y79054487D01*
X56569050Y79033000D01*
X56714950Y79033000D01*
X56933111Y79054487D01*
X57213034Y79139401D01*
X57471014Y79277294D01*
X57697134Y79462866D01*
X57882706Y79688986D01*
X57912000Y79743791D01*
X57941294Y79688986D01*
X58126866Y79462866D01*
X58352986Y79277294D01*
X58610966Y79139401D01*
X58890889Y79054487D01*
X59109050Y79033000D01*
X59254950Y79033000D01*
X59473111Y79054487D01*
X59753034Y79139401D01*
X60011014Y79277294D01*
X60237134Y79462866D01*
X60422706Y79688986D01*
X60560599Y79946966D01*
X60645513Y80226889D01*
X60674185Y80518000D01*
X60645513Y80809111D01*
X60560599Y81089034D01*
X60422706Y81347014D01*
X60237134Y81573134D01*
X60207313Y81597607D01*
X60276180Y81618498D01*
X60386494Y81677463D01*
X60483185Y81756815D01*
X60562537Y81853506D01*
X60621502Y81963820D01*
X60657812Y82083518D01*
X60670072Y82208000D01*
X60667000Y82772250D01*
X60508250Y82931000D01*
X59309000Y82931000D01*
X59309000Y82911000D01*
X59055000Y82911000D01*
X59055000Y82931000D01*
X59035000Y82931000D01*
X59035000Y83185000D01*
X59055000Y83185000D01*
X59055000Y84384250D01*
X59309000Y84384250D01*
X59309000Y83185000D01*
X60508250Y83185000D01*
X60667000Y83343750D01*
X60670072Y83908000D01*
X60657812Y84032482D01*
X60621502Y84152180D01*
X60562537Y84262494D01*
X60483185Y84359185D01*
X60386494Y84438537D01*
X60276180Y84497502D01*
X60156482Y84533812D01*
X60032000Y84546072D01*
X59467750Y84543000D01*
X59309000Y84384250D01*
X59055000Y84384250D01*
X58896250Y84543000D01*
X58332000Y84546072D01*
X58207518Y84533812D01*
X58087820Y84497502D01*
X57977506Y84438537D01*
X57880815Y84359185D01*
X57801463Y84262494D01*
X57742498Y84152180D01*
X57721607Y84083313D01*
X57697134Y84113134D01*
X57471014Y84298706D01*
X57213034Y84436599D01*
X56933111Y84521513D01*
X56714950Y84543000D01*
X56569050Y84543000D01*
X56350889Y84521513D01*
X56070966Y84436599D01*
X55812986Y84298706D01*
X55586866Y84113134D01*
X55401294Y83887014D01*
X55372000Y83832209D01*
X55342706Y83887014D01*
X55157134Y84113134D01*
X54931014Y84298706D01*
X54673034Y84436599D01*
X54393111Y84521513D01*
X54174950Y84543000D01*
X54029050Y84543000D01*
X53810889Y84521513D01*
X53530966Y84436599D01*
X53272986Y84298706D01*
X53046866Y84113134D01*
X52861294Y83887014D01*
X52832000Y83832209D01*
X52802706Y83887014D01*
X52617134Y84113134D01*
X52391014Y84298706D01*
X52133034Y84436599D01*
X51853111Y84521513D01*
X51634950Y84543000D01*
X51489050Y84543000D01*
X51270889Y84521513D01*
X50990966Y84436599D01*
X50732986Y84298706D01*
X50506866Y84113134D01*
X50321294Y83887014D01*
X50183401Y83629034D01*
X50098487Y83349111D01*
X50069815Y83058000D01*
X50098487Y82766889D01*
X50183401Y82486966D01*
X50321294Y82228986D01*
X50506866Y82002866D01*
X50732986Y81817294D01*
X50787791Y81788000D01*
X50732986Y81758706D01*
X50506866Y81573134D01*
X50321294Y81347014D01*
X50183401Y81089034D01*
X50130601Y80914977D01*
X49139811Y81905768D01*
X49097383Y82119067D01*
X49011824Y82325624D01*
X48887612Y82511520D01*
X48729520Y82669612D01*
X48543624Y82793824D01*
X48337067Y82879383D01*
X48117788Y82923000D01*
X47894212Y82923000D01*
X47674933Y82879383D01*
X47468376Y82793824D01*
X47282480Y82669612D01*
X47124388Y82511520D01*
X47000176Y82325624D01*
X46914617Y82119067D01*
X46871000Y81899788D01*
X46871000Y81676212D01*
X46914617Y81456933D01*
X46946771Y81379307D01*
X46847788Y81398996D01*
X46624212Y81398996D01*
X46404933Y81355379D01*
X46198376Y81269820D01*
X46012480Y81145608D01*
X45854388Y80987516D01*
X45730176Y80801620D01*
X45644617Y80595063D01*
X45601000Y80375784D01*
X45601000Y80152208D01*
X45644617Y79932929D01*
X45730176Y79726372D01*
X45854388Y79540476D01*
X46012480Y79382384D01*
X46198376Y79258172D01*
X46404933Y79172613D01*
X46502627Y79153181D01*
X49082807Y76573000D01*
X48910212Y76573000D01*
X48690933Y76529383D01*
X48484376Y76443824D01*
X48303550Y76323000D01*
X43644450Y76323000D01*
X43463624Y76443824D01*
X43257067Y76529383D01*
X43037788Y76573000D01*
X42814212Y76573000D01*
X42594933Y76529383D01*
X42388376Y76443824D01*
X42202480Y76319612D01*
X42044388Y76161520D01*
X41920176Y75975624D01*
X41834617Y75769067D01*
X41791000Y75549788D01*
X8300463Y75549788D01*
X8311000Y75602758D01*
X8311000Y76289242D01*
X8177073Y76962537D01*
X7914367Y77596766D01*
X7532976Y78167558D01*
X7047558Y78652976D01*
X6476766Y79034367D01*
X5842537Y79297073D01*
X5169242Y79431000D01*
X4482758Y79431000D01*
X3809463Y79297073D01*
X3175234Y79034367D01*
X2604442Y78652976D01*
X2119024Y78167558D01*
X1737633Y77596766D01*
X1474927Y76962537D01*
X1341000Y76289242D01*
X685000Y76289242D01*
X685000Y82941592D01*
X11049000Y82941592D01*
X11049000Y82666408D01*
X11102686Y82396510D01*
X11207995Y82142273D01*
X11360880Y81913465D01*
X11555465Y81718880D01*
X11784273Y81565995D01*
X12038510Y81460686D01*
X12308408Y81407000D01*
X12583592Y81407000D01*
X12853490Y81460686D01*
X13107727Y81565995D01*
X13336535Y81718880D01*
X13456090Y81838435D01*
X14200040Y81838435D01*
X14267020Y81598344D01*
X14516048Y81481244D01*
X14783135Y81414977D01*
X15058017Y81402090D01*
X15330133Y81443078D01*
X15589023Y81536364D01*
X15704980Y81598344D01*
X15771960Y81838435D01*
X14986000Y82624395D01*
X14200040Y81838435D01*
X13456090Y81838435D01*
X13531120Y81913465D01*
X13684005Y82142273D01*
X13713692Y82213943D01*
X13718364Y82200977D01*
X13780344Y82085020D01*
X14020435Y82018040D01*
X14806395Y82804000D01*
X15165605Y82804000D01*
X15951565Y82018040D01*
X16191656Y82085020D01*
X16255485Y82220760D01*
X16287995Y82142273D01*
X16440880Y81913465D01*
X16635465Y81718880D01*
X16864273Y81565995D01*
X17118510Y81460686D01*
X17388408Y81407000D01*
X17663592Y81407000D01*
X17933490Y81460686D01*
X18187727Y81565995D01*
X18416535Y81718880D01*
X18611120Y81913465D01*
X18764005Y82142273D01*
X18796000Y82219515D01*
X18827995Y82142273D01*
X18980880Y81913465D01*
X19175465Y81718880D01*
X19404273Y81565995D01*
X19658510Y81460686D01*
X19928408Y81407000D01*
X20203592Y81407000D01*
X20473490Y81460686D01*
X20727727Y81565995D01*
X20956535Y81718880D01*
X21151120Y81913465D01*
X21304005Y82142273D01*
X21336000Y82219515D01*
X21367995Y82142273D01*
X21520880Y81913465D01*
X21715465Y81718880D01*
X21944273Y81565995D01*
X22198510Y81460686D01*
X22468408Y81407000D01*
X22743592Y81407000D01*
X23013490Y81460686D01*
X23267727Y81565995D01*
X23496535Y81718880D01*
X23691120Y81913465D01*
X23844005Y82142273D01*
X23876000Y82219515D01*
X23907995Y82142273D01*
X24060880Y81913465D01*
X24255465Y81718880D01*
X24484273Y81565995D01*
X24738510Y81460686D01*
X25008408Y81407000D01*
X25283592Y81407000D01*
X25553490Y81460686D01*
X25807727Y81565995D01*
X26036535Y81718880D01*
X26231120Y81913465D01*
X26384005Y82142273D01*
X26416000Y82219515D01*
X26447995Y82142273D01*
X26600880Y81913465D01*
X26795465Y81718880D01*
X27024273Y81565995D01*
X27278510Y81460686D01*
X27548408Y81407000D01*
X27823592Y81407000D01*
X28093490Y81460686D01*
X28347727Y81565995D01*
X28576535Y81718880D01*
X28771120Y81913465D01*
X28924005Y82142273D01*
X28956000Y82219515D01*
X28987995Y82142273D01*
X29140880Y81913465D01*
X29335465Y81718880D01*
X29564273Y81565995D01*
X29818510Y81460686D01*
X30088408Y81407000D01*
X30363592Y81407000D01*
X30633490Y81460686D01*
X30887727Y81565995D01*
X31116535Y81718880D01*
X31311120Y81913465D01*
X31464005Y82142273D01*
X31496000Y82219515D01*
X31527995Y82142273D01*
X31680880Y81913465D01*
X31875465Y81718880D01*
X32104273Y81565995D01*
X32358510Y81460686D01*
X32628408Y81407000D01*
X32903592Y81407000D01*
X33173490Y81460686D01*
X33427727Y81565995D01*
X33656535Y81718880D01*
X33851120Y81913465D01*
X34004005Y82142273D01*
X34036000Y82219515D01*
X34067995Y82142273D01*
X34220880Y81913465D01*
X34415465Y81718880D01*
X34644273Y81565995D01*
X34898510Y81460686D01*
X35168408Y81407000D01*
X35443592Y81407000D01*
X35713490Y81460686D01*
X35967727Y81565995D01*
X36196535Y81718880D01*
X36391120Y81913465D01*
X36544005Y82142273D01*
X36576000Y82219515D01*
X36607995Y82142273D01*
X36760880Y81913465D01*
X36955465Y81718880D01*
X37184273Y81565995D01*
X37438510Y81460686D01*
X37708408Y81407000D01*
X37983592Y81407000D01*
X38253490Y81460686D01*
X38507727Y81565995D01*
X38736535Y81718880D01*
X38931120Y81913465D01*
X39084005Y82142273D01*
X39116000Y82219515D01*
X39147995Y82142273D01*
X39300880Y81913465D01*
X39495465Y81718880D01*
X39724273Y81565995D01*
X39978510Y81460686D01*
X40248408Y81407000D01*
X40523592Y81407000D01*
X40793490Y81460686D01*
X41047727Y81565995D01*
X41276535Y81718880D01*
X41471120Y81913465D01*
X41624005Y82142273D01*
X41729314Y82396510D01*
X41783000Y82666408D01*
X41783000Y82941592D01*
X41729314Y83211490D01*
X41624005Y83465727D01*
X41471120Y83694535D01*
X41276535Y83889120D01*
X41047727Y84042005D01*
X40793490Y84147314D01*
X40523592Y84201000D01*
X40248408Y84201000D01*
X39978510Y84147314D01*
X39724273Y84042005D01*
X39495465Y83889120D01*
X39300880Y83694535D01*
X39147995Y83465727D01*
X39116000Y83388485D01*
X39084005Y83465727D01*
X38931120Y83694535D01*
X38736535Y83889120D01*
X38507727Y84042005D01*
X38253490Y84147314D01*
X37983592Y84201000D01*
X37708408Y84201000D01*
X37438510Y84147314D01*
X37184273Y84042005D01*
X36955465Y83889120D01*
X36760880Y83694535D01*
X36607995Y83465727D01*
X36576000Y83388485D01*
X36544005Y83465727D01*
X36391120Y83694535D01*
X36196535Y83889120D01*
X35967727Y84042005D01*
X35713490Y84147314D01*
X35443592Y84201000D01*
X35168408Y84201000D01*
X34898510Y84147314D01*
X34644273Y84042005D01*
X34415465Y83889120D01*
X34220880Y83694535D01*
X34067995Y83465727D01*
X34036000Y83388485D01*
X34004005Y83465727D01*
X33851120Y83694535D01*
X33656535Y83889120D01*
X33427727Y84042005D01*
X33173490Y84147314D01*
X32903592Y84201000D01*
X32628408Y84201000D01*
X32358510Y84147314D01*
X32104273Y84042005D01*
X31875465Y83889120D01*
X31680880Y83694535D01*
X31527995Y83465727D01*
X31496000Y83388485D01*
X31464005Y83465727D01*
X31311120Y83694535D01*
X31116535Y83889120D01*
X30887727Y84042005D01*
X30633490Y84147314D01*
X30363592Y84201000D01*
X30088408Y84201000D01*
X29818510Y84147314D01*
X29564273Y84042005D01*
X29335465Y83889120D01*
X29140880Y83694535D01*
X28987995Y83465727D01*
X28956000Y83388485D01*
X28924005Y83465727D01*
X28771120Y83694535D01*
X28576535Y83889120D01*
X28347727Y84042005D01*
X28093490Y84147314D01*
X27823592Y84201000D01*
X27548408Y84201000D01*
X27278510Y84147314D01*
X27024273Y84042005D01*
X26795465Y83889120D01*
X26600880Y83694535D01*
X26447995Y83465727D01*
X26416000Y83388485D01*
X26384005Y83465727D01*
X26231120Y83694535D01*
X26036535Y83889120D01*
X25807727Y84042005D01*
X25553490Y84147314D01*
X25283592Y84201000D01*
X25008408Y84201000D01*
X24738510Y84147314D01*
X24484273Y84042005D01*
X24255465Y83889120D01*
X24060880Y83694535D01*
X23907995Y83465727D01*
X23876000Y83388485D01*
X23844005Y83465727D01*
X23691120Y83694535D01*
X23496535Y83889120D01*
X23267727Y84042005D01*
X23013490Y84147314D01*
X22743592Y84201000D01*
X22468408Y84201000D01*
X22198510Y84147314D01*
X21944273Y84042005D01*
X21715465Y83889120D01*
X21520880Y83694535D01*
X21367995Y83465727D01*
X21336000Y83388485D01*
X21304005Y83465727D01*
X21151120Y83694535D01*
X20956535Y83889120D01*
X20727727Y84042005D01*
X20473490Y84147314D01*
X20203592Y84201000D01*
X19928408Y84201000D01*
X19658510Y84147314D01*
X19404273Y84042005D01*
X19175465Y83889120D01*
X18980880Y83694535D01*
X18827995Y83465727D01*
X18796000Y83388485D01*
X18764005Y83465727D01*
X18611120Y83694535D01*
X18416535Y83889120D01*
X18187727Y84042005D01*
X17933490Y84147314D01*
X17663592Y84201000D01*
X17388408Y84201000D01*
X17118510Y84147314D01*
X16864273Y84042005D01*
X16635465Y83889120D01*
X16440880Y83694535D01*
X16287995Y83465727D01*
X16258308Y83394057D01*
X16253636Y83407023D01*
X16191656Y83522980D01*
X15951565Y83589960D01*
X15165605Y82804000D01*
X14806395Y82804000D01*
X14020435Y83589960D01*
X13780344Y83522980D01*
X13716515Y83387240D01*
X13684005Y83465727D01*
X13531120Y83694535D01*
X13456090Y83769565D01*
X14200040Y83769565D01*
X14986000Y82983605D01*
X15771960Y83769565D01*
X15704980Y84009656D01*
X15455952Y84126756D01*
X15188865Y84193023D01*
X14913983Y84205910D01*
X14641867Y84164922D01*
X14382977Y84071636D01*
X14267020Y84009656D01*
X14200040Y83769565D01*
X13456090Y83769565D01*
X13336535Y83889120D01*
X13107727Y84042005D01*
X12853490Y84147314D01*
X12583592Y84201000D01*
X12308408Y84201000D01*
X12038510Y84147314D01*
X11784273Y84042005D01*
X11555465Y83889120D01*
X11360880Y83694535D01*
X11207995Y83465727D01*
X11102686Y83211490D01*
X11049000Y82941592D01*
X685000Y82941592D01*
X685000Y85568264D01*
X2061736Y86945000D01*
X62454264Y86945000D01*
X63831000Y85568264D01*
X63831000Y85568264D01*
G37*
X63831000Y85568264D02*
X63831001Y51485000D01*
X46769647Y51485000D01*
X46736000Y51488314D01*
X46702353Y51485000D01*
X46601717Y51475088D01*
X46472594Y51435919D01*
X46353593Y51372312D01*
X46249289Y51286711D01*
X46163688Y51182407D01*
X46100081Y51063406D01*
X46060912Y50934283D01*
X46047686Y50800000D01*
X46051000Y50766353D01*
X46051000Y32385000D01*
X685000Y32385000D01*
X685000Y36949656D01*
X10801000Y36949656D01*
X10801000Y36578344D01*
X10873439Y36214166D01*
X11015534Y35871118D01*
X11221825Y35562382D01*
X11484382Y35299825D01*
X11793118Y35093534D01*
X12136166Y34951439D01*
X12500344Y34879000D01*
X12871656Y34879000D01*
X13235834Y34951439D01*
X13578882Y35093534D01*
X13887618Y35299825D01*
X14038188Y35450395D01*
X21552000Y35450395D01*
X21677914Y35160423D01*
X22010126Y34994567D01*
X22368312Y34896710D01*
X22738706Y34870611D01*
X23107075Y34917275D01*
X23459262Y35034906D01*
X23694086Y35160423D01*
X23820000Y35450395D01*
X22686000Y36584395D01*
X21552000Y35450395D01*
X14038188Y35450395D01*
X14150175Y35562382D01*
X14356466Y35871118D01*
X14498561Y36214166D01*
X14571000Y36578344D01*
X14571000Y36711294D01*
X20792611Y36711294D01*
X20839275Y36342925D01*
X20956906Y35990738D01*
X21082423Y35755914D01*
X21372395Y35630000D01*
X22506395Y36764000D01*
X22865605Y36764000D01*
X23999605Y35630000D01*
X24289577Y35755914D01*
X24455433Y36088126D01*
X24553290Y36446312D01*
X24579389Y36816706D01*
X24532725Y37185075D01*
X24415094Y37537262D01*
X24396527Y37572000D01*
X36211928Y37572000D01*
X36211928Y35072000D01*
X36224188Y34947518D01*
X36260498Y34827820D01*
X36319463Y34717506D01*
X36398815Y34620815D01*
X36495506Y34541463D01*
X36605820Y34482498D01*
X36725518Y34446188D01*
X36850000Y34433928D01*
X39350000Y34433928D01*
X39474482Y34446188D01*
X39594180Y34482498D01*
X39704494Y34541463D01*
X39801185Y34620815D01*
X39880537Y34717506D01*
X39939502Y34827820D01*
X39975812Y34947518D01*
X39988072Y35072000D01*
X39988072Y36507656D01*
X41215000Y36507656D01*
X41215000Y36136344D01*
X41287439Y35772166D01*
X41429534Y35429118D01*
X41635825Y35120382D01*
X41898382Y34857825D01*
X42207118Y34651534D01*
X42550166Y34509439D01*
X42914344Y34437000D01*
X43285656Y34437000D01*
X43649834Y34509439D01*
X43992882Y34651534D01*
X44301618Y34857825D01*
X44564175Y35120382D01*
X44770466Y35429118D01*
X44912561Y35772166D01*
X44985000Y36136344D01*
X44985000Y36507656D01*
X44912561Y36871834D01*
X44770466Y37214882D01*
X44564175Y37523618D01*
X44301618Y37786175D01*
X43992882Y37992466D01*
X43649834Y38134561D01*
X43285656Y38207000D01*
X42914344Y38207000D01*
X42550166Y38134561D01*
X42207118Y37992466D01*
X41898382Y37786175D01*
X41635825Y37523618D01*
X41429534Y37214882D01*
X41287439Y36871834D01*
X41215000Y36507656D01*
X39988072Y36507656D01*
X39988072Y37572000D01*
X39975812Y37696482D01*
X39939502Y37816180D01*
X39880537Y37926494D01*
X39801185Y38023185D01*
X39704494Y38102537D01*
X39594180Y38161502D01*
X39474482Y38197812D01*
X39350000Y38210072D01*
X36850000Y38210072D01*
X36725518Y38197812D01*
X36605820Y38161502D01*
X36495506Y38102537D01*
X36398815Y38023185D01*
X36319463Y37926494D01*
X36260498Y37816180D01*
X36224188Y37696482D01*
X36211928Y37572000D01*
X24396527Y37572000D01*
X24289577Y37772086D01*
X23999605Y37898000D01*
X22865605Y36764000D01*
X22506395Y36764000D01*
X21372395Y37898000D01*
X21082423Y37772086D01*
X20916567Y37439874D01*
X20818710Y37081688D01*
X20792611Y36711294D01*
X14571000Y36711294D01*
X14571000Y36949656D01*
X14498561Y37313834D01*
X14356466Y37656882D01*
X14150175Y37965618D01*
X14038188Y38077605D01*
X21552000Y38077605D01*
X22686000Y36943605D01*
X23820000Y38077605D01*
X23694086Y38367577D01*
X23361874Y38533433D01*
X23003688Y38631290D01*
X22633294Y38657389D01*
X22264925Y38610725D01*
X21912738Y38493094D01*
X21677914Y38367577D01*
X21552000Y38077605D01*
X14038188Y38077605D01*
X13887618Y38228175D01*
X13578882Y38434466D01*
X13235834Y38576561D01*
X12871656Y38649000D01*
X12500344Y38649000D01*
X12136166Y38576561D01*
X11793118Y38434466D01*
X11484382Y38228175D01*
X11221825Y37965618D01*
X11015534Y37656882D01*
X10873439Y37313834D01*
X10801000Y36949656D01*
X685000Y36949656D01*
X685000Y47256000D01*
X15629928Y47256000D01*
X15642188Y47131518D01*
X15678498Y47011820D01*
X15737463Y46901506D01*
X15816815Y46804815D01*
X15913506Y46725463D01*
X16023820Y46666498D01*
X16143518Y46630188D01*
X16268000Y46617928D01*
X16732250Y46621000D01*
X16891000Y46779750D01*
X16891000Y47879000D01*
X15791750Y47879000D01*
X15633000Y47720250D01*
X15629928Y47256000D01*
X685000Y47256000D01*
X685000Y49655486D01*
X3746500Y49655486D01*
X3746500Y49404515D01*
X3769470Y49171297D01*
X3860245Y48872052D01*
X4007655Y48596266D01*
X4206037Y48354537D01*
X4447765Y48156155D01*
X4723551Y48008745D01*
X5022796Y47917970D01*
X5334000Y47887319D01*
X5645203Y47917970D01*
X5944448Y48008745D01*
X6220234Y48156155D01*
X6461963Y48354537D01*
X6604000Y48527609D01*
X6746037Y48354537D01*
X6987765Y48156155D01*
X7263551Y48008745D01*
X7562796Y47917970D01*
X7874000Y47887319D01*
X8185203Y47917970D01*
X8484448Y48008745D01*
X8760234Y48156155D01*
X8886095Y48259447D01*
X8930963Y48175506D01*
X9010315Y48078815D01*
X9107006Y47999463D01*
X9217320Y47940498D01*
X9337018Y47904188D01*
X9461500Y47891928D01*
X11366500Y47891928D01*
X11490982Y47904188D01*
X11610680Y47940498D01*
X11720994Y47999463D01*
X11817685Y48078815D01*
X11897037Y48175506D01*
X11956002Y48285820D01*
X11992312Y48405518D01*
X12004572Y48530000D01*
X12004572Y48756000D01*
X15629928Y48756000D01*
X15633000Y48291750D01*
X15791750Y48133000D01*
X16891000Y48133000D01*
X16891000Y49232250D01*
X17145000Y49232250D01*
X17145000Y48133000D01*
X17165000Y48133000D01*
X17165000Y47879000D01*
X17145000Y47879000D01*
X17145000Y46779750D01*
X17303750Y46621000D01*
X17768000Y46617928D01*
X17892482Y46630188D01*
X18012180Y46666498D01*
X18122494Y46725463D01*
X18219185Y46804815D01*
X18298537Y46901506D01*
X18357502Y47011820D01*
X18393812Y47131518D01*
X18404445Y47239483D01*
X18482201Y47123114D01*
X18675114Y46930201D01*
X18901957Y46778629D01*
X19154011Y46674225D01*
X19421589Y46621000D01*
X19694411Y46621000D01*
X19961989Y46674225D01*
X20214043Y46778629D01*
X20440886Y46930201D01*
X20633799Y47123114D01*
X20785371Y47349957D01*
X20828000Y47452873D01*
X20870629Y47349957D01*
X21022201Y47123114D01*
X21215114Y46930201D01*
X21441957Y46778629D01*
X21694011Y46674225D01*
X21961589Y46621000D01*
X22234411Y46621000D01*
X22501989Y46674225D01*
X22754043Y46778629D01*
X22980886Y46930201D01*
X23173799Y47123114D01*
X23325371Y47349957D01*
X23429775Y47602011D01*
X23483000Y47869589D01*
X23483000Y47893335D01*
X27267000Y47893335D01*
X27267000Y47610665D01*
X27322147Y47333426D01*
X27430320Y47072273D01*
X27587363Y46837241D01*
X27787241Y46637363D01*
X28022273Y46480320D01*
X28283426Y46372147D01*
X28560665Y46317000D01*
X28843335Y46317000D01*
X29120574Y46372147D01*
X29381727Y46480320D01*
X29616759Y46637363D01*
X29816637Y46837241D01*
X29973680Y47072273D01*
X30081853Y47333426D01*
X30095684Y47402960D01*
X32390091Y47402960D01*
X32484930Y47138119D01*
X32629615Y46896869D01*
X32818586Y46688481D01*
X33044580Y46520963D01*
X33298913Y46400754D01*
X33432961Y46360096D01*
X33655000Y46482085D01*
X33655000Y47625000D01*
X33909000Y47625000D01*
X33909000Y46482085D01*
X34131039Y46360096D01*
X34265087Y46400754D01*
X34519420Y46520963D01*
X34745414Y46688481D01*
X34934385Y46896869D01*
X35079070Y47138119D01*
X35173909Y47402960D01*
X35052624Y47625000D01*
X33909000Y47625000D01*
X33655000Y47625000D01*
X32511376Y47625000D01*
X32390091Y47402960D01*
X30095684Y47402960D01*
X30137000Y47610665D01*
X30137000Y47893335D01*
X30095685Y48101040D01*
X32390091Y48101040D01*
X32511376Y47879000D01*
X33655000Y47879000D01*
X33655000Y49021915D01*
X33909000Y49021915D01*
X33909000Y47879000D01*
X35052624Y47879000D01*
X35173909Y48101040D01*
X35079070Y48365881D01*
X34934385Y48607131D01*
X34745414Y48815519D01*
X34519420Y48983037D01*
X34265087Y49103246D01*
X34131039Y49143904D01*
X33909000Y49021915D01*
X33655000Y49021915D01*
X33432961Y49143904D01*
X33298913Y49103246D01*
X33044580Y48983037D01*
X32818586Y48815519D01*
X32629615Y48607131D01*
X32484930Y48365881D01*
X32390091Y48101040D01*
X30095685Y48101040D01*
X30081853Y48170574D01*
X29973680Y48431727D01*
X29816637Y48666759D01*
X29616759Y48866637D01*
X29381727Y49023680D01*
X29120574Y49131853D01*
X28843335Y49187000D01*
X28560665Y49187000D01*
X28283426Y49131853D01*
X28022273Y49023680D01*
X27787241Y48866637D01*
X27587363Y48666759D01*
X27430320Y48431727D01*
X27322147Y48170574D01*
X27267000Y47893335D01*
X23483000Y47893335D01*
X23483000Y48142411D01*
X23429775Y48409989D01*
X23325371Y48662043D01*
X23173799Y48888886D01*
X22980886Y49081799D01*
X22754043Y49233371D01*
X22501989Y49337775D01*
X22234411Y49391000D01*
X21961589Y49391000D01*
X21694011Y49337775D01*
X21441957Y49233371D01*
X21215114Y49081799D01*
X21022201Y48888886D01*
X20870629Y48662043D01*
X20828000Y48559127D01*
X20785371Y48662043D01*
X20633799Y48888886D01*
X20440886Y49081799D01*
X20214043Y49233371D01*
X19961989Y49337775D01*
X19694411Y49391000D01*
X19421589Y49391000D01*
X19154011Y49337775D01*
X18901957Y49233371D01*
X18675114Y49081799D01*
X18482201Y48888886D01*
X18404445Y48772517D01*
X18393812Y48880482D01*
X18357502Y49000180D01*
X18298537Y49110494D01*
X18219185Y49207185D01*
X18122494Y49286537D01*
X18012180Y49345502D01*
X17892482Y49381812D01*
X17768000Y49394072D01*
X17303750Y49391000D01*
X17145000Y49232250D01*
X16891000Y49232250D01*
X16732250Y49391000D01*
X16268000Y49394072D01*
X16143518Y49381812D01*
X16023820Y49345502D01*
X15913506Y49286537D01*
X15816815Y49207185D01*
X15737463Y49110494D01*
X15678498Y49000180D01*
X15642188Y48880482D01*
X15629928Y48756000D01*
X12004572Y48756000D01*
X12004572Y50530000D01*
X11992312Y50654482D01*
X11956002Y50774180D01*
X11897037Y50884494D01*
X11817685Y50981185D01*
X11720994Y51060537D01*
X11610680Y51119502D01*
X11490982Y51155812D01*
X11366500Y51168072D01*
X9461500Y51168072D01*
X9337018Y51155812D01*
X9217320Y51119502D01*
X9107006Y51060537D01*
X9010315Y50981185D01*
X8930963Y50884494D01*
X8886095Y50800554D01*
X8760235Y50903845D01*
X8484449Y51051255D01*
X8185204Y51142030D01*
X7874000Y51172681D01*
X7562797Y51142030D01*
X7263552Y51051255D01*
X6987766Y50903845D01*
X6746037Y50705463D01*
X6604000Y50532391D01*
X6461963Y50705463D01*
X6220235Y50903845D01*
X5944449Y51051255D01*
X5645204Y51142030D01*
X5334000Y51172681D01*
X5022797Y51142030D01*
X4723552Y51051255D01*
X4447766Y50903845D01*
X4206037Y50705463D01*
X4007655Y50463735D01*
X3860245Y50187949D01*
X3769470Y49888704D01*
X3746500Y49655486D01*
X685000Y49655486D01*
X685000Y55767335D01*
X2629000Y55767335D01*
X2629000Y55484665D01*
X2684147Y55207426D01*
X2792320Y54946273D01*
X2949363Y54711241D01*
X3149241Y54511363D01*
X3384273Y54354320D01*
X3645426Y54246147D01*
X3922665Y54191000D01*
X4205335Y54191000D01*
X4482574Y54246147D01*
X4743727Y54354320D01*
X4978759Y54511363D01*
X5100694Y54633298D01*
X5750903Y54633298D01*
X5822486Y54389329D01*
X6077996Y54268429D01*
X6352184Y54199700D01*
X6634512Y54185783D01*
X6914130Y54227213D01*
X7180292Y54322397D01*
X7305514Y54389329D01*
X7377097Y54633298D01*
X9934903Y54633298D01*
X10006486Y54389329D01*
X10261996Y54268429D01*
X10536184Y54199700D01*
X10818512Y54185783D01*
X11098130Y54227213D01*
X11364292Y54322397D01*
X11489514Y54389329D01*
X11561097Y54633298D01*
X10748000Y55446395D01*
X9934903Y54633298D01*
X7377097Y54633298D01*
X6564000Y55446395D01*
X5750903Y54633298D01*
X5100694Y54633298D01*
X5178637Y54711241D01*
X5312692Y54911869D01*
X5327329Y54884486D01*
X5571298Y54812903D01*
X6384395Y55626000D01*
X6743605Y55626000D01*
X7556702Y54812903D01*
X7800671Y54884486D01*
X7921571Y55139996D01*
X7990300Y55414184D01*
X7997265Y55555488D01*
X9307783Y55555488D01*
X9349213Y55275870D01*
X9444397Y55009708D01*
X9511329Y54884486D01*
X9755298Y54812903D01*
X10568395Y55626000D01*
X10927605Y55626000D01*
X11740702Y54812903D01*
X11984671Y54884486D01*
X12105571Y55139996D01*
X12174300Y55414184D01*
X12188217Y55696512D01*
X12177724Y55767335D01*
X14313000Y55767335D01*
X14313000Y55484665D01*
X14368147Y55207426D01*
X14476320Y54946273D01*
X14633363Y54711241D01*
X14833241Y54511363D01*
X15068273Y54354320D01*
X15329426Y54246147D01*
X15606665Y54191000D01*
X15889335Y54191000D01*
X16166574Y54246147D01*
X16427727Y54354320D01*
X16662759Y54511363D01*
X16862637Y54711241D01*
X17018455Y54944440D01*
X18548045Y54944440D01*
X18609932Y54708632D01*
X18851790Y54595734D01*
X19111027Y54532189D01*
X19377680Y54520439D01*
X19641501Y54560937D01*
X19892353Y54652125D01*
X19998068Y54708632D01*
X20059955Y54944440D01*
X19304000Y55700395D01*
X18548045Y54944440D01*
X17018455Y54944440D01*
X17019680Y54946273D01*
X17127853Y55207426D01*
X17183000Y55484665D01*
X17183000Y55767335D01*
X17175246Y55806320D01*
X17944439Y55806320D01*
X17984937Y55542499D01*
X18076125Y55291647D01*
X18132632Y55185932D01*
X18368440Y55124045D01*
X19124395Y55880000D01*
X19483605Y55880000D01*
X20239560Y55124045D01*
X20475368Y55185932D01*
X20588266Y55427790D01*
X20651811Y55687027D01*
X20663561Y55953680D01*
X20623063Y56217501D01*
X20531875Y56468353D01*
X20475368Y56574068D01*
X20239560Y56635955D01*
X19483605Y55880000D01*
X19124395Y55880000D01*
X18368440Y56635955D01*
X18132632Y56574068D01*
X18019734Y56332210D01*
X17956189Y56072973D01*
X17944439Y55806320D01*
X17175246Y55806320D01*
X17127853Y56044574D01*
X17019680Y56305727D01*
X16862637Y56540759D01*
X16662759Y56740637D01*
X16550629Y56815560D01*
X18548045Y56815560D01*
X19304000Y56059605D01*
X20059955Y56815560D01*
X19998068Y57051368D01*
X19756210Y57164266D01*
X19496973Y57227811D01*
X19230320Y57239561D01*
X18966499Y57199063D01*
X18715647Y57107875D01*
X18609932Y57051368D01*
X18548045Y56815560D01*
X16550629Y56815560D01*
X16427727Y56897680D01*
X16166574Y57005853D01*
X15889335Y57061000D01*
X15606665Y57061000D01*
X15329426Y57005853D01*
X15068273Y56897680D01*
X14833241Y56740637D01*
X14633363Y56540759D01*
X14476320Y56305727D01*
X14368147Y56044574D01*
X14313000Y55767335D01*
X12177724Y55767335D01*
X12146787Y55976130D01*
X12051603Y56242292D01*
X11984671Y56367514D01*
X11740702Y56439097D01*
X10927605Y55626000D01*
X10568395Y55626000D01*
X9755298Y56439097D01*
X9511329Y56367514D01*
X9390429Y56112004D01*
X9321700Y55837816D01*
X9307783Y55555488D01*
X7997265Y55555488D01*
X8004217Y55696512D01*
X7962787Y55976130D01*
X7867603Y56242292D01*
X7800671Y56367514D01*
X7556702Y56439097D01*
X6743605Y55626000D01*
X6384395Y55626000D01*
X5571298Y56439097D01*
X5327329Y56367514D01*
X5313676Y56338659D01*
X5178637Y56540759D01*
X5100694Y56618702D01*
X5750903Y56618702D01*
X6564000Y55805605D01*
X7377097Y56618702D01*
X9934903Y56618702D01*
X10748000Y55805605D01*
X11561097Y56618702D01*
X11489514Y56862671D01*
X11234004Y56983571D01*
X10959816Y57052300D01*
X10677488Y57066217D01*
X10397870Y57024787D01*
X10131708Y56929603D01*
X10006486Y56862671D01*
X9934903Y56618702D01*
X7377097Y56618702D01*
X7305514Y56862671D01*
X7050004Y56983571D01*
X6775816Y57052300D01*
X6493488Y57066217D01*
X6213870Y57024787D01*
X5947708Y56929603D01*
X5822486Y56862671D01*
X5750903Y56618702D01*
X5100694Y56618702D01*
X4978759Y56740637D01*
X4743727Y56897680D01*
X4482574Y57005853D01*
X4205335Y57061000D01*
X3922665Y57061000D01*
X3645426Y57005853D01*
X3384273Y56897680D01*
X3149241Y56740637D01*
X2949363Y56540759D01*
X2792320Y56305727D01*
X2684147Y56044574D01*
X2629000Y55767335D01*
X685000Y55767335D01*
X685000Y57484440D01*
X21088045Y57484440D01*
X21149932Y57248632D01*
X21391790Y57135734D01*
X21651027Y57072189D01*
X21917680Y57060439D01*
X22181501Y57100937D01*
X22432353Y57192125D01*
X22538068Y57248632D01*
X22599955Y57484440D01*
X21844000Y58240395D01*
X21088045Y57484440D01*
X685000Y57484440D01*
X685000Y58346320D01*
X20484439Y58346320D01*
X20524937Y58082499D01*
X20616125Y57831647D01*
X20672632Y57725932D01*
X20908440Y57664045D01*
X21664395Y58420000D01*
X22023605Y58420000D01*
X22779560Y57664045D01*
X23015368Y57725932D01*
X23102223Y57912000D01*
X27260057Y57912000D01*
X27287764Y57630691D01*
X27369818Y57360192D01*
X27503068Y57110899D01*
X27682392Y56892392D01*
X27900899Y56713068D01*
X28150192Y56579818D01*
X28420691Y56497764D01*
X28631508Y56477000D01*
X28772492Y56477000D01*
X28983309Y56497764D01*
X29253808Y56579818D01*
X29503101Y56713068D01*
X29721608Y56892392D01*
X29900932Y57110899D01*
X30034182Y57360192D01*
X30116236Y57630691D01*
X30143943Y57912000D01*
X30130023Y58053335D01*
X32347000Y58053335D01*
X32347000Y57770665D01*
X32402147Y57493426D01*
X32510320Y57232273D01*
X32667363Y56997241D01*
X32867241Y56797363D01*
X33102273Y56640320D01*
X33363426Y56532147D01*
X33640665Y56477000D01*
X33923335Y56477000D01*
X34200574Y56532147D01*
X34461727Y56640320D01*
X34696759Y56797363D01*
X34896637Y56997241D01*
X35053680Y57232273D01*
X35161853Y57493426D01*
X35217000Y57770665D01*
X35217000Y58053335D01*
X35161853Y58330574D01*
X35053680Y58591727D01*
X34896637Y58826759D01*
X34696759Y59026637D01*
X34461727Y59183680D01*
X34200574Y59291853D01*
X33923335Y59347000D01*
X33640665Y59347000D01*
X33363426Y59291853D01*
X33102273Y59183680D01*
X32867241Y59026637D01*
X32667363Y58826759D01*
X32510320Y58591727D01*
X32402147Y58330574D01*
X32347000Y58053335D01*
X30130023Y58053335D01*
X30116236Y58193309D01*
X30034182Y58463808D01*
X29900932Y58713101D01*
X29721608Y58931608D01*
X29503101Y59110932D01*
X29253808Y59244182D01*
X28983309Y59326236D01*
X28772492Y59347000D01*
X28631508Y59347000D01*
X28420691Y59326236D01*
X28150192Y59244182D01*
X27900899Y59110932D01*
X27682392Y58931608D01*
X27503068Y58713101D01*
X27369818Y58463808D01*
X27287764Y58193309D01*
X27260057Y57912000D01*
X23102223Y57912000D01*
X23128266Y57967790D01*
X23191811Y58227027D01*
X23203561Y58493680D01*
X23163063Y58757501D01*
X23071875Y59008353D01*
X23015368Y59114068D01*
X22779560Y59175955D01*
X22023605Y58420000D01*
X21664395Y58420000D01*
X20908440Y59175955D01*
X20672632Y59114068D01*
X20559734Y58872210D01*
X20496189Y58612973D01*
X20484439Y58346320D01*
X685000Y58346320D01*
X685000Y59355560D01*
X21088045Y59355560D01*
X21844000Y58599605D01*
X22599955Y59355560D01*
X22538068Y59591368D01*
X22296210Y59704266D01*
X22036973Y59767811D01*
X21770320Y59779561D01*
X21506499Y59739063D01*
X21255647Y59647875D01*
X21149932Y59591368D01*
X21088045Y59355560D01*
X685000Y59355560D01*
X685000Y61355335D01*
X3391000Y61355335D01*
X3391000Y61072665D01*
X3446147Y60795426D01*
X3554320Y60534273D01*
X3711363Y60299241D01*
X3911241Y60099363D01*
X4146273Y59942320D01*
X4407426Y59834147D01*
X4684665Y59779000D01*
X4967335Y59779000D01*
X5244574Y59834147D01*
X5505727Y59942320D01*
X5740759Y60099363D01*
X5940637Y60299241D01*
X6097680Y60534273D01*
X6205853Y60795426D01*
X6261000Y61072665D01*
X6261000Y61214000D01*
X13544057Y61214000D01*
X13571764Y60932691D01*
X13653818Y60662192D01*
X13787068Y60412899D01*
X13966392Y60194392D01*
X14184899Y60015068D01*
X14434192Y59881818D01*
X14704691Y59799764D01*
X14915508Y59779000D01*
X15056492Y59779000D01*
X15267309Y59799764D01*
X15537808Y59881818D01*
X15787101Y60015068D01*
X16005608Y60194392D01*
X16184932Y60412899D01*
X16318182Y60662192D01*
X16400236Y60932691D01*
X16416070Y61093456D01*
X17949000Y61093456D01*
X17949000Y60826544D01*
X18001072Y60564761D01*
X18103215Y60318167D01*
X18251503Y60096238D01*
X18440238Y59907503D01*
X18662167Y59759215D01*
X18908761Y59657072D01*
X19170544Y59605000D01*
X19437456Y59605000D01*
X19699239Y59657072D01*
X19945833Y59759215D01*
X20167762Y59907503D01*
X20356497Y60096238D01*
X20504785Y60318167D01*
X20606928Y60564761D01*
X20659000Y60826544D01*
X20659000Y61093456D01*
X20606928Y61355239D01*
X20504785Y61601833D01*
X20356497Y61823762D01*
X20167762Y62012497D01*
X20090683Y62064000D01*
X27213928Y62064000D01*
X27213928Y60364000D01*
X27226188Y60239518D01*
X27262498Y60119820D01*
X27321463Y60009506D01*
X27400815Y59912815D01*
X27497506Y59833463D01*
X27607820Y59774498D01*
X27727518Y59738188D01*
X27852000Y59725928D01*
X29552000Y59725928D01*
X29676482Y59738188D01*
X29796180Y59774498D01*
X29906494Y59833463D01*
X30003185Y59912815D01*
X30082537Y60009506D01*
X30141502Y60119820D01*
X30162393Y60188687D01*
X30186866Y60158866D01*
X30412986Y59973294D01*
X30670966Y59835401D01*
X30950889Y59750487D01*
X31169050Y59729000D01*
X31314950Y59729000D01*
X31533111Y59750487D01*
X31813034Y59835401D01*
X32071014Y59973294D01*
X32297134Y60158866D01*
X32482706Y60384986D01*
X32512000Y60439791D01*
X32541294Y60384986D01*
X32726866Y60158866D01*
X32952986Y59973294D01*
X33210966Y59835401D01*
X33490889Y59750487D01*
X33709050Y59729000D01*
X33854950Y59729000D01*
X34073111Y59750487D01*
X34353034Y59835401D01*
X34611014Y59973294D01*
X34837134Y60158866D01*
X35022706Y60384986D01*
X35160599Y60642966D01*
X35245513Y60922889D01*
X35274185Y61214000D01*
X35245513Y61505111D01*
X35229700Y61557242D01*
X51887000Y61557242D01*
X51887000Y60870758D01*
X52020927Y60197463D01*
X52283633Y59563234D01*
X52665024Y58992442D01*
X53150442Y58507024D01*
X53721234Y58125633D01*
X54355463Y57862927D01*
X55028758Y57729000D01*
X55715242Y57729000D01*
X56388537Y57862927D01*
X57022766Y58125633D01*
X57593558Y58507024D01*
X58078976Y58992442D01*
X58460367Y59563234D01*
X58723073Y60197463D01*
X58857000Y60870758D01*
X58857000Y61557242D01*
X58723073Y62230537D01*
X58460367Y62864766D01*
X58078976Y63435558D01*
X57593558Y63920976D01*
X57022766Y64302367D01*
X56388537Y64565073D01*
X55715242Y64699000D01*
X55028758Y64699000D01*
X54355463Y64565073D01*
X53721234Y64302367D01*
X53150442Y63920976D01*
X52665024Y63435558D01*
X52283633Y62864766D01*
X52020927Y62230537D01*
X51887000Y61557242D01*
X35229700Y61557242D01*
X35160599Y61785034D01*
X35022706Y62043014D01*
X34837134Y62269134D01*
X34611014Y62454706D01*
X34353034Y62592599D01*
X34073111Y62677513D01*
X33854950Y62699000D01*
X33709050Y62699000D01*
X33490889Y62677513D01*
X33210966Y62592599D01*
X32952986Y62454706D01*
X32726866Y62269134D01*
X32541294Y62043014D01*
X32512000Y61988209D01*
X32482706Y62043014D01*
X32297134Y62269134D01*
X32071014Y62454706D01*
X31813034Y62592599D01*
X31533111Y62677513D01*
X31314950Y62699000D01*
X31169050Y62699000D01*
X30950889Y62677513D01*
X30670966Y62592599D01*
X30412986Y62454706D01*
X30186866Y62269134D01*
X30162393Y62239313D01*
X30141502Y62308180D01*
X30082537Y62418494D01*
X30003185Y62515185D01*
X29906494Y62594537D01*
X29796180Y62653502D01*
X29676482Y62689812D01*
X29552000Y62702072D01*
X27852000Y62702072D01*
X27727518Y62689812D01*
X27607820Y62653502D01*
X27497506Y62594537D01*
X27400815Y62515185D01*
X27321463Y62418494D01*
X27262498Y62308180D01*
X27226188Y62188482D01*
X27213928Y62064000D01*
X20090683Y62064000D01*
X19945833Y62160785D01*
X19699239Y62262928D01*
X19437456Y62315000D01*
X19170544Y62315000D01*
X18908761Y62262928D01*
X18662167Y62160785D01*
X18440238Y62012497D01*
X18251503Y61823762D01*
X18103215Y61601833D01*
X18001072Y61355239D01*
X17949000Y61093456D01*
X16416070Y61093456D01*
X16427943Y61214000D01*
X16400236Y61495309D01*
X16318182Y61765808D01*
X16184932Y62015101D01*
X16005608Y62233608D01*
X15787101Y62412932D01*
X15537808Y62546182D01*
X15267309Y62628236D01*
X15056492Y62649000D01*
X14915508Y62649000D01*
X14704691Y62628236D01*
X14434192Y62546182D01*
X14184899Y62412932D01*
X13966392Y62233608D01*
X13787068Y62015101D01*
X13653818Y61765808D01*
X13571764Y61495309D01*
X13544057Y61214000D01*
X6261000Y61214000D01*
X6261000Y61355335D01*
X6205853Y61632574D01*
X6097680Y61893727D01*
X5940637Y62128759D01*
X5740759Y62328637D01*
X5505727Y62485680D01*
X5244574Y62593853D01*
X4967335Y62649000D01*
X4684665Y62649000D01*
X4407426Y62593853D01*
X4146273Y62485680D01*
X3911241Y62328637D01*
X3711363Y62128759D01*
X3554320Y61893727D01*
X3446147Y61632574D01*
X3391000Y61355335D01*
X685000Y61355335D01*
X685000Y67701592D01*
X11049000Y67701592D01*
X11049000Y67426408D01*
X11102686Y67156510D01*
X11207995Y66902273D01*
X11360880Y66673465D01*
X11555465Y66478880D01*
X11784273Y66325995D01*
X12038510Y66220686D01*
X12308408Y66167000D01*
X12583592Y66167000D01*
X12853490Y66220686D01*
X13107727Y66325995D01*
X13336535Y66478880D01*
X13531120Y66673465D01*
X13684005Y66902273D01*
X13716000Y66979515D01*
X13747995Y66902273D01*
X13900880Y66673465D01*
X14095465Y66478880D01*
X14324273Y66325995D01*
X14578510Y66220686D01*
X14848408Y66167000D01*
X15123592Y66167000D01*
X15393490Y66220686D01*
X15647727Y66325995D01*
X15876535Y66478880D01*
X16071120Y66673465D01*
X16224005Y66902273D01*
X16256000Y66979515D01*
X16287995Y66902273D01*
X16440880Y66673465D01*
X16635465Y66478880D01*
X16864273Y66325995D01*
X17118510Y66220686D01*
X17388408Y66167000D01*
X17663592Y66167000D01*
X17933490Y66220686D01*
X18187727Y66325995D01*
X18416535Y66478880D01*
X18536090Y66598435D01*
X19280040Y66598435D01*
X19347020Y66358344D01*
X19596048Y66241244D01*
X19863135Y66174977D01*
X20138017Y66162090D01*
X20410133Y66203078D01*
X20669023Y66296364D01*
X20784980Y66358344D01*
X20851960Y66598435D01*
X20066000Y67384395D01*
X19280040Y66598435D01*
X18536090Y66598435D01*
X18611120Y66673465D01*
X18764005Y66902273D01*
X18793692Y66973943D01*
X18798364Y66960977D01*
X18860344Y66845020D01*
X19100435Y66778040D01*
X19886395Y67564000D01*
X20245605Y67564000D01*
X21031565Y66778040D01*
X21271656Y66845020D01*
X21335485Y66980760D01*
X21367995Y66902273D01*
X21520880Y66673465D01*
X21715465Y66478880D01*
X21944273Y66325995D01*
X22198510Y66220686D01*
X22468408Y66167000D01*
X22743592Y66167000D01*
X23013490Y66220686D01*
X23267727Y66325995D01*
X23496535Y66478880D01*
X23691120Y66673465D01*
X23844005Y66902273D01*
X23876000Y66979515D01*
X23907995Y66902273D01*
X24060880Y66673465D01*
X24255465Y66478880D01*
X24484273Y66325995D01*
X24738510Y66220686D01*
X25008408Y66167000D01*
X25283592Y66167000D01*
X25553490Y66220686D01*
X25807727Y66325995D01*
X26036535Y66478880D01*
X26231120Y66673465D01*
X26384005Y66902273D01*
X26416000Y66979515D01*
X26447995Y66902273D01*
X26600880Y66673465D01*
X26795465Y66478880D01*
X27024273Y66325995D01*
X27278510Y66220686D01*
X27548408Y66167000D01*
X27823592Y66167000D01*
X28093490Y66220686D01*
X28347727Y66325995D01*
X28576535Y66478880D01*
X28771120Y66673465D01*
X28924005Y66902273D01*
X28956000Y66979515D01*
X28987995Y66902273D01*
X29140880Y66673465D01*
X29335465Y66478880D01*
X29564273Y66325995D01*
X29818510Y66220686D01*
X30088408Y66167000D01*
X30363592Y66167000D01*
X30633490Y66220686D01*
X30887727Y66325995D01*
X31116535Y66478880D01*
X31311120Y66673465D01*
X31464005Y66902273D01*
X31496000Y66979515D01*
X31527995Y66902273D01*
X31680880Y66673465D01*
X31875465Y66478880D01*
X32104273Y66325995D01*
X32358510Y66220686D01*
X32628408Y66167000D01*
X32903592Y66167000D01*
X33173490Y66220686D01*
X33427727Y66325995D01*
X33656535Y66478880D01*
X33851120Y66673465D01*
X34004005Y66902273D01*
X34036000Y66979515D01*
X34067995Y66902273D01*
X34220880Y66673465D01*
X34415465Y66478880D01*
X34644273Y66325995D01*
X34898510Y66220686D01*
X35168408Y66167000D01*
X35443592Y66167000D01*
X35713490Y66220686D01*
X35967727Y66325995D01*
X36196535Y66478880D01*
X36391120Y66673465D01*
X36544005Y66902273D01*
X36576000Y66979515D01*
X36607995Y66902273D01*
X36760880Y66673465D01*
X36955465Y66478880D01*
X37184273Y66325995D01*
X37438510Y66220686D01*
X37708408Y66167000D01*
X37983592Y66167000D01*
X38253490Y66220686D01*
X38507727Y66325995D01*
X38736535Y66478880D01*
X38931120Y66673465D01*
X39084005Y66902273D01*
X39116000Y66979515D01*
X39147995Y66902273D01*
X39300880Y66673465D01*
X39495465Y66478880D01*
X39724273Y66325995D01*
X39978510Y66220686D01*
X40248408Y66167000D01*
X40523592Y66167000D01*
X40793490Y66220686D01*
X41047727Y66325995D01*
X41276535Y66478880D01*
X41471120Y66673465D01*
X41624005Y66902273D01*
X41729314Y67156510D01*
X41783000Y67426408D01*
X41783000Y67701592D01*
X41729314Y67971490D01*
X41624005Y68225727D01*
X41471120Y68454535D01*
X41276535Y68649120D01*
X41047727Y68802005D01*
X40793490Y68907314D01*
X40523592Y68961000D01*
X40248408Y68961000D01*
X39978510Y68907314D01*
X39724273Y68802005D01*
X39495465Y68649120D01*
X39300880Y68454535D01*
X39147995Y68225727D01*
X39116000Y68148485D01*
X39084005Y68225727D01*
X38931120Y68454535D01*
X38736535Y68649120D01*
X38507727Y68802005D01*
X38253490Y68907314D01*
X37983592Y68961000D01*
X37708408Y68961000D01*
X37438510Y68907314D01*
X37184273Y68802005D01*
X36955465Y68649120D01*
X36760880Y68454535D01*
X36607995Y68225727D01*
X36576000Y68148485D01*
X36544005Y68225727D01*
X36391120Y68454535D01*
X36196535Y68649120D01*
X35967727Y68802005D01*
X35713490Y68907314D01*
X35443592Y68961000D01*
X35168408Y68961000D01*
X34898510Y68907314D01*
X34644273Y68802005D01*
X34415465Y68649120D01*
X34220880Y68454535D01*
X34067995Y68225727D01*
X34036000Y68148485D01*
X34004005Y68225727D01*
X33851120Y68454535D01*
X33656535Y68649120D01*
X33427727Y68802005D01*
X33173490Y68907314D01*
X32903592Y68961000D01*
X32628408Y68961000D01*
X32358510Y68907314D01*
X32104273Y68802005D01*
X31875465Y68649120D01*
X31680880Y68454535D01*
X31527995Y68225727D01*
X31496000Y68148485D01*
X31464005Y68225727D01*
X31311120Y68454535D01*
X31116535Y68649120D01*
X30887727Y68802005D01*
X30633490Y68907314D01*
X30363592Y68961000D01*
X30088408Y68961000D01*
X29818510Y68907314D01*
X29564273Y68802005D01*
X29335465Y68649120D01*
X29140880Y68454535D01*
X28987995Y68225727D01*
X28956000Y68148485D01*
X28924005Y68225727D01*
X28771120Y68454535D01*
X28576535Y68649120D01*
X28347727Y68802005D01*
X28093490Y68907314D01*
X27823592Y68961000D01*
X27548408Y68961000D01*
X27278510Y68907314D01*
X27024273Y68802005D01*
X26795465Y68649120D01*
X26600880Y68454535D01*
X26447995Y68225727D01*
X26416000Y68148485D01*
X26384005Y68225727D01*
X26231120Y68454535D01*
X26036535Y68649120D01*
X25807727Y68802005D01*
X25553490Y68907314D01*
X25283592Y68961000D01*
X25008408Y68961000D01*
X24738510Y68907314D01*
X24484273Y68802005D01*
X24255465Y68649120D01*
X24060880Y68454535D01*
X23907995Y68225727D01*
X23876000Y68148485D01*
X23844005Y68225727D01*
X23691120Y68454535D01*
X23496535Y68649120D01*
X23267727Y68802005D01*
X23013490Y68907314D01*
X22743592Y68961000D01*
X22468408Y68961000D01*
X22198510Y68907314D01*
X21944273Y68802005D01*
X21715465Y68649120D01*
X21520880Y68454535D01*
X21367995Y68225727D01*
X21338308Y68154057D01*
X21333636Y68167023D01*
X21271656Y68282980D01*
X21031565Y68349960D01*
X20245605Y67564000D01*
X19886395Y67564000D01*
X19100435Y68349960D01*
X18860344Y68282980D01*
X18796515Y68147240D01*
X18764005Y68225727D01*
X18611120Y68454535D01*
X18536090Y68529565D01*
X19280040Y68529565D01*
X20066000Y67743605D01*
X20851960Y68529565D01*
X20784980Y68769656D01*
X20535952Y68886756D01*
X20268865Y68953023D01*
X19993983Y68965910D01*
X19721867Y68924922D01*
X19462977Y68831636D01*
X19347020Y68769656D01*
X19280040Y68529565D01*
X18536090Y68529565D01*
X18416535Y68649120D01*
X18187727Y68802005D01*
X17933490Y68907314D01*
X17663592Y68961000D01*
X17388408Y68961000D01*
X17118510Y68907314D01*
X16864273Y68802005D01*
X16635465Y68649120D01*
X16440880Y68454535D01*
X16287995Y68225727D01*
X16256000Y68148485D01*
X16224005Y68225727D01*
X16071120Y68454535D01*
X15876535Y68649120D01*
X15647727Y68802005D01*
X15393490Y68907314D01*
X15123592Y68961000D01*
X14848408Y68961000D01*
X14578510Y68907314D01*
X14324273Y68802005D01*
X14095465Y68649120D01*
X13900880Y68454535D01*
X13747995Y68225727D01*
X13716000Y68148485D01*
X13684005Y68225727D01*
X13531120Y68454535D01*
X13336535Y68649120D01*
X13107727Y68802005D01*
X12853490Y68907314D01*
X12583592Y68961000D01*
X12308408Y68961000D01*
X12038510Y68907314D01*
X11784273Y68802005D01*
X11555465Y68649120D01*
X11360880Y68454535D01*
X11207995Y68225727D01*
X11102686Y67971490D01*
X11049000Y67701592D01*
X685000Y67701592D01*
X685000Y76289242D01*
X1341000Y76289242D01*
X1341000Y75602758D01*
X1474927Y74929463D01*
X1737633Y74295234D01*
X2119024Y73724442D01*
X2604442Y73239024D01*
X3175234Y72857633D01*
X3809463Y72594927D01*
X4482758Y72461000D01*
X5169242Y72461000D01*
X5842537Y72594927D01*
X6476766Y72857633D01*
X7047558Y73239024D01*
X7532976Y73724442D01*
X7914367Y74295234D01*
X8177073Y74929463D01*
X8300463Y75549788D01*
X41791000Y75549788D01*
X41791000Y75326212D01*
X41834617Y75106933D01*
X41920176Y74900376D01*
X42044388Y74714480D01*
X42202480Y74556388D01*
X42388376Y74432176D01*
X42594933Y74346617D01*
X42814212Y74303000D01*
X43037788Y74303000D01*
X43257067Y74346617D01*
X43463624Y74432176D01*
X43644450Y74553000D01*
X48303550Y74553000D01*
X48484376Y74432176D01*
X48690933Y74346617D01*
X48910212Y74303000D01*
X49133788Y74303000D01*
X49353067Y74346617D01*
X49559624Y74432176D01*
X49745520Y74556388D01*
X49903612Y74714480D01*
X50027824Y74900376D01*
X50113383Y75106933D01*
X50157000Y75326212D01*
X50157000Y75549788D01*
X50113383Y75769067D01*
X50036791Y75953976D01*
X50143166Y75932817D01*
X50366742Y75932817D01*
X50586021Y75976434D01*
X50792578Y76061993D01*
X50978474Y76186205D01*
X51136566Y76344297D01*
X51260778Y76530193D01*
X51346337Y76736750D01*
X51389954Y76956029D01*
X51389954Y77179605D01*
X51355862Y77351000D01*
X51419788Y77351000D01*
X51639067Y77394617D01*
X51845624Y77480176D01*
X52031520Y77604388D01*
X52189612Y77762480D01*
X52313824Y77948376D01*
X52399383Y78154933D01*
X52443000Y78374212D01*
X52443000Y78597788D01*
X52399383Y78817067D01*
X52313824Y79023624D01*
X52209245Y79180137D01*
X52391014Y79277294D01*
X52617134Y79462866D01*
X52802706Y79688986D01*
X52832000Y79743791D01*
X52861294Y79688986D01*
X53046866Y79462866D01*
X53272986Y79277294D01*
X53530966Y79139401D01*
X53810889Y79054487D01*
X54029050Y79033000D01*
X54174950Y79033000D01*
X54393111Y79054487D01*
X54673034Y79139401D01*
X54931014Y79277294D01*
X55157134Y79462866D01*
X55342706Y79688986D01*
X55372000Y79743791D01*
X55401294Y79688986D01*
X55586866Y79462866D01*
X55812986Y79277294D01*
X56070966Y79139401D01*
X56350889Y79054487D01*
X56569050Y79033000D01*
X56714950Y79033000D01*
X56933111Y79054487D01*
X57213034Y79139401D01*
X57471014Y79277294D01*
X57697134Y79462866D01*
X57882706Y79688986D01*
X57912000Y79743791D01*
X57941294Y79688986D01*
X58126866Y79462866D01*
X58352986Y79277294D01*
X58610966Y79139401D01*
X58890889Y79054487D01*
X59109050Y79033000D01*
X59254950Y79033000D01*
X59473111Y79054487D01*
X59753034Y79139401D01*
X60011014Y79277294D01*
X60237134Y79462866D01*
X60422706Y79688986D01*
X60560599Y79946966D01*
X60645513Y80226889D01*
X60674185Y80518000D01*
X60645513Y80809111D01*
X60560599Y81089034D01*
X60422706Y81347014D01*
X60237134Y81573134D01*
X60207313Y81597607D01*
X60276180Y81618498D01*
X60386494Y81677463D01*
X60483185Y81756815D01*
X60562537Y81853506D01*
X60621502Y81963820D01*
X60657812Y82083518D01*
X60670072Y82208000D01*
X60667000Y82772250D01*
X60508250Y82931000D01*
X59309000Y82931000D01*
X59309000Y82911000D01*
X59055000Y82911000D01*
X59055000Y82931000D01*
X59035000Y82931000D01*
X59035000Y83185000D01*
X59055000Y83185000D01*
X59055000Y84384250D01*
X59309000Y84384250D01*
X59309000Y83185000D01*
X60508250Y83185000D01*
X60667000Y83343750D01*
X60670072Y83908000D01*
X60657812Y84032482D01*
X60621502Y84152180D01*
X60562537Y84262494D01*
X60483185Y84359185D01*
X60386494Y84438537D01*
X60276180Y84497502D01*
X60156482Y84533812D01*
X60032000Y84546072D01*
X59467750Y84543000D01*
X59309000Y84384250D01*
X59055000Y84384250D01*
X58896250Y84543000D01*
X58332000Y84546072D01*
X58207518Y84533812D01*
X58087820Y84497502D01*
X57977506Y84438537D01*
X57880815Y84359185D01*
X57801463Y84262494D01*
X57742498Y84152180D01*
X57721607Y84083313D01*
X57697134Y84113134D01*
X57471014Y84298706D01*
X57213034Y84436599D01*
X56933111Y84521513D01*
X56714950Y84543000D01*
X56569050Y84543000D01*
X56350889Y84521513D01*
X56070966Y84436599D01*
X55812986Y84298706D01*
X55586866Y84113134D01*
X55401294Y83887014D01*
X55372000Y83832209D01*
X55342706Y83887014D01*
X55157134Y84113134D01*
X54931014Y84298706D01*
X54673034Y84436599D01*
X54393111Y84521513D01*
X54174950Y84543000D01*
X54029050Y84543000D01*
X53810889Y84521513D01*
X53530966Y84436599D01*
X53272986Y84298706D01*
X53046866Y84113134D01*
X52861294Y83887014D01*
X52832000Y83832209D01*
X52802706Y83887014D01*
X52617134Y84113134D01*
X52391014Y84298706D01*
X52133034Y84436599D01*
X51853111Y84521513D01*
X51634950Y84543000D01*
X51489050Y84543000D01*
X51270889Y84521513D01*
X50990966Y84436599D01*
X50732986Y84298706D01*
X50506866Y84113134D01*
X50321294Y83887014D01*
X50183401Y83629034D01*
X50098487Y83349111D01*
X50069815Y83058000D01*
X50098487Y82766889D01*
X50183401Y82486966D01*
X50321294Y82228986D01*
X50506866Y82002866D01*
X50732986Y81817294D01*
X50787791Y81788000D01*
X50732986Y81758706D01*
X50506866Y81573134D01*
X50321294Y81347014D01*
X50183401Y81089034D01*
X50130601Y80914977D01*
X49139811Y81905768D01*
X49097383Y82119067D01*
X49011824Y82325624D01*
X48887612Y82511520D01*
X48729520Y82669612D01*
X48543624Y82793824D01*
X48337067Y82879383D01*
X48117788Y82923000D01*
X47894212Y82923000D01*
X47674933Y82879383D01*
X47468376Y82793824D01*
X47282480Y82669612D01*
X47124388Y82511520D01*
X47000176Y82325624D01*
X46914617Y82119067D01*
X46871000Y81899788D01*
X46871000Y81676212D01*
X46914617Y81456933D01*
X46946771Y81379307D01*
X46847788Y81398996D01*
X46624212Y81398996D01*
X46404933Y81355379D01*
X46198376Y81269820D01*
X46012480Y81145608D01*
X45854388Y80987516D01*
X45730176Y80801620D01*
X45644617Y80595063D01*
X45601000Y80375784D01*
X45601000Y80152208D01*
X45644617Y79932929D01*
X45730176Y79726372D01*
X45854388Y79540476D01*
X46012480Y79382384D01*
X46198376Y79258172D01*
X46404933Y79172613D01*
X46502627Y79153181D01*
X49082807Y76573000D01*
X48910212Y76573000D01*
X48690933Y76529383D01*
X48484376Y76443824D01*
X48303550Y76323000D01*
X43644450Y76323000D01*
X43463624Y76443824D01*
X43257067Y76529383D01*
X43037788Y76573000D01*
X42814212Y76573000D01*
X42594933Y76529383D01*
X42388376Y76443824D01*
X42202480Y76319612D01*
X42044388Y76161520D01*
X41920176Y75975624D01*
X41834617Y75769067D01*
X41791000Y75549788D01*
X8300463Y75549788D01*
X8311000Y75602758D01*
X8311000Y76289242D01*
X8177073Y76962537D01*
X7914367Y77596766D01*
X7532976Y78167558D01*
X7047558Y78652976D01*
X6476766Y79034367D01*
X5842537Y79297073D01*
X5169242Y79431000D01*
X4482758Y79431000D01*
X3809463Y79297073D01*
X3175234Y79034367D01*
X2604442Y78652976D01*
X2119024Y78167558D01*
X1737633Y77596766D01*
X1474927Y76962537D01*
X1341000Y76289242D01*
X685000Y76289242D01*
X685000Y82941592D01*
X11049000Y82941592D01*
X11049000Y82666408D01*
X11102686Y82396510D01*
X11207995Y82142273D01*
X11360880Y81913465D01*
X11555465Y81718880D01*
X11784273Y81565995D01*
X12038510Y81460686D01*
X12308408Y81407000D01*
X12583592Y81407000D01*
X12853490Y81460686D01*
X13107727Y81565995D01*
X13336535Y81718880D01*
X13456090Y81838435D01*
X14200040Y81838435D01*
X14267020Y81598344D01*
X14516048Y81481244D01*
X14783135Y81414977D01*
X15058017Y81402090D01*
X15330133Y81443078D01*
X15589023Y81536364D01*
X15704980Y81598344D01*
X15771960Y81838435D01*
X14986000Y82624395D01*
X14200040Y81838435D01*
X13456090Y81838435D01*
X13531120Y81913465D01*
X13684005Y82142273D01*
X13713692Y82213943D01*
X13718364Y82200977D01*
X13780344Y82085020D01*
X14020435Y82018040D01*
X14806395Y82804000D01*
X15165605Y82804000D01*
X15951565Y82018040D01*
X16191656Y82085020D01*
X16255485Y82220760D01*
X16287995Y82142273D01*
X16440880Y81913465D01*
X16635465Y81718880D01*
X16864273Y81565995D01*
X17118510Y81460686D01*
X17388408Y81407000D01*
X17663592Y81407000D01*
X17933490Y81460686D01*
X18187727Y81565995D01*
X18416535Y81718880D01*
X18611120Y81913465D01*
X18764005Y82142273D01*
X18796000Y82219515D01*
X18827995Y82142273D01*
X18980880Y81913465D01*
X19175465Y81718880D01*
X19404273Y81565995D01*
X19658510Y81460686D01*
X19928408Y81407000D01*
X20203592Y81407000D01*
X20473490Y81460686D01*
X20727727Y81565995D01*
X20956535Y81718880D01*
X21151120Y81913465D01*
X21304005Y82142273D01*
X21336000Y82219515D01*
X21367995Y82142273D01*
X21520880Y81913465D01*
X21715465Y81718880D01*
X21944273Y81565995D01*
X22198510Y81460686D01*
X22468408Y81407000D01*
X22743592Y81407000D01*
X23013490Y81460686D01*
X23267727Y81565995D01*
X23496535Y81718880D01*
X23691120Y81913465D01*
X23844005Y82142273D01*
X23876000Y82219515D01*
X23907995Y82142273D01*
X24060880Y81913465D01*
X24255465Y81718880D01*
X24484273Y81565995D01*
X24738510Y81460686D01*
X25008408Y81407000D01*
X25283592Y81407000D01*
X25553490Y81460686D01*
X25807727Y81565995D01*
X26036535Y81718880D01*
X26231120Y81913465D01*
X26384005Y82142273D01*
X26416000Y82219515D01*
X26447995Y82142273D01*
X26600880Y81913465D01*
X26795465Y81718880D01*
X27024273Y81565995D01*
X27278510Y81460686D01*
X27548408Y81407000D01*
X27823592Y81407000D01*
X28093490Y81460686D01*
X28347727Y81565995D01*
X28576535Y81718880D01*
X28771120Y81913465D01*
X28924005Y82142273D01*
X28956000Y82219515D01*
X28987995Y82142273D01*
X29140880Y81913465D01*
X29335465Y81718880D01*
X29564273Y81565995D01*
X29818510Y81460686D01*
X30088408Y81407000D01*
X30363592Y81407000D01*
X30633490Y81460686D01*
X30887727Y81565995D01*
X31116535Y81718880D01*
X31311120Y81913465D01*
X31464005Y82142273D01*
X31496000Y82219515D01*
X31527995Y82142273D01*
X31680880Y81913465D01*
X31875465Y81718880D01*
X32104273Y81565995D01*
X32358510Y81460686D01*
X32628408Y81407000D01*
X32903592Y81407000D01*
X33173490Y81460686D01*
X33427727Y81565995D01*
X33656535Y81718880D01*
X33851120Y81913465D01*
X34004005Y82142273D01*
X34036000Y82219515D01*
X34067995Y82142273D01*
X34220880Y81913465D01*
X34415465Y81718880D01*
X34644273Y81565995D01*
X34898510Y81460686D01*
X35168408Y81407000D01*
X35443592Y81407000D01*
X35713490Y81460686D01*
X35967727Y81565995D01*
X36196535Y81718880D01*
X36391120Y81913465D01*
X36544005Y82142273D01*
X36576000Y82219515D01*
X36607995Y82142273D01*
X36760880Y81913465D01*
X36955465Y81718880D01*
X37184273Y81565995D01*
X37438510Y81460686D01*
X37708408Y81407000D01*
X37983592Y81407000D01*
X38253490Y81460686D01*
X38507727Y81565995D01*
X38736535Y81718880D01*
X38931120Y81913465D01*
X39084005Y82142273D01*
X39116000Y82219515D01*
X39147995Y82142273D01*
X39300880Y81913465D01*
X39495465Y81718880D01*
X39724273Y81565995D01*
X39978510Y81460686D01*
X40248408Y81407000D01*
X40523592Y81407000D01*
X40793490Y81460686D01*
X41047727Y81565995D01*
X41276535Y81718880D01*
X41471120Y81913465D01*
X41624005Y82142273D01*
X41729314Y82396510D01*
X41783000Y82666408D01*
X41783000Y82941592D01*
X41729314Y83211490D01*
X41624005Y83465727D01*
X41471120Y83694535D01*
X41276535Y83889120D01*
X41047727Y84042005D01*
X40793490Y84147314D01*
X40523592Y84201000D01*
X40248408Y84201000D01*
X39978510Y84147314D01*
X39724273Y84042005D01*
X39495465Y83889120D01*
X39300880Y83694535D01*
X39147995Y83465727D01*
X39116000Y83388485D01*
X39084005Y83465727D01*
X38931120Y83694535D01*
X38736535Y83889120D01*
X38507727Y84042005D01*
X38253490Y84147314D01*
X37983592Y84201000D01*
X37708408Y84201000D01*
X37438510Y84147314D01*
X37184273Y84042005D01*
X36955465Y83889120D01*
X36760880Y83694535D01*
X36607995Y83465727D01*
X36576000Y83388485D01*
X36544005Y83465727D01*
X36391120Y83694535D01*
X36196535Y83889120D01*
X35967727Y84042005D01*
X35713490Y84147314D01*
X35443592Y84201000D01*
X35168408Y84201000D01*
X34898510Y84147314D01*
X34644273Y84042005D01*
X34415465Y83889120D01*
X34220880Y83694535D01*
X34067995Y83465727D01*
X34036000Y83388485D01*
X34004005Y83465727D01*
X33851120Y83694535D01*
X33656535Y83889120D01*
X33427727Y84042005D01*
X33173490Y84147314D01*
X32903592Y84201000D01*
X32628408Y84201000D01*
X32358510Y84147314D01*
X32104273Y84042005D01*
X31875465Y83889120D01*
X31680880Y83694535D01*
X31527995Y83465727D01*
X31496000Y83388485D01*
X31464005Y83465727D01*
X31311120Y83694535D01*
X31116535Y83889120D01*
X30887727Y84042005D01*
X30633490Y84147314D01*
X30363592Y84201000D01*
X30088408Y84201000D01*
X29818510Y84147314D01*
X29564273Y84042005D01*
X29335465Y83889120D01*
X29140880Y83694535D01*
X28987995Y83465727D01*
X28956000Y83388485D01*
X28924005Y83465727D01*
X28771120Y83694535D01*
X28576535Y83889120D01*
X28347727Y84042005D01*
X28093490Y84147314D01*
X27823592Y84201000D01*
X27548408Y84201000D01*
X27278510Y84147314D01*
X27024273Y84042005D01*
X26795465Y83889120D01*
X26600880Y83694535D01*
X26447995Y83465727D01*
X26416000Y83388485D01*
X26384005Y83465727D01*
X26231120Y83694535D01*
X26036535Y83889120D01*
X25807727Y84042005D01*
X25553490Y84147314D01*
X25283592Y84201000D01*
X25008408Y84201000D01*
X24738510Y84147314D01*
X24484273Y84042005D01*
X24255465Y83889120D01*
X24060880Y83694535D01*
X23907995Y83465727D01*
X23876000Y83388485D01*
X23844005Y83465727D01*
X23691120Y83694535D01*
X23496535Y83889120D01*
X23267727Y84042005D01*
X23013490Y84147314D01*
X22743592Y84201000D01*
X22468408Y84201000D01*
X22198510Y84147314D01*
X21944273Y84042005D01*
X21715465Y83889120D01*
X21520880Y83694535D01*
X21367995Y83465727D01*
X21336000Y83388485D01*
X21304005Y83465727D01*
X21151120Y83694535D01*
X20956535Y83889120D01*
X20727727Y84042005D01*
X20473490Y84147314D01*
X20203592Y84201000D01*
X19928408Y84201000D01*
X19658510Y84147314D01*
X19404273Y84042005D01*
X19175465Y83889120D01*
X18980880Y83694535D01*
X18827995Y83465727D01*
X18796000Y83388485D01*
X18764005Y83465727D01*
X18611120Y83694535D01*
X18416535Y83889120D01*
X18187727Y84042005D01*
X17933490Y84147314D01*
X17663592Y84201000D01*
X17388408Y84201000D01*
X17118510Y84147314D01*
X16864273Y84042005D01*
X16635465Y83889120D01*
X16440880Y83694535D01*
X16287995Y83465727D01*
X16258308Y83394057D01*
X16253636Y83407023D01*
X16191656Y83522980D01*
X15951565Y83589960D01*
X15165605Y82804000D01*
X14806395Y82804000D01*
X14020435Y83589960D01*
X13780344Y83522980D01*
X13716515Y83387240D01*
X13684005Y83465727D01*
X13531120Y83694535D01*
X13456090Y83769565D01*
X14200040Y83769565D01*
X14986000Y82983605D01*
X15771960Y83769565D01*
X15704980Y84009656D01*
X15455952Y84126756D01*
X15188865Y84193023D01*
X14913983Y84205910D01*
X14641867Y84164922D01*
X14382977Y84071636D01*
X14267020Y84009656D01*
X14200040Y83769565D01*
X13456090Y83769565D01*
X13336535Y83889120D01*
X13107727Y84042005D01*
X12853490Y84147314D01*
X12583592Y84201000D01*
X12308408Y84201000D01*
X12038510Y84147314D01*
X11784273Y84042005D01*
X11555465Y83889120D01*
X11360880Y83694535D01*
X11207995Y83465727D01*
X11102686Y83211490D01*
X11049000Y82941592D01*
X685000Y82941592D01*
X685000Y85568264D01*
X2061736Y86945000D01*
X62454264Y86945000D01*
X63831000Y85568264D01*
M02*
